<svg width="7" height="9" viewBox="0 0 7 9" fill="none" xmlns="http://www.w3.org/2000/svg">
<path d="M0.324 8.52V7.476L3.66 4.308C3.94 4.044 4.148 3.812 4.284 3.612C4.42 3.412 4.508 3.228 4.548 3.06C4.596 2.884 4.62 2.72 4.62 2.568C4.62 2.184 4.488 1.888 4.224 1.68C3.96 1.464 3.572 1.356 3.06 1.356C2.652 1.356 2.28 1.428 1.944 1.572C1.616 1.716 1.332 1.936 1.092 2.232L0 1.392C0.328 0.952 0.768 0.612 1.32 0.372C1.88 0.124 2.504 0 3.192 0C3.8 0 4.328 0.0999994 4.776 0.299999C5.232 0.492 5.58 0.768001 5.82 1.128C6.068 1.488 6.192 1.916 6.192 2.412C6.192 2.684 6.156 2.956 6.084 3.228C6.012 3.492 5.876 3.772 5.676 4.068C5.476 4.364 5.184 4.696 4.8 5.064L1.932 7.788L1.608 7.2H6.516V8.52H0.324Z" fill="#0F172A"/>
</svg>