<svg width="7" height="9" viewBox="0 0 7 9" fill="none" xmlns="http://www.w3.org/2000/svg">
<path d="M3.156 8.52C2.564 8.52 1.984 8.436 1.416 8.268C0.856 8.092 0.384 7.852 0 7.548L0.66 6.336C0.964 6.584 1.332 6.784 1.764 6.936C2.204 7.088 2.66 7.164 3.132 7.164C3.684 7.164 4.116 7.048 4.428 6.816C4.748 6.584 4.908 6.272 4.908 5.88C4.908 5.616 4.84 5.384 4.704 5.184C4.576 4.984 4.344 4.832 4.008 4.728C3.68 4.624 3.228 4.572 2.652 4.572H0.624L1.056 0H5.988V1.308H1.632L2.448 0.564L2.124 3.984L1.308 3.252H3C3.832 3.252 4.5 3.364 5.004 3.588C5.516 3.804 5.888 4.108 6.12 4.5C6.36 4.884 6.48 5.324 6.48 5.82C6.48 6.308 6.36 6.756 6.12 7.164C5.88 7.572 5.512 7.9 5.016 8.148C4.528 8.396 3.908 8.52 3.156 8.52Z" fill="#0F172A"/>
</svg>