<svg width="7" height="9" viewBox="0 0 7 9" fill="none" xmlns="http://www.w3.org/2000/svg">
<path d="M3.42 8.64C2.724 8.64 2.12 8.536 1.608 8.328C1.096 8.12 0.7 7.828 0.42 7.452C0.14 7.068 0 6.62 0 6.108C0 5.596 0.136 5.164 0.408 4.812C0.68 4.46 1.072 4.192 1.584 4.008C2.096 3.824 2.708 3.732 3.42 3.732C4.132 3.732 4.744 3.824 5.256 4.008C5.776 4.192 6.172 4.464 6.444 4.824C6.724 5.176 6.864 5.604 6.864 6.108C6.864 6.62 6.72 7.068 6.432 7.452C6.152 7.828 5.752 8.12 5.232 8.328C4.72 8.536 4.116 8.64 3.42 8.64ZM3.42 7.416C3.996 7.416 4.452 7.296 4.788 7.056C5.124 6.816 5.292 6.484 5.292 6.06C5.292 5.644 5.124 5.316 4.788 5.076C4.452 4.836 3.996 4.716 3.42 4.716C2.844 4.716 2.392 4.836 2.064 5.076C1.736 5.316 1.572 5.644 1.572 6.06C1.572 6.484 1.736 6.816 2.064 7.056C2.392 7.296 2.844 7.416 3.42 7.416ZM3.42 4.548C2.772 4.548 2.216 4.464 1.752 4.296C1.288 4.12 0.928 3.868 0.672 3.54C0.424 3.204 0.3 2.804 0.3 2.34C0.3 1.86 0.428 1.448 0.684 1.104C0.948 0.752 1.316 0.48 1.788 0.288C2.26 0.0960002 2.804 0 3.42 0C4.044 0 4.592 0.0960002 5.064 0.288C5.536 0.48 5.904 0.752 6.168 1.104C6.432 1.448 6.564 1.86 6.564 2.34C6.564 2.804 6.436 3.204 6.18 3.54C5.932 3.868 5.572 4.12 5.1 4.296C4.628 4.464 4.068 4.548 3.42 4.548ZM3.42 3.588C3.916 3.588 4.308 3.484 4.596 3.276C4.884 3.06 5.028 2.772 5.028 2.412C5.028 2.036 4.88 1.744 4.584 1.536C4.288 1.328 3.9 1.224 3.42 1.224C2.94 1.224 2.556 1.328 2.268 1.536C1.98 1.744 1.836 2.036 1.836 2.412C1.836 2.772 1.976 3.06 2.256 3.276C2.544 3.484 2.932 3.588 3.42 3.588Z" fill="#0F172A"/>
</svg>