<svg width="8" height="9" viewBox="0 0 8 9" fill="none" xmlns="http://www.w3.org/2000/svg">
<path d="M5.92 8.56V6.768L5.84 6.432V3.376C5.84 2.72533 5.648 2.224 5.264 1.872C4.89067 1.50933 4.32533 1.328 3.568 1.328C3.06667 1.328 2.576 1.41333 2.096 1.584C1.616 1.744 1.21067 1.96267 0.88 2.24L0.24 1.088C0.677333 0.736 1.2 0.469334 1.808 0.288C2.42667 0.096 3.072 0 3.744 0C4.90667 0 5.80267 0.282667 6.432 0.848001C7.06133 1.41333 7.376 2.27733 7.376 3.44V8.56H5.92ZM3.136 8.656C2.50667 8.656 1.952 8.54933 1.472 8.336C1.00267 8.12267 0.64 7.82933 0.384 7.456C0.128 7.072 0 6.64 0 6.16C0 5.70133 0.106667 5.28533 0.32 4.912C0.544 4.53867 0.901333 4.24 1.392 4.016C1.89333 3.792 2.56533 3.68 3.408 3.68H6.096V4.784H3.472C2.704 4.784 2.18667 4.912 1.92 5.168C1.65333 5.424 1.52 5.73333 1.52 6.096C1.52 6.512 1.68533 6.848 2.016 7.104C2.34667 7.34933 2.80533 7.472 3.392 7.472C3.968 7.472 4.46933 7.344 4.896 7.088C5.33333 6.832 5.648 6.45867 5.84 5.968L6.144 7.024C5.94133 7.52533 5.584 7.92533 5.072 8.224C4.56 8.512 3.91467 8.656 3.136 8.656Z" fill="#0F172A"/>
</svg>