<svg width="15" height="17" viewBox="0 0 15 17" fill="none" xmlns="http://www.w3.org/2000/svg">
<path d="M6.39819 10.0249V16.1941H0C0 12.7869 2.86457 10.0249 6.39819 10.0249ZM11.1968 15.8085L8.84638 17L9.29529 14.4763L7.39367 12.6891L10.0216 12.321L11.1968 10.0249L12.3721 12.321L15 12.6891L13.0984 14.4763L13.5473 17L11.1968 15.8085ZM6.39819 9.25376C3.74694 9.25376 1.59955 7.18323 1.59955 4.62688C1.59955 2.07053 3.74694 0 6.39819 0C9.04944 0 11.1968 2.07053 11.1968 4.62688C11.1968 7.18323 9.04944 9.25376 6.39819 9.25376Z" fill="black"/>
</svg>