<svg width="9" height="12" viewBox="0 0 9 12" fill="none" xmlns="http://www.w3.org/2000/svg">
<path d="M4.496 11.968C3.77067 11.968 3.11467 11.808 2.528 11.488C1.952 11.1573 1.49333 10.672 1.152 10.032C0.821333 9.392 0.656 8.592 0.656 7.632C0.656 6.672 0.826667 5.872 1.168 5.232C1.52 4.592 1.984 4.112 2.56 3.792C3.14667 3.472 3.792 3.312 4.496 3.312C5.328 3.312 6.064 3.49333 6.704 3.856C7.344 4.21867 7.85067 4.72533 8.224 5.376C8.59733 6.016 8.784 6.768 8.784 7.632C8.784 8.496 8.59733 9.25333 8.224 9.904C7.85067 10.5547 7.344 11.0613 6.704 11.424C6.064 11.7867 5.328 11.968 4.496 11.968ZM0 11.872V0H1.536V5.648L1.376 7.616L1.472 9.584V11.872H0ZM4.368 10.624C4.912 10.624 5.39733 10.5013 5.824 10.256C6.26133 10.0107 6.60267 9.664 6.848 9.216C7.104 8.75733 7.232 8.22933 7.232 7.632C7.232 7.024 7.104 6.50133 6.848 6.064C6.60267 5.616 6.26133 5.26933 5.824 5.024C5.39733 4.77867 4.912 4.656 4.368 4.656C3.83467 4.656 3.34933 4.77867 2.912 5.024C2.48533 5.26933 2.144 5.616 1.888 6.064C1.64267 6.50133 1.52 7.024 1.52 7.632C1.52 8.22933 1.64267 8.75733 1.888 9.216C2.144 9.664 2.48533 10.0107 2.912 10.256C3.34933 10.5013 3.83467 10.624 4.368 10.624Z" fill="#0F172A"/>
</svg>