<svg width="8" height="9" viewBox="0 0 8 9" fill="none" xmlns="http://www.w3.org/2000/svg">
<path d="M4.48 8.656C3.616 8.656 2.84267 8.46933 2.16 8.096C1.488 7.72267 0.96 7.21067 0.576 6.56C0.192 5.90933 0 5.16267 0 4.32C0 3.47733 0.192 2.73067 0.576 2.08C0.96 1.42933 1.488 0.922667 2.16 0.56C2.84267 0.186667 3.616 0 4.48 0C5.248 0 5.93067 0.154667 6.528 0.464C7.136 0.762667 7.60533 1.21067 7.936 1.808L6.768 2.56C6.49067 2.144 6.14933 1.84 5.744 1.648C5.34933 1.44533 4.92267 1.344 4.464 1.344C3.90933 1.344 3.41333 1.46667 2.976 1.712C2.53867 1.95733 2.192 2.304 1.936 2.752C1.68 3.18933 1.552 3.712 1.552 4.32C1.552 4.928 1.68 5.456 1.936 5.904C2.192 6.352 2.53867 6.69867 2.976 6.944C3.41333 7.18933 3.90933 7.312 4.464 7.312C4.92267 7.312 5.34933 7.216 5.744 7.024C6.14933 6.82133 6.49067 6.512 6.768 6.096L7.936 6.832C7.60533 7.41867 7.136 7.872 6.528 8.192C5.93067 8.50133 5.248 8.656 4.48 8.656Z" fill="#0F172A"/>
</svg>