<svg width="9" height="12" viewBox="0 0 9 12" fill="none" xmlns="http://www.w3.org/2000/svg">
<path d="M4.496 11.76C3.71733 11.76 2.96 11.648 2.224 11.424C1.49867 11.2107 0.906667 10.9013 0.448 10.496L1.184 9.312C1.57867 9.65333 2.064 9.92 2.64 10.112C3.216 10.3147 3.81867 10.416 4.448 10.416C5.45067 10.416 6.18667 10.1813 6.656 9.712C7.12533 9.24267 7.36 8.528 7.36 7.568V5.776L7.52 4.096L7.44 2.4V0.0799999H8.896V7.408C8.896 8.90133 8.52267 10 7.776 10.704C7.02933 11.408 5.936 11.76 4.496 11.76ZM4.304 8.208C3.48267 8.208 2.74667 8.03733 2.096 7.696C1.456 7.344 0.944 6.85867 0.56 6.24C0.186667 5.62133 0 4.90667 0 4.096C0 3.27467 0.186667 2.56 0.56 1.952C0.944 1.33333 1.456 0.853333 2.096 0.512C2.74667 0.170667 3.48267 0 4.304 0C5.02933 0 5.69067 0.149333 6.288 0.448C6.88533 0.736 7.36 1.184 7.712 1.792C8.07467 2.4 8.256 3.168 8.256 4.096C8.256 5.01333 8.07467 5.776 7.712 6.384C7.36 6.992 6.88533 7.45067 6.288 7.76C5.69067 8.05867 5.02933 8.208 4.304 8.208ZM4.48 6.864C5.04533 6.864 5.54667 6.74667 5.984 6.512C6.42133 6.27733 6.76267 5.952 7.008 5.536C7.264 5.12 7.392 4.64 7.392 4.096C7.392 3.552 7.264 3.072 7.008 2.656C6.76267 2.24 6.42133 1.92 5.984 1.696C5.54667 1.46133 5.04533 1.344 4.48 1.344C3.91467 1.344 3.408 1.46133 2.96 1.696C2.52267 1.92 2.176 2.24 1.92 2.656C1.67467 3.072 1.552 3.552 1.552 4.096C1.552 4.64 1.67467 5.12 1.92 5.536C2.176 5.952 2.52267 6.27733 2.96 6.512C3.408 6.74667 3.91467 6.864 4.48 6.864Z" fill="#0F172A"/>
</svg>