<svg width="9" height="12" viewBox="0 0 9 12" fill="none" xmlns="http://www.w3.org/2000/svg">
<path d="M4.528 3.312C5.22133 3.312 5.82933 3.44533 6.352 3.712C6.88533 3.97867 7.30133 4.384 7.6 4.928C7.89867 5.472 8.048 6.16 8.048 6.992V11.872H6.512V7.168C6.512 6.34667 6.30933 5.728 5.904 5.312C5.50933 4.896 4.94933 4.688 4.224 4.688C3.68 4.688 3.20533 4.79467 2.8 5.008C2.39467 5.22133 2.08 5.536 1.856 5.952C1.64267 6.368 1.536 6.88533 1.536 7.504V11.872H0V0H1.536V5.68L1.232 5.072C1.50933 4.51733 1.936 4.08533 2.512 3.776C3.088 3.46667 3.76 3.312 4.528 3.312Z" fill="#0F172A"/>
</svg>