<svg width="5" height="16" viewBox="0 0 5 16" fill="none" xmlns="http://www.w3.org/2000/svg">
<path d="M1.84 15.312C1.488 15.312 1.152 15.2693 0.832 15.184C0.501333 15.0987 0.224 14.9707 0 14.8L0.496 13.616C0.816 13.8827 1.232 14.016 1.744 14.016C2.14933 14.016 2.45867 13.888 2.672 13.632C2.896 13.3867 3.008 13.0187 3.008 12.528V3.632H4.544V12.496C4.544 13.36 4.30933 14.0427 3.84 14.544C3.38133 15.056 2.71467 15.312 1.84 15.312ZM3.776 2C3.47733 2 3.22667 1.904 3.024 1.712C2.832 1.52 2.736 1.28533 2.736 1.008C2.736 0.72 2.832 0.48 3.024 0.288C3.22667 0.096 3.47733 0 3.776 0C4.07467 0 4.32 0.096 4.512 0.288C4.71467 0.469333 4.816 0.698666 4.816 0.976C4.816 1.264 4.72 1.50933 4.528 1.712C4.336 1.904 4.08533 2 3.776 2Z" fill="#0F172A"/>
</svg>