<svg width="15" height="9" viewBox="0 0 15 9" fill="none" xmlns="http://www.w3.org/2000/svg">
<path d="M10.608 0C11.2907 0 11.8933 0.133333 12.416 0.4C12.9387 0.666667 13.344 1.072 13.632 1.616C13.9307 2.16 14.08 2.848 14.08 3.68V8.56H12.544V3.856C12.544 3.03467 12.352 2.416 11.968 2C11.584 1.584 11.0453 1.376 10.352 1.376C9.84 1.376 9.392 1.48267 9.008 1.696C8.624 1.90933 8.32533 2.224 8.112 2.64C7.90933 3.056 7.808 3.57333 7.808 4.192V8.56H6.272V3.856C6.272 3.03467 6.08 2.416 5.696 2C5.32267 1.584 4.784 1.376 4.08 1.376C3.57867 1.376 3.136 1.48267 2.752 1.696C2.368 1.90933 2.06933 2.224 1.856 2.64C1.64267 3.056 1.536 3.57333 1.536 4.192V8.56H0V0.0799999H1.472V2.336L1.232 1.76C1.49867 1.20533 1.90933 0.773333 2.464 0.464C3.01867 0.154667 3.664 0 4.4 0C5.21067 0 5.90933 0.202667 6.496 0.608001C7.08267 1.00267 7.46667 1.60533 7.648 2.416L7.024 2.16C7.28 1.50933 7.728 0.986667 8.368 0.592C9.008 0.197333 9.75467 0 10.608 0Z" fill="#0F172A"/>
</svg>