<svg width="9" height="9" viewBox="0 0 9 9" fill="none" xmlns="http://www.w3.org/2000/svg">
<path d="M4.528 0C5.22133 0 5.82933 0.133333 6.352 0.4C6.88533 0.666667 7.30133 1.072 7.6 1.616C7.89867 2.16 8.048 2.848 8.048 3.68V8.56H6.512V3.856C6.512 3.03467 6.30933 2.416 5.904 2C5.50933 1.584 4.94933 1.376 4.224 1.376C3.68 1.376 3.20533 1.48267 2.8 1.696C2.39467 1.90933 2.08 2.224 1.856 2.64C1.64267 3.056 1.536 3.57333 1.536 4.192V8.56H0V0.0799999H1.472V2.368L1.232 1.76C1.50933 1.20533 1.936 0.773333 2.512 0.464C3.088 0.154667 3.76 0 4.528 0Z" fill="#0F172A"/>
</svg>