<svg width="9" height="12" viewBox="0 0 9 12" fill="none" xmlns="http://www.w3.org/2000/svg">
<path d="M4.496 8.656C3.792 8.656 3.14667 8.496 2.56 8.176C1.984 7.84533 1.52 7.36 1.168 6.72C0.826667 6.08 0.656 5.28 0.656 4.32C0.656 3.36 0.821333 2.56 1.152 1.92C1.49333 1.28 1.952 0.8 2.528 0.48C3.11467 0.16 3.77067 0 4.496 0C5.328 0 6.064 0.181333 6.704 0.544C7.344 0.906667 7.85067 1.41333 8.224 2.064C8.59733 2.704 8.784 3.456 8.784 4.32C8.784 5.184 8.59733 5.94133 8.224 6.592C7.85067 7.24267 7.344 7.74933 6.704 8.112C6.064 8.47467 5.328 8.656 4.496 8.656ZM0 11.664V0.0799999H1.472V2.368L1.376 4.336L1.536 6.304V11.664H0ZM4.368 7.312C4.912 7.312 5.39733 7.18933 5.824 6.944C6.26133 6.69867 6.60267 6.352 6.848 5.904C7.104 5.44533 7.232 4.91733 7.232 4.32C7.232 3.712 7.104 3.18933 6.848 2.752C6.60267 2.304 6.26133 1.95733 5.824 1.712C5.39733 1.46667 4.912 1.344 4.368 1.344C3.83467 1.344 3.34933 1.46667 2.912 1.712C2.48533 1.95733 2.144 2.304 1.888 2.752C1.64267 3.18933 1.52 3.712 1.52 4.32C1.52 4.91733 1.64267 5.44533 1.888 5.904C2.144 6.352 2.48533 6.69867 2.912 6.944C3.34933 7.18933 3.83467 7.312 4.368 7.312Z" fill="#0F172A"/>
</svg>