<svg width="9" height="12" viewBox="0 0 9 12" fill="none" xmlns="http://www.w3.org/2000/svg">
<path d="M4.288 8.656C3.46667 8.656 2.73067 8.47467 2.08 8.112C1.44 7.74933 0.933333 7.24267 0.56 6.592C0.186667 5.94133 0 5.184 0 4.32C0 3.456 0.186667 2.704 0.56 2.064C0.933333 1.41333 1.44 0.906667 2.08 0.544C2.73067 0.181333 3.46667 0 4.288 0C5.024 0 5.68 0.16 6.256 0.48C6.832 0.8 7.28533 1.28 7.616 1.92C7.95733 2.56 8.128 3.36 8.128 4.32C8.128 5.28 7.952 6.08 7.6 6.72C7.25867 7.36 6.8 7.84533 6.224 8.176C5.648 8.496 5.00267 8.656 4.288 8.656ZM4.416 7.312C4.94933 7.312 5.42933 7.18933 5.856 6.944C6.29333 6.69867 6.63467 6.352 6.88 5.904C7.136 5.44533 7.264 4.91733 7.264 4.32C7.264 3.712 7.136 3.18933 6.88 2.752C6.63467 2.304 6.29333 1.95733 5.856 1.712C5.42933 1.46667 4.94933 1.344 4.416 1.344C3.872 1.344 3.38667 1.46667 2.96 1.712C2.53333 1.95733 2.192 2.304 1.936 2.752C1.68 3.18933 1.552 3.712 1.552 4.32C1.552 4.91733 1.68 5.44533 1.936 5.904C2.192 6.352 2.53333 6.69867 2.96 6.944C3.38667 7.18933 3.872 7.312 4.416 7.312ZM7.248 11.664V6.304L7.408 4.336L7.312 2.368V0.0799999H8.784V11.664H7.248Z" fill="#0F172A"/>
</svg>