<svg width="8" height="9" viewBox="0 0 8 9" fill="none" xmlns="http://www.w3.org/2000/svg">
<path d="M3.504 8.656C2.8 8.656 2.128 8.56 1.488 8.368C0.858667 8.176 0.362667 7.94133 0 7.664L0.64 6.448C1.00267 6.69333 1.45067 6.90133 1.984 7.072C2.51733 7.24267 3.06133 7.328 3.616 7.328C4.33067 7.328 4.84267 7.22667 5.152 7.024C5.472 6.82133 5.632 6.53867 5.632 6.176C5.632 5.90933 5.536 5.70133 5.344 5.552C5.152 5.40267 4.896 5.29067 4.576 5.216C4.26667 5.14133 3.92 5.07733 3.536 5.024C3.152 4.96 2.768 4.88533 2.384 4.8C2 4.704 1.648 4.576 1.328 4.416C1.008 4.24533 0.752 4.016 0.56 3.728C0.368 3.42933 0.272 3.03467 0.272 2.544C0.272 2.032 0.416 1.584 0.704 1.2C0.992 0.816 1.39733 0.522667 1.92 0.32C2.45333 0.106667 3.08267 0 3.808 0C4.36267 0 4.92267 0.0693334 5.488 0.208C6.064 0.336 6.53333 0.522667 6.896 0.768001L6.24 1.984C5.856 1.728 5.456 1.552 5.04 1.456C4.624 1.36 4.208 1.312 3.792 1.312C3.12 1.312 2.61867 1.424 2.288 1.648C1.95733 1.86133 1.792 2.13867 1.792 2.48C1.792 2.768 1.888 2.992 2.08 3.152C2.28267 3.30133 2.53867 3.41867 2.848 3.504C3.168 3.58933 3.52 3.664 3.904 3.728C4.288 3.78133 4.672 3.856 5.056 3.952C5.44 4.03733 5.78667 4.16 6.096 4.32C6.416 4.48 6.672 4.704 6.864 4.992C7.06667 5.28 7.168 5.664 7.168 6.144C7.168 6.656 7.01867 7.09867 6.72 7.472C6.42133 7.84533 6 8.13867 5.456 8.352C4.912 8.55467 4.26133 8.656 3.504 8.656Z" fill="#0F172A"/>
</svg>