<svg width="8" height="9" viewBox="0 0 8 9" fill="none" xmlns="http://www.w3.org/2000/svg">
<path d="M3.648 8.576C2.92267 8.576 2.28267 8.44267 1.728 8.176C1.184 7.90933 0.757333 7.504 0.448 6.96C0.149333 6.40533 0 5.712 0 4.88V0H1.536V4.704C1.536 5.536 1.73333 6.16 2.128 6.576C2.53333 6.992 3.09867 7.2 3.824 7.2C4.35733 7.2 4.82133 7.09333 5.216 6.88C5.61067 6.656 5.91467 6.336 6.128 5.92C6.34133 5.49333 6.448 4.98133 6.448 4.384V0H7.984V8.48H6.528V6.192L6.768 6.8C6.49067 7.36533 6.07467 7.80267 5.52 8.112C4.96533 8.42133 4.34133 8.576 3.648 8.576Z" fill="#0F172A"/>
</svg>