<svg width="22" height="19" viewBox="0 0 22 19" fill="none" xmlns="http://www.w3.org/2000/svg">
<path d="M11.3923 0.500171L20.9186 17.0002C21.1948 17.4785 21.0309 18.0901 20.5526 18.3662C20.4006 18.454 20.2281 18.5002 20.0526 18.5002H1C0.44772 18.5002 0 18.0525 0 17.5002C0 17.3246 0.04621 17.1522 0.13398 17.0002L9.66027 0.500171C9.93637 0.0218709 10.548 -0.141999 11.0263 0.134141C11.1783 0.221911 11.3046 0.348151 11.3923 0.500171ZM2.73205 16.5002H18.3205L10.5263 3.00017L2.73205 16.5002ZM9.52627 13.5002H11.5263V15.5002H9.52627V13.5002ZM9.52627 6.50017H11.5263V11.5002H9.52627V6.50017Z" fill="black"/>
</svg>