<svg width="10" height="12" viewBox="0 0 10 12" fill="none" xmlns="http://www.w3.org/2000/svg">
<path d="M2.176 11.68C1.77067 11.68 1.376 11.6107 0.992 11.472C0.608 11.344 0.277333 11.152 0 10.896L0.656 9.744C0.869333 9.94667 1.104 10.1013 1.36 10.208C1.616 10.3147 1.888 10.368 2.176 10.368C2.54933 10.368 2.85867 10.272 3.104 10.08C3.34933 9.888 3.57867 9.54667 3.792 9.056L4.32 7.888L4.48 7.696L7.808 0H9.312L5.2 9.328C4.95467 9.92533 4.67733 10.3947 4.368 10.736C4.06933 11.0773 3.73867 11.3173 3.376 11.456C3.01333 11.6053 2.61333 11.68 2.176 11.68ZM4.192 8.752L0.32 0H1.92L5.216 7.552L4.192 8.752Z" fill="#0F172A"/>
</svg>