<svg width="8" height="9" viewBox="0 0 8 9" fill="none" xmlns="http://www.w3.org/2000/svg">
<path d="M3.504 8.64C2.84 8.64 2.24 8.472 1.704 8.136C1.176 7.8 0.76 7.312 0.456 6.672C0.152 6.024 0 5.24 0 4.32C0 3.4 0.152 2.62 0.456 1.98C0.76 1.332 1.176 0.84 1.704 0.504C2.24 0.168 2.84 0 3.504 0C4.176 0 4.776 0.168 5.304 0.504C5.832 0.84 6.248 1.332 6.552 1.98C6.864 2.62 7.02 3.4 7.02 4.32C7.02 5.24 6.864 6.024 6.552 6.672C6.248 7.312 5.832 7.8 5.304 8.136C4.776 8.472 4.176 8.64 3.504 8.64ZM3.504 7.284C3.896 7.284 4.236 7.18 4.524 6.972C4.812 6.756 5.036 6.428 5.196 5.988C5.364 5.548 5.448 4.992 5.448 4.32C5.448 3.64 5.364 3.084 5.196 2.652C5.036 2.212 4.812 1.888 4.524 1.68C4.236 1.464 3.896 1.356 3.504 1.356C3.128 1.356 2.792 1.464 2.496 1.68C2.208 1.888 1.98 2.212 1.812 2.652C1.652 3.084 1.572 3.64 1.572 4.32C1.572 4.992 1.652 5.548 1.812 5.988C1.98 6.428 2.208 6.756 2.496 6.972C2.792 7.18 3.128 7.284 3.504 7.284Z" fill="#0F172A"/>
</svg>