<svg width="7" height="9" viewBox="0 0 7 9" fill="none" xmlns="http://www.w3.org/2000/svg">
<path d="M3.636 8.64C2.876 8.64 2.224 8.48 1.68 8.16C1.136 7.832 0.72 7.36 0.432 6.744C0.144 6.128 0 5.368 0 4.464C0 3.504 0.172 2.692 0.516 2.028C0.868 1.364 1.352 0.86 1.968 0.516C2.592 0.172 3.308 0 4.116 0C4.54 0 4.944 0.0440001 5.328 0.132C5.72 0.22 6.052 0.356 6.324 0.54L5.748 1.716C5.516 1.564 5.264 1.46 4.992 1.404C4.728 1.34 4.448 1.308 4.152 1.308C3.36 1.308 2.732 1.552 2.268 2.04C1.804 2.528 1.572 3.248 1.572 4.2C1.572 4.352 1.576 4.532 1.584 4.74C1.592 4.94 1.62 5.144 1.668 5.352L1.188 4.824C1.332 4.496 1.528 4.224 1.776 4.008C2.032 3.784 2.332 3.616 2.676 3.504C3.028 3.392 3.408 3.336 3.816 3.336C4.368 3.336 4.86 3.444 5.292 3.66C5.724 3.868 6.068 4.168 6.324 4.56C6.58 4.944 6.708 5.396 6.708 5.916C6.708 6.468 6.572 6.948 6.3 7.356C6.028 7.764 5.66 8.08 5.196 8.304C4.732 8.528 4.212 8.64 3.636 8.64ZM3.552 7.416C3.872 7.416 4.156 7.36 4.404 7.248C4.652 7.128 4.844 6.96 4.98 6.744C5.124 6.528 5.196 6.276 5.196 5.988C5.196 5.548 5.044 5.2 4.74 4.944C4.436 4.688 4.028 4.56 3.516 4.56C3.18 4.56 2.884 4.624 2.628 4.752C2.38 4.872 2.18 5.04 2.028 5.256C1.884 5.472 1.812 5.72 1.812 6C1.812 6.256 1.88 6.492 2.016 6.708C2.152 6.924 2.348 7.096 2.604 7.224C2.868 7.352 3.184 7.416 3.552 7.416Z" fill="#0F172A"/>
</svg>