<svg width="7" height="9" viewBox="0 0 7 9" fill="none" xmlns="http://www.w3.org/2000/svg">
<path d="M3.072 0C3.84 0 4.492 0.164001 5.028 0.492001C5.572 0.812001 5.988 1.28 6.276 1.896C6.564 2.512 6.708 3.272 6.708 4.176C6.708 5.136 6.532 5.948 6.18 6.612C5.836 7.276 5.356 7.78 4.74 8.124C4.124 8.468 3.408 8.64 2.592 8.64C2.168 8.64 1.764 8.596 1.38 8.508C0.996 8.42 0.664 8.284 0.384 8.1L0.96 6.924C1.192 7.076 1.444 7.184 1.716 7.248C1.988 7.304 2.268 7.332 2.556 7.332C3.348 7.332 3.976 7.088 4.44 6.6C4.904 6.112 5.136 5.392 5.136 4.44C5.136 4.288 5.132 4.112 5.124 3.912C5.116 3.704 5.088 3.496 5.04 3.288L5.52 3.816C5.384 4.144 5.188 4.42 4.932 4.644C4.676 4.86 4.376 5.024 4.032 5.136C3.688 5.248 3.308 5.304 2.892 5.304C2.348 5.304 1.856 5.2 1.416 4.992C0.984 4.776 0.64 4.476 0.384 4.092C0.128 3.7 0 3.244 0 2.724C0 2.164 0.136 1.684 0.408 1.284C0.68 0.876 1.048 0.56 1.512 0.336C1.984 0.112 2.504 0 3.072 0ZM3.156 1.224C2.836 1.224 2.552 1.284 2.304 1.404C2.056 1.516 1.86 1.68 1.716 1.896C1.58 2.104 1.512 2.356 1.512 2.652C1.512 3.092 1.664 3.44 1.968 3.696C2.272 3.952 2.68 4.08 3.192 4.08C3.528 4.08 3.824 4.02 4.08 3.9C4.336 3.772 4.536 3.6 4.68 3.384C4.824 3.16 4.896 2.912 4.896 2.64C4.896 2.376 4.828 2.14 4.692 1.932C4.556 1.716 4.36 1.544 4.104 1.416C3.848 1.288 3.532 1.224 3.156 1.224Z" fill="#0F172A"/>
</svg>