<svg width="8" height="10" viewBox="0 0 8 10" fill="none" xmlns="http://www.w3.org/2000/svg">
<path d="M5.92 9.232V7.44L5.84 7.104V4.048C5.84 3.39733 5.648 2.896 5.264 2.544C4.89067 2.18133 4.32533 2 3.568 2C3.06667 2 2.576 2.08533 2.096 2.256C1.616 2.416 1.21067 2.63466 0.88 2.912L0.24 1.76C0.677333 1.408 1.2 1.14133 1.808 0.959997C2.42667 0.767997 3.072 0.671997 3.744 0.671997C4.90667 0.671997 5.80267 0.954664 6.432 1.52C7.06133 2.08533 7.376 2.94933 7.376 4.112V9.232H5.92ZM3.136 9.328C2.50667 9.328 1.952 9.22133 1.472 9.008C1.00267 8.79466 0.64 8.50133 0.384 8.128C0.128 7.744 0 7.312 0 6.832C0 6.37333 0.106667 5.95733 0.32 5.584C0.544 5.21066 0.901333 4.912 1.392 4.688C1.89333 4.464 2.56533 4.352 3.408 4.352H6.096V5.456H3.472C2.704 5.456 2.18667 5.584 1.92 5.84C1.65333 6.096 1.52 6.40533 1.52 6.768C1.52 7.184 1.68533 7.52 2.016 7.776C2.34667 8.02133 2.80533 8.144 3.392 8.144C3.968 8.144 4.46933 8.016 4.896 7.76C5.33333 7.504 5.648 7.13066 5.84 6.64L6.144 7.696C5.94133 8.19733 5.584 8.59733 5.072 8.896C4.56 9.184 3.91467 9.328 3.136 9.328Z" fill="currentColor"/>
</svg>
