<svg width="22" height="20" viewBox="0 0 22 20" fill="none" xmlns="http://www.w3.org/2000/svg">
<path d="M9 4C8.45 4 7.97917 3.80417 7.5875 3.4125C7.19583 3.02083 7 2.55 7 2C7 1.45 7.19583 0.979167 7.5875 0.5875C7.97917 0.195833 8.45 0 9 0C9.55 0 10.0208 0.195833 10.4125 0.5875C10.8042 0.979167 11 1.45 11 2C11 2.55 10.8042 3.02083 10.4125 3.4125C10.0208 3.80417 9.55 4 9 4ZM15.5 16C16.2 16 16.7917 15.7583 17.275 15.275C17.7583 14.7917 18 14.2 18 13.5C18 12.8 17.7583 12.2083 17.275 11.725C16.7917 11.2417 16.2 11 15.5 11C14.8 11 14.2083 11.2417 13.725 11.725C13.2417 12.2083 13 12.8 13 13.5C13 14.2 13.2417 14.7917 13.725 15.275C14.2083 15.7583 14.8 16 15.5 16ZM20.6 20L17.9 17.3C17.5333 17.5333 17.15 17.7083 16.75 17.825C16.35 17.9417 15.9333 18 15.5 18C14.25 18 13.1875 17.5625 12.3125 16.6875C11.4375 15.8125 11 14.75 11 13.5C11 12.25 11.4375 11.1875 12.3125 10.3125C13.1875 9.4375 14.25 9 15.5 9C16.75 9 17.8125 9.4375 18.6875 10.3125C19.5625 11.1875 20 12.25 20 13.5C20 13.9333 19.9417 14.35 19.825 14.75C19.7083 15.15 19.5333 15.5333 19.3 15.9L22 18.6L20.6 20ZM10 20V16.975C10.25 17.375 10.5458 17.7417 10.8875 18.075C11.2292 18.4083 11.6 18.7083 12 18.975V20H10ZM6 20V7C4.98333 6.91667 3.975 6.79583 2.975 6.6375C1.975 6.47917 0.983333 6.26667 0 6L0.5 4C1.9 4.38333 3.30417 4.64583 4.7125 4.7875C6.12083 4.92917 7.55 5 9 5C10.45 5 11.8792 4.92917 13.2875 4.7875C14.6958 4.64583 16.1 4.38333 17.5 4L18 6C17.0167 6.26667 16.025 6.47917 15.025 6.6375C14.025 6.79583 13.0167 6.91667 12 7V8.025C11.1 8.60833 10.375 9.37917 9.825 10.3375C9.275 11.2958 9 12.35 9 13.5V13.75C9 13.8333 9.00833 13.9167 9.025 14H8V20H6Z" fill="#1C1B1F"/>
</svg>