<svg width="20" height="15" viewBox="0 0 20 15" fill="none" xmlns="http://www.w3.org/2000/svg">
<path d="M2.93 0C1.12 1.81 0 4.31 0 7.07C0 9.83 1.12 12.33 2.93 14.14L4.34 12.73C2.89 11.29 2 9.29 2 7.07C2 4.86 2.89 2.85 4.34 1.41L2.93 0ZM17.07 0L15.66 1.41C17.11 2.85 18 4.86 18 7.07C18 9.29 17.11 11.29 15.66 12.73L17.07 14.14C18.88 12.33 20 9.83 20 7.07C20 4.31 18.88 1.81 17.07 0ZM5.76 2.83C4.67 3.92 4 5.42 4 7.07C4 8.72 4.67 10.22 5.76 11.31L7.17 9.9C6.45 9.18 6 8.18 6 7.07C6 5.96 6.45 4.96 7.17 4.24L5.76 2.83ZM14.24 2.83L12.83 4.24C13.55 4.96 14 5.96 14 7.07C14 8.18 13.55 9.18 12.83 9.9L14.24 11.31C15.33 10.22 16 8.72 16 7.07C16 5.42 15.33 3.92 14.24 2.83ZM10 5.07C9.46957 5.07 8.96086 5.28071 8.58579 5.65579C8.21071 6.03086 8 6.53957 8 7.07C8 7.60043 8.21071 8.10914 8.58579 8.48421C8.96086 8.85929 9.46957 9.07 10 9.07C10.5304 9.07 11.0391 8.85929 11.4142 8.48421C11.7893 8.10914 12 7.60043 12 7.07C12 6.53957 11.7893 6.03086 11.4142 5.65579C11.0391 5.28071 10.5304 5.07 10 5.07Z" fill="black"/>
</svg>