<svg width="14" height="20" viewBox="0 0 14 20" fill="none" xmlns="http://www.w3.org/2000/svg">
<path d="M7 4C8.10457 4 9 3.10457 9 2C9 0.89543 8.10457 0 7 0C5.89543 0 5 0.89543 5 2C5 3.10457 5.89543 4 7 4Z" fill="#323232"/>
<path d="M14 11V9C12.46 9.02 10.91 8.25 9.93 7.17L8.64 5.74C8.47 5.55 8.26 5.4 8.03 5.29C8.02 5.29 8.02 5.28 8.01 5.28H8C7.65 5.08 7.25 4.98 6.81 5.02C5.76 5.11 5 6.04 5 7.09V13C5 14.1 5.9 15 7 15H12V20H14V14.5C14 13.4 13.1 12.5 12 12.5H9V9.05C10.29 10.12 12.25 10.99 14 11ZM7.83 16C7.42 17.16 6.31 18 5 18C3.34 18 2 16.66 2 15C2 13.69 2.84 12.59 4 12.17V10.1C1.72 10.56 0 12.58 0 15C0 17.76 2.24 20 5 20C7.42 20 9.44 18.28 9.9 16H7.83Z" fill="#323232"/>
</svg>