<svg width="21" height="17" viewBox="0 0 21 17" fill="none" xmlns="http://www.w3.org/2000/svg">
<path d="M18.8542 8.5L20.3125 9.91L13.5104 16.5L9.89583 13L11.3542 11.59L13.5104 13.67L18.8542 8.5ZM8.33333 0C9.4384 0 10.4982 0.421427 11.2796 1.17157C12.061 1.92172 12.5 2.93913 12.5 4C12.5 5.06087 12.061 6.07828 11.2796 6.82843C10.4982 7.57857 9.4384 8 8.33333 8C7.22826 8 6.16846 7.57857 5.38705 6.82843C4.60565 6.07828 4.16667 5.06087 4.16667 4C4.16667 2.93913 4.60565 1.92172 5.38705 1.17157C6.16846 0.421427 7.22826 0 8.33333 0ZM8.33333 2C7.7808 2 7.2509 2.21071 6.86019 2.58579C6.46949 2.96086 6.25 3.46957 6.25 4C6.25 4.53043 6.46949 5.03914 6.86019 5.41421C7.2509 5.78929 7.7808 6 8.33333 6C8.88587 6 9.41577 5.78929 9.80647 5.41421C10.1972 5.03914 10.4167 4.53043 10.4167 4C10.4167 3.46957 10.1972 2.96086 9.80647 2.58579C9.41577 2.21071 8.88587 2 8.33333 2ZM8.33333 9C9.04167 9 9.89583 9.09 10.8437 9.26L9.10417 10.93L8.33333 10.9C5.23958 10.9 1.97917 12.36 1.97917 13V14.1H8.4375L10.4167 16H0V13C0 10.34 5.55208 9 8.33333 9Z" fill="black"/>
</svg>