<svg width="16" height="20" viewBox="0 0 16 20" fill="none" xmlns="http://www.w3.org/2000/svg">
<path d="M4 4C4 1.79 5.79 0 8 0C10.21 0 12 1.79 12 4C12 6.21 10.21 8 8 8C5.79 8 4 6.21 4 4ZM13 20H14C15.1 20 16 19.1 16 18V13.22C16 12.1 15.39 11.07 14.39 10.56C13.96 10.34 13.5 10.13 13 9.94V20ZM8.34 15L11 9.33C10.07 9.12 9.07 9 8 9C5.47 9 3.29 9.7 1.61 10.56C0.61 11.07 0 12.1 0 13.22V20H2.34C2.12 19.55 2 19.04 2 18.5C2 16.57 3.57 15 5.5 15H8.34ZM6 20L7.41 17H5.5C4.67 17 4 17.67 4 18.5C4 19.33 4.67 20 5.5 20H6Z" fill="black"/>
</svg>