<svg width="17" height="17" viewBox="0 0 17 17" fill="none" xmlns="http://www.w3.org/2000/svg">
<path d="M8.40649 2C8.40649 0.895431 7.51106 0 6.40649 0C5.30192 0 4.40649 0.895431 4.40649 2C4.40649 3.10457 5.30192 4 6.40649 4C7.51106 4 8.40649 3.10457 8.40649 2Z" fill="currentColor"/>
<path d="M15.6565 2.75C16.0707 2.75 16.4065 2.41421 16.4065 2C16.4065 1.58579 16.0707 1.25 15.6565 1.25L10.1565 1.25C9.74228 1.25 9.40649 1.58579 9.40649 2C9.40649 2.41421 9.74228 2.75 10.1565 2.75L15.6565 2.75Z" fill="currentColor"/>
<path d="M3.40649 2C3.40649 2.41421 3.07071 2.75 2.65649 2.75H1.15649C0.742281 2.75 0.406494 2.41421 0.406494 2C0.406494 1.58579 0.742281 1.25 1.15649 1.25L2.65649 1.25C3.07071 1.25 3.40649 1.58579 3.40649 2Z" fill="currentColor"/>
<path d="M2.65649 15.25C3.07071 15.25 3.40649 14.9142 3.40649 14.5C3.40649 14.0858 3.07071 13.75 2.65649 13.75H1.15649C0.742281 13.75 0.406494 14.0858 0.406494 14.5C0.406494 14.9142 0.742281 15.25 1.15649 15.25H2.65649Z" fill="currentColor"/>
<path d="M15.6565 15.25C16.0707 15.25 16.4065 14.9142 16.4065 14.5C16.4065 14.0858 16.0707 13.75 15.6565 13.75H10.1565C9.74228 13.75 9.40649 14.0858 9.40649 14.5C9.40649 14.9142 9.74228 15.25 10.1565 15.25H15.6565Z" fill="currentColor"/>
<path d="M7.40649 8.25C7.40649 8.66421 7.07071 9 6.65649 9H1.15649C0.74228 9 0.406494 8.66421 0.406494 8.25C0.406494 7.83579 0.74228 7.5 1.15649 7.5L6.65649 7.5C7.07071 7.5 7.40649 7.83579 7.40649 8.25Z" fill="currentColor"/>
<path d="M15.6565 9C16.0707 9 16.4065 8.66421 16.4065 8.25C16.4065 7.83579 16.0707 7.5 15.6565 7.5H14.1565C13.7423 7.5 13.4065 7.83579 13.4065 8.25C13.4065 8.66421 13.7423 9 14.1565 9H15.6565Z" fill="currentColor"/>
<path d="M12.4065 8.25C12.4065 7.14543 11.5111 6.25 10.4065 6.25C9.30192 6.25 8.40649 7.14543 8.40649 8.25C8.40649 9.35457 9.30192 10.25 10.4065 10.25C11.5111 10.25 12.4065 9.35457 12.4065 8.25Z" fill="currentColor"/>
<path d="M8.40649 14.5C8.40649 13.3954 7.51106 12.5 6.40649 12.5C5.30192 12.5 4.40649 13.3954 4.40649 14.5C4.40649 15.6046 5.30192 16.5 6.40649 16.5C7.51106 16.5 8.40649 15.6046 8.40649 14.5Z" fill="currentColor"/>
</svg>
