<svg width="16" height="17" viewBox="0 0 16 17" fill="currentColor" xmlns="http://www.w3.org/2000/svg">
<path d="M8 2C8 0.895431 7.10457 0 6 0C4.89543 0 4 0.895431 4 2C4 3.10457 4.89543 4 6 4C7.10457 4 8 3.10457 8 2Z" />
<path d="M15.25 2.75C15.6642 2.75 16 2.41421 16 2C16 1.58579 15.6642 1.25 15.25 1.25L9.75 1.25C9.33579 1.25 9 1.58579 9 2C9 2.41421 9.33579 2.75 9.75 2.75L15.25 2.75Z" />
<path d="M3 2C3 2.41421 2.66421 2.75 2.25 2.75H0.75C0.335786 2.75 0 2.41421 0 2C0 1.58579 0.335786 1.25 0.75 1.25L2.25 1.25C2.66421 1.25 3 1.58579 3 2Z" />
<path d="M2.25 15.25C2.66421 15.25 3 14.9142 3 14.5C3 14.0858 2.66421 13.75 2.25 13.75H0.75C0.335786 13.75 0 14.0858 0 14.5C0 14.9142 0.335786 15.25 0.75 15.25H2.25Z" />
<path d="M15.25 15.25C15.6642 15.25 16 14.9142 16 14.5C16 14.0858 15.6642 13.75 15.25 13.75H9.75C9.33579 13.75 9 14.0858 9 14.5C9 14.9142 9.33579 15.25 9.75 15.25H15.25Z" />
<path d="M7 8.25C7 8.66421 6.66421 9 6.25 9H0.75C0.335786 9 0 8.66421 0 8.25C0 7.83579 0.335786 7.5 0.75 7.5L6.25 7.5C6.66421 7.5 7 7.83579 7 8.25Z" />
<path d="M15.25 9C15.6642 9 16 8.66421 16 8.25C16 7.83579 15.6642 7.5 15.25 7.5H13.75C13.3358 7.5 13 7.83579 13 8.25C13 8.66421 13.3358 9 13.75 9H15.25Z" />
<path d="M12 8.25C12 7.14543 11.1046 6.25 10 6.25C8.89543 6.25 8 7.14543 8 8.25C8 9.35457 8.89543 10.25 10 10.25C11.1046 10.25 12 9.35457 12 8.25Z" />
<path d="M8 14.5C8 13.3954 7.10457 12.5 6 12.5C4.89543 12.5 4 13.3954 4 14.5C4 15.6046 4.89543 16.5 6 16.5C7.10457 16.5 8 15.6046 8 14.5Z" />
</svg>
