<svg width="17" height="17" viewBox="0 0 17 17" fill="none" xmlns="http://www.w3.org/2000/svg">
<path d="M8.53174 2.02464C8.53174 0.920074 7.63631 0.0246429 6.53174 0.0246429C5.42717 0.0246429 4.53174 0.920074 4.53174 2.02464C4.53174 3.12921 5.42717 4.02464 6.53174 4.02464C7.63631 4.02464 8.53174 3.12921 8.53174 2.02464Z" fill="currentColor"/>
<path d="M15.7817 2.77464C16.196 2.77464 16.5317 2.43886 16.5317 2.02464C16.5317 1.61043 16.196 1.27464 15.7817 1.27464L10.2817 1.27464C9.86753 1.27464 9.53174 1.61043 9.53174 2.02464C9.53174 2.43886 9.86752 2.77464 10.2817 2.77464L15.7817 2.77464Z" fill="currentColor"/>
<path d="M3.53174 2.02464C3.53174 2.43886 3.19595 2.77464 2.78174 2.77464H1.28174C0.867525 2.77464 0.531738 2.43886 0.531738 2.02464C0.531738 1.61043 0.867525 1.27464 1.28174 1.27464L2.78174 1.27464C3.19595 1.27464 3.53174 1.61043 3.53174 2.02464Z" fill="currentColor"/>
<path d="M2.78174 15.2746C3.19595 15.2746 3.53174 14.9389 3.53174 14.5246C3.53174 14.1104 3.19595 13.7746 2.78174 13.7746H1.28174C0.867525 13.7746 0.531738 14.1104 0.531738 14.5246C0.531738 14.9389 0.867525 15.2746 1.28174 15.2746H2.78174Z" fill="currentColor"/>
<path d="M15.7817 15.2746C16.196 15.2746 16.5317 14.9389 16.5317 14.5246C16.5317 14.1104 16.196 13.7746 15.7817 13.7746H10.2817C9.86753 13.7746 9.53174 14.1104 9.53174 14.5246C9.53174 14.9389 9.86752 15.2746 10.2817 15.2746H15.7817Z" fill="currentColor"/>
<path d="M7.53174 8.27464C7.53174 8.68886 7.19595 9.02464 6.78174 9.02464H1.28174C0.867525 9.02464 0.531738 8.68886 0.531738 8.27464C0.531738 7.86043 0.867525 7.52464 1.28174 7.52464L6.78174 7.52464C7.19595 7.52464 7.53174 7.86043 7.53174 8.27464Z" fill="currentColor"/>
<path d="M15.7817 9.02464C16.196 9.02464 16.5317 8.68886 16.5317 8.27464C16.5317 7.86043 16.196 7.52464 15.7817 7.52464H14.2817C13.8675 7.52464 13.5317 7.86043 13.5317 8.27464C13.5317 8.68886 13.8675 9.02464 14.2817 9.02464H15.7817Z" fill="currentColor"/>
<path d="M12.5317 8.27464C12.5317 7.17007 11.6363 6.27464 10.5317 6.27464C9.42717 6.27464 8.53174 7.17007 8.53174 8.27464C8.53174 9.37921 9.42717 10.2746 10.5317 10.2746C11.6363 10.2746 12.5317 9.37921 12.5317 8.27464Z" fill="currentColor"/>
<path d="M8.53174 14.5246C8.53174 13.4201 7.63631 12.5246 6.53174 12.5246C5.42717 12.5246 4.53174 13.4201 4.53174 14.5246C4.53174 15.6292 5.42717 16.5246 6.53174 16.5246C7.63631 16.5246 8.53174 15.6292 8.53174 14.5246Z" fill="currentColor"/>
</svg>
