<svg width="22" height="13" viewBox="0 0 22 13" fill="none" xmlns="http://www.w3.org/2000/svg">
<path d="M16.6 4.10278L18.44 0.922777C18.6 0.612777 18.48 0.232777 18.18 0.0727767C17.89 -0.0772233 17.53 0.012777 17.35 0.292777L15.47 3.53278C12.61 2.32278 9.39 2.32278 6.53 3.53278L4.65 0.292777C4.46 0.00277701 4.07 -0.0872233 3.78 0.0927767C3.5 0.272777 3.41 0.632777 3.56 0.922777L5.4 4.10278C2.3 5.87278 0.28 9.06278 0 12.6228H22C21.72 9.06278 19.7 5.87278 16.6 4.10278ZM6 9.87278C5.31 9.87278 4.75 9.31278 4.75 8.62278C4.75 7.93278 5.31 7.37278 6 7.37278C6.69 7.37278 7.25 7.93278 7.25 8.62278C7.25 9.31278 6.69 9.87278 6 9.87278ZM16 9.87278C15.31 9.87278 14.75 9.31278 14.75 8.62278C14.75 7.93278 15.31 7.37278 16 7.37278C16.69 7.37278 17.25 7.93278 17.25 8.62278C17.25 9.31278 16.69 9.87278 16 9.87278Z" fill="#323232"/>
</svg>