<svg width="20" height="19" viewBox="0 0 20 19" fill="none" xmlns="http://www.w3.org/2000/svg">
<path d="M10 4.59C10.69 4.59 11.27 4.82 11.76 5.29C12.25 5.76 12.5 6.36 12.5 7.09C12.5 8.14 12 8.9 11 9.37V18.09H9V9.37C8 8.9 7.5 8.14 7.5 7.09C7.5 6.36 7.76 5.76 8.24 5.29C8.72 4.82 9.31 4.59 10 4.59ZM14.69 2.39C15.94 3.64 16.61 5.2 16.7 7.09C16.7 8.89 16.03 10.47 14.69 11.81L13.5 10.59C14.5 9.68 15 8.51 15 7.09C15 5.76 14.5 4.59 13.5 3.59L14.69 2.39ZM4.09 1.17C2.5 2.76 1.7 4.73 1.7 7.09C1.7 9.45 2.5 11.39 4.09 12.98L2.92 14.2C1 12.17 0 9.79 0 7.09C0 4.39 1 2.03 2.92 0L4.09 1.17ZM17.08 0C19 2.03 20 4.39 20 7.09C20 9.89 19 12.26 17.08 14.2L15.91 12.98C17.5 11.39 18.3 9.42 18.3 7.09C18.3 4.76 17.5 2.76 15.91 1.17L17.08 0ZM5.31 2.39L6.5 3.59C5.5 4.51 5 5.67 5 7.09C5 8.42 5.5 9.59 6.5 10.59L5.31 11.81C3.97 10.47 3.3 8.89 3.3 7.09C3.3 5.29 3.97 3.73 5.31 2.39Z" fill="black"/>
</svg>