<svg width="18" height="18" viewBox="0 0 18 18" fill="none" xmlns="http://www.w3.org/2000/svg">
<path d="M2 0H16C16.5304 0 17.0391 0.210714 17.4142 0.585786C17.7893 0.960859 18 1.46957 18 2V16C18 16.5304 17.7893 17.0391 17.4142 17.4142C17.0391 17.7893 16.5304 18 16 18H2C1.46957 18 0.960859 17.7893 0.585786 17.4142C0.210714 17.0391 0 16.5304 0 16V2C0 1.46957 0.210714 0.960859 0.585786 0.585786C0.960859 0.210714 1.46957 0 2 0ZM4 4V6H6V4H4ZM8 4V6H10V4H8ZM12 4V6H14V4H12ZM4 8V10H6V8H4ZM8 8V10H10V8H8ZM12 8V10H14V8H12ZM4 12V14H6V12H4ZM8 12V14H10V12H8ZM12 12V14H14V12H12Z" fill="black"/>
</svg>