<svg width="15" height="12" viewBox="0 0 15 12" fill="none" xmlns="http://www.w3.org/2000/svg">
<path fill-rule="evenodd" clip-rule="evenodd" d="M0.410644 6C0.410644 5.58579 0.746431 5.25 1.16064 5.25L11.7986 5.25L7.64081 1.29062C7.34223 1.00353 7.33292 0.528746 7.62002 0.230167C7.90711 -0.0684112 8.3819 -0.077721 8.68048 0.209374L14.1805 5.45937C14.3275 5.60078 14.4106 5.79599 14.4106 6C14.4106 6.20401 14.3275 6.39922 14.1805 6.54062L8.68048 11.7906C8.3819 12.0777 7.90711 12.0684 7.62002 11.7698C7.33292 11.4713 7.34223 10.9965 7.64081 10.7094L11.7986 6.75L1.16064 6.75C0.746431 6.75 0.410644 6.41421 0.410644 6Z" fill="currentColor"/>
</svg>
