<svg width="15" height="12" viewBox="0 0 15 12" fill="none" xmlns="http://www.w3.org/2000/svg">
<path fill-rule="evenodd" clip-rule="evenodd" d="M14.4106 6C14.4106 5.58579 14.0749 5.25 13.6606 5.25L3.02273 5.25L7.18048 1.29062C7.47906 1.00353 7.48836 0.528746 7.20127 0.230167C6.91417 -0.0684112 6.43939 -0.077721 6.14081 0.209374L0.640813 5.45937C0.493755 5.60078 0.410645 5.79599 0.410645 6C0.410645 6.20401 0.493755 6.39922 0.640813 6.54062L6.14081 11.7906C6.43939 12.0777 6.91417 12.0684 7.20127 11.7698C7.48836 11.4713 7.47905 10.9965 7.18048 10.7094L3.02273 6.75L13.6606 6.75C14.0749 6.75 14.4106 6.41421 14.4106 6Z" fill="currentColor"/>
</svg>
