<svg width="15" height="12" viewBox="0 0 15 12" fill="none" xmlns="http://www.w3.org/2000/svg">
<path fill-rule="evenodd" clip-rule="evenodd" d="M14.8748 6C14.8748 5.58579 14.539 5.25 14.1248 5.25L3.48684 5.25L7.64459 1.29062C7.94317 1.00353 7.95248 0.528746 7.66538 0.230167C7.37829 -0.0684112 6.9035 -0.077721 6.60492 0.209374L1.10492 5.45937C0.957866 5.60078 0.874756 5.79599 0.874756 6C0.874756 6.20401 0.957866 6.39922 1.10492 6.54062L6.60492 11.7906C6.9035 12.0777 7.37829 12.0684 7.66538 11.7698C7.95248 11.4713 7.94317 10.9965 7.64459 10.7094L3.48684 6.75L14.1248 6.75C14.539 6.75 14.8748 6.41421 14.8748 6Z" fill="currentColor"/>
</svg>
