<svg width="17" height="17" viewBox="0 0 17 17" fill="none" xmlns="http://www.w3.org/2000/svg">
<path d="M9.60388 1.02464C9.60388 0.610429 9.2681 0.274643 8.85388 0.274643C8.43967 0.274643 8.10388 0.610429 8.10388 1.02464V9.63822L5.14914 6.50968C4.86474 6.20854 4.39005 6.19497 4.08892 6.47938C3.78778 6.76379 3.77422 7.23847 4.05862 7.53961L8.30862 12.0396C8.45031 12.1896 8.64754 12.2746 8.85388 12.2746C9.06023 12.2746 9.25746 12.1896 9.39914 12.0396L13.6491 7.53961C13.9336 7.23847 13.92 6.76379 13.6189 6.47938C13.3177 6.19497 12.843 6.20854 12.5586 6.50968L9.60388 9.63822V1.02464Z" fill="currentColor"/>
<path d="M2.35388 11.0246C2.35388 10.6104 2.0181 10.2746 1.60388 10.2746C1.18967 10.2746 0.853882 10.6104 0.853882 11.0246V13.5246C0.853882 15.0434 2.0851 16.2746 3.60388 16.2746H14.1039C15.6227 16.2746 16.8539 15.0434 16.8539 13.5246V11.0246C16.8539 10.6104 16.5181 10.2746 16.1039 10.2746C15.6897 10.2746 15.3539 10.6104 15.3539 11.0246V13.5246C15.3539 14.215 14.7942 14.7746 14.1039 14.7746H3.60388C2.91353 14.7746 2.35388 14.215 2.35388 13.5246V11.0246Z" fill="currentColor"/>
</svg>
