<svg width="17" height="17" viewBox="0 0 17 17" fill="none" xmlns="http://www.w3.org/2000/svg">
<path d="M8.85388 16.2746C13.2722 16.2746 16.8539 12.6929 16.8539 8.27464C16.8539 3.85636 13.2722 0.274643 8.85388 0.274643C4.4356 0.274643 0.853882 3.85636 0.853882 8.27464C0.853882 12.6929 4.4356 16.2746 8.85388 16.2746ZM8.30429 12.035L5.05429 8.53498C4.77243 8.23145 4.79001 7.7569 5.09354 7.47505C5.39708 7.1932 5.87162 7.21077 6.15348 7.51431L8.10388 9.61474V5.02464C8.10388 4.61043 8.43967 4.27464 8.85388 4.27464C9.2681 4.27464 9.60388 4.61043 9.60388 5.02464V9.61474L11.5543 7.51431C11.8361 7.21077 12.3107 7.1932 12.6142 7.47505C12.9178 7.7569 12.9353 8.23145 12.6535 8.53498L9.40348 12.035C9.26157 12.1878 9.06243 12.2746 8.85388 12.2746C8.64533 12.2746 8.4462 12.1878 8.30429 12.035Z" fill="currentColor"/>
</svg>
