<svg width="11" height="11" viewBox="0 0 11 11" fill="none" xmlns="http://www.w3.org/2000/svg">
<path d="M2.13421 0.494313C1.84132 0.20142 1.36644 0.20142 1.07355 0.494313C0.780659 0.787206 0.780659 1.26208 1.07355 1.55497L8.29322 8.77464H2.60388C2.18967 8.77464 1.85388 9.11043 1.85388 9.52464C1.85388 9.93886 2.18967 10.2746 2.60388 10.2746H10.1039C10.2056 10.2746 10.3025 10.2544 10.391 10.2177C10.4774 10.182 10.5585 10.1293 10.6293 10.0598C10.6326 10.0566 10.6359 10.0533 10.6391 10.0501C10.7086 9.9793 10.7612 9.89818 10.797 9.81173C10.8336 9.7233 10.8539 9.62634 10.8539 9.52464V2.02464C10.8539 1.61043 10.5181 1.27464 10.1039 1.27464C9.68967 1.27464 9.35388 1.61043 9.35388 2.02464V7.71398L2.13421 0.494313Z" fill="currentColor"/>
</svg>
