<svg width="13" height="15" viewBox="0 0 13 15" fill="none" xmlns="http://www.w3.org/2000/svg">
<path fill-rule="evenodd" clip-rule="evenodd" d="M6.85388 0.274643C7.2681 0.274643 7.60388 0.610429 7.60388 1.02464L7.60388 11.6626L11.5633 7.50481C11.8504 7.20623 12.3251 7.19692 12.6237 7.48402C12.9223 7.77111 12.9316 8.2459 12.6445 8.54447L7.39451 14.0445C7.2531 14.1915 7.0579 14.2746 6.85388 14.2746C6.64987 14.2746 6.45466 14.1915 6.31326 14.0445L1.06326 8.54447C0.776163 8.2459 0.785472 7.77111 1.08405 7.48402C1.38263 7.19692 1.85741 7.20623 2.14451 7.50481L6.10388 11.6626L6.10388 1.02464C6.10388 0.610429 6.43967 0.274643 6.85388 0.274643Z" fill="currentColor"/>
</svg>
