<svg width="15" height="12" viewBox="0 0 15 12" fill="none" xmlns="http://www.w3.org/2000/svg">
<path fill-rule="evenodd" clip-rule="evenodd" d="M0.874756 6C0.874756 5.58579 1.21054 5.25 1.62476 5.25L12.2627 5.25L8.10492 1.29062C7.80634 1.00353 7.79704 0.528746 8.08413 0.230167C8.37123 -0.0684112 8.84601 -0.077721 9.14459 0.209374L14.6446 5.45937C14.7916 5.60078 14.8748 5.79599 14.8748 6C14.8748 6.20401 14.7916 6.39922 14.6446 6.54062L9.14459 11.7906C8.84601 12.0777 8.37123 12.0684 8.08413 11.7698C7.79704 11.4713 7.80635 10.9965 8.10492 10.7094L12.2627 6.75L1.62476 6.75C1.21054 6.75 0.874756 6.41421 0.874756 6Z" fill="currentColor"/>
</svg>
