<svg width="19" height="18" viewBox="0 0 19 18" fill="none" xmlns="http://www.w3.org/2000/svg">
<path d="M10.85 17.5L11.7 9.225C10.75 8.975 10.0333 8.64583 9.55 8.2375C9.06667 7.82917 8.58333 7.38333 8.1 6.9L5.725 9.25L7.85 11.375V17.5H5.85V12.25L5.075 11.55L5.25 12.9L1.575 17.625L0 16.4L3.15 12.35L1.725 9.55C1.59167 9.26667 1.51667 8.9125 1.5 8.4875C1.48333 8.0625 1.625 7.7 1.925 7.4L5.275 4.1C5.475 3.9 5.69583 3.75 5.9375 3.65C6.17917 3.55 6.425 3.5 6.675 3.5C7.075 3.5 7.39167 3.575 7.625 3.725C7.85833 3.875 8.01667 3.99167 8.1 4.075L10.1 6.05C10.55 6.5 11.1 6.85417 11.75 7.1125C12.4 7.37083 13.1 7.5 13.85 7.5H15.5C15.8833 7.5 16.2167 7.62917 16.5 7.8875C16.7833 8.14583 16.9417 8.46667 16.975 8.85L17.625 15.2C17.8417 15.3333 18.0167 15.5125 18.15 15.7375C18.2833 15.9625 18.35 16.2167 18.35 16.5C18.35 16.9167 18.2042 17.2708 17.9125 17.5625C17.6208 17.8542 17.2667 18 16.85 18C16.4333 18 16.075 17.8542 15.775 17.5625C15.475 17.2708 15.325 16.9167 15.325 16.5C15.325 16.2167 15.3917 15.9625 15.525 15.7375C15.6583 15.5125 15.8417 15.3333 16.075 15.2L15.95 14H12.7L12.35 17.5H10.85ZM10.35 4C9.8 4 9.32917 3.80417 8.9375 3.4125C8.54583 3.02083 8.35 2.55 8.35 2C8.35 1.45 8.54583 0.979167 8.9375 0.5875C9.32917 0.195833 9.8 0 10.35 0C10.9 0 11.3708 0.195833 11.7625 0.5875C12.1542 0.979167 12.35 1.45 12.35 2C12.35 2.55 12.1542 3.02083 11.7625 3.4125C11.3708 3.80417 10.9 4 10.35 4ZM12.85 12.5H15.8L15.45 9H13.225L12.85 12.5Z" fill="#1C1B1F"/>
</svg>