<svg width="16" height="21" viewBox="0 0 16 21" fill="none" xmlns="http://www.w3.org/2000/svg">
<path d="M8 4.29462V6.08462C8 6.53462 8.54 6.75462 8.85 6.43462L11.64 3.64462C11.84 3.44462 11.84 3.13462 11.64 2.93462L8.85 0.144618C8.54 -0.165382 8 0.0546184 8 0.504618V2.29462C3.58 2.29462 0 5.87462 0 10.2946C0 11.3346 0.2 12.3346 0.57 13.2446C0.84 13.9146 1.7 14.0946 2.21 13.5846C2.48 13.3146 2.59 12.9046 2.44 12.5446C2.15 11.8546 2 11.0846 2 10.2946C2 6.98462 4.69 4.29462 8 4.29462ZM13.79 7.00462C13.52 7.27462 13.41 7.69462 13.56 8.04462C13.84 8.74462 14 9.50462 14 10.2946C14 13.6046 11.31 16.2946 8 16.2946V14.5046C8 14.0546 7.46 13.8346 7.15 14.1546L4.36 16.9446C4.16 17.1446 4.16 17.4546 4.36 17.6546L7.15 20.4446C7.46 20.7546 8 20.5346 8 20.0946V18.2946C12.42 18.2946 16 14.7146 16 10.2946C16 9.25462 15.8 8.25462 15.43 7.34462C15.16 6.67462 14.3 6.49462 13.79 7.00462Z" fill="#323232"/>
</svg>