<svg width="10" height="12" viewBox="0 0 10 12" fill="none" xmlns="http://www.w3.org/2000/svg">
<path d="M4.87198 11.984C4.14664 11.984 3.49064 11.824 2.90398 11.504C2.32798 11.1733 1.86931 10.688 1.52798 10.048C1.19731 9.408 1.03198 8.608 1.03198 7.648C1.03198 6.688 1.20264 5.888 1.54398 5.248C1.89598 4.608 2.35998 4.128 2.93598 3.808C3.52264 3.488 4.16798 3.328 4.87198 3.328C5.70398 3.328 6.43998 3.50933 7.07998 3.872C7.71998 4.23467 8.22664 4.74133 8.59998 5.392C8.97331 6.032 9.15998 6.784 9.15998 7.648C9.15998 8.512 8.97331 9.26933 8.59998 9.92C8.22664 10.5707 7.71998 11.0773 7.07998 11.44C6.43998 11.8027 5.70398 11.984 4.87198 11.984ZM0.375977 11.888V0.0159988H1.91198V5.664L1.75198 7.632L1.84798 9.6V11.888H0.375977ZM4.74398 10.64C5.28798 10.64 5.77331 10.5173 6.19998 10.272C6.63731 10.0267 6.97864 9.68 7.22398 9.232C7.47998 8.77333 7.60798 8.24533 7.60798 7.648C7.60798 7.04 7.47998 6.51733 7.22398 6.08C6.97864 5.632 6.63731 5.28533 6.19998 5.04C5.77331 4.79467 5.28798 4.672 4.74398 4.672C4.21064 4.672 3.72531 4.79467 3.28798 5.04C2.86131 5.28533 2.51998 5.632 2.26398 6.08C2.01864 6.51733 1.89598 7.04 1.89598 7.648C1.89598 8.24533 2.01864 8.77333 2.26398 9.232C2.51998 9.68 2.86131 10.0267 3.28798 10.272C3.72531 10.5173 4.21064 10.64 4.74398 10.64Z" fill="currentColor"/>
</svg>
