<svg width="18" height="21" viewBox="0 0 18 21" fill="none" xmlns="http://www.w3.org/2000/svg">
<path d="M11 7V9H8L5.31 7.82L4 11.75V21H0V11L1.58 6.37C1.96 5.25 3.22 4.69 4.3 5.18L8.45 7.01L11 7ZM5 0C3.9 0 3 0.9 3 2C3 3.1 3.9 4 5 4C6.1 4 7 3.1 7 2C7 0.9 6.1 0 5 0ZM6 18H18V16H6V18ZM16.5 15C17.33 15 18 14.33 18 13.5C18 12.67 17.33 12 16.5 12C15.67 12 15 12.67 15 13.5C15 14.33 15.67 15 16.5 15ZM10 11C10 10.45 9.55 10 9 10H6V12H8V13C8 14.1 8.9 15 10 15H12C13.1 15 14 14.1 14 13V10H12V12H10V11Z" fill="#323232"/>
</svg>