<svg width="17" height="12" viewBox="0 0 17 12" fill="none" xmlns="http://www.w3.org/2000/svg">
<path fill-rule="evenodd" clip-rule="evenodd" d="M0.406494 0.75C0.406494 0.335786 0.742281 0 1.15649 0H15.6565C16.0707 0 16.4065 0.335786 16.4065 0.75C16.4065 1.16421 16.0707 1.5 15.6565 1.5H1.15649C0.742281 1.5 0.406494 1.16421 0.406494 0.75ZM0.406494 6C0.406494 5.58579 0.742281 5.25 1.15649 5.25H15.6565C16.0707 5.25 16.4065 5.58579 16.4065 6C16.4065 6.41421 16.0707 6.75 15.6565 6.75H1.15649C0.742281 6.75 0.406494 6.41421 0.406494 6ZM0.406494 11.25C0.406494 10.8358 0.742281 10.5 1.15649 10.5H15.6565C16.0707 10.5 16.4065 10.8358 16.4065 11.25C16.4065 11.6642 16.0707 12 15.6565 12H1.15649C0.742281 12 0.406494 11.6642 0.406494 11.25Z" fill="currentColor"/>
</svg>
