<svg width="17" height="13" viewBox="0 0 17 13" fill="none" xmlns="http://www.w3.org/2000/svg">
<path fill-rule="evenodd" clip-rule="evenodd" d="M0.531738 1.02464C0.531738 0.610429 0.867525 0.274643 1.28174 0.274643H15.7817C16.196 0.274643 16.5317 0.610429 16.5317 1.02464C16.5317 1.43886 16.196 1.77464 15.7817 1.77464H1.28174C0.867525 1.77464 0.531738 1.43886 0.531738 1.02464ZM0.531738 6.27464C0.531738 5.86043 0.867525 5.52464 1.28174 5.52464H15.7817C16.196 5.52464 16.5317 5.86043 16.5317 6.27464C16.5317 6.68886 16.196 7.02464 15.7817 7.02464H1.28174C0.867525 7.02464 0.531738 6.68886 0.531738 6.27464ZM0.531738 11.5246C0.531738 11.1104 0.867525 10.7746 1.28174 10.7746H15.7817C16.196 10.7746 16.5317 11.1104 16.5317 11.5246C16.5317 11.9389 16.196 12.2746 15.7817 12.2746H1.28174C0.867525 12.2746 0.531738 11.9389 0.531738 11.5246Z" fill="currentColor"/>
</svg>
