<svg width="18" height="20" viewBox="0 0 18 20" fill="none" xmlns="http://www.w3.org/2000/svg">
<path d="M5 2C5 0.9 5.9 0 7 0C8.11 0 9 0.9 9 2C9 3.11 8.11 4 7 4C5.9 4 5 3.11 5 2ZM17.65 19.5L11.5 8.85C10.77 8.85 10.23 8.65 9.64 8.26C9.04 7.87 8.6 7.38 8.31 6.8L7.57 5.23C7.39 4.88 7.15 4.62 6.83 4.44C6.54 4.27 6.23 4.18 5.91 4.18C5.59 4.18 5.29 4.26 5 4.4L0 7.23V11.63H1.86V8.32L3.25 7.54L2.91 9.11C2.82 9.63 2.77 10.15 2.77 10.68V15.64L0.38 18.87L1.86 20L4.65 16.25L4.82 13L6.5 15.34V20H8.35V13.94L6.5 11.33V10.68C6.5 10.24 6.5 9.81 6.61 9.39L6.96 8.19C7.34 8.74 7.81 9.2 8.35 9.63C9.2 10.31 10 10.59 11.35 10.58L16.78 20L17.65 19.5Z" fill="black"/>
</svg>