<svg width="20" height="22" viewBox="0 0 20 22" fill="none" xmlns="http://www.w3.org/2000/svg">
<path d="M18.0023 20C16.6123 20 15.2223 19.53 14.0023 18.68C11.5623 20.39 8.44233 20.39 6.00233 18.68C4.78233 19.53 3.39233 20 2.00233 20H0.00233006V22H2.00233C3.38233 22 4.74233 21.65 6.00233 21.01C8.52233 22.3 11.4823 22.3 14.0023 21.01C15.2623 21.66 16.6223 22 18.0023 22H20.0023V20H18.0023ZM1.95233 18H2.00233C3.60233 18 5.02233 17.12 6.00233 16C6.98233 17.12 8.40233 18 10.0023 18C11.6023 18 13.0223 17.12 14.0023 16C14.9823 17.12 16.4023 18 18.0023 18H18.0523L19.9423 11.32C20.0223 11.06 20.0023 10.78 19.8823 10.54C19.7623 10.3 19.5423 10.12 19.2823 10.04L18.0023 9.62V5C18.0023 3.9 17.1023 3 16.0023 3H13.0023V0H7.00233V3H4.00233C2.90233 3 2.00233 3.9 2.00233 5V9.62L0.71233 10.04C0.45233 10.12 0.23233 10.3 0.11233 10.54C-0.00767004 10.78 -0.03767 11.06 0.05233 11.32L1.95233 18ZM4.00233 5H16.0023V8.97L10.0023 7L4.00233 8.97V5Z" fill="#323232"/>
</svg>