<svg width="22" height="17" viewBox="0 0 22 17" fill="none" xmlns="http://www.w3.org/2000/svg">
<path d="M11 17C9.65 16.15 7.2 15.5 5.5 15.5C3.85 15.5 2.15 15.8 0.75 16.55C0.65 16.6 0.6 16.6 0.5 16.6C0.25 16.6 0 16.35 0 16.1V1.5C0.6 1.05 1.25 0.75 2 0.5C3.11 0.15 4.33 0 5.5 0C7.45 0 9.55 0.4 11 1.5C12.45 0.4 14.55 0 16.5 0C17.67 0 18.89 0.15 20 0.5C20.75 0.75 21.4 1.05 22 1.5V16.1C22 16.35 21.75 16.6 21.5 16.6C21.4 16.6 21.35 16.6 21.25 16.55C19.85 15.8 18.15 15.5 16.5 15.5C14.8 15.5 12.35 16.15 11 17ZM10 3C8.64 2.4 6.84 2 5.5 2C4.3 2 3.1 2.15 2 2.5V14C3.1 13.65 4.3 13.5 5.5 13.5C6.84 13.5 8.64 13.9 10 14.5V3ZM12 14.5C13.36 13.9 15.16 13.5 16.5 13.5C17.7 13.5 18.9 13.65 20 14V2.5C18.9 2.15 17.7 2 16.5 2C15.16 2 13.36 2.4 12 3V14.5ZM13 11.85C13.96 11.5 15.12 11.33 16.5 11.33C17.54 11.33 18.38 11.41 19 11.57V10.07C18.13 9.91 17.29 9.83 16.5 9.83C15.16 9.83 14 10 13 10.26V11.85ZM13 9.19C13.96 8.84 15.12 8.66 16.5 8.66C17.54 8.66 18.38 8.74 19 8.9V7.4C18.13 7.24 17.29 7.17 16.5 7.17C15.22 7.17 14.05 7.32 13 7.62V9.19ZM13 6.5C13.96 6.17 15.12 6 16.5 6C17.41 6 18.26 6.09 19 6.28V4.73C18.13 4.58 17.29 4.5 16.5 4.5C15.18 4.5 14 4.65 13 4.96V6.5Z" fill="black"/>
</svg>