<svg width="16" height="16" viewBox="0 0 16 16" fill="none" xmlns="http://www.w3.org/2000/svg">
<path d="M3.2 13.6C4.96731 13.6 6.4 12.1673 6.4 10.4C6.4 8.63269 4.96731 7.2 3.2 7.2C1.43269 7.2 0 8.63269 0 10.4C0 12.1673 1.43269 13.6 3.2 13.6Z" fill="#323232"/>
<path d="M10.8 16C11.9046 16 12.8 15.1046 12.8 14C12.8 12.8954 11.9046 12 10.8 12C9.69543 12 8.8 12.8954 8.8 14C8.8 15.1046 9.69543 16 10.8 16Z" fill="#323232"/>
<path d="M11.2 9.6C13.851 9.6 16 7.45097 16 4.8C16 2.14903 13.851 0 11.2 0C8.54903 0 6.4 2.14903 6.4 4.8C6.4 7.45097 8.54903 9.6 11.2 9.6Z" fill="#323232"/>
</svg>