<svg width="20" height="16" viewBox="0 0 20 16" fill="none" xmlns="http://www.w3.org/2000/svg">
<path d="M20.0006 3V12C20.0006 12.71 19.6206 13.36 19.0006 13.72V15.25C19.0006 15.66 18.6606 16 18.2506 16H17.7506C17.3406 16 17.0006 15.66 17.0006 15.25V14H10.0006V15.25C10.0006 15.66 9.6606 16 9.2506 16H8.7506C8.3406 16 8.0006 15.66 8.0006 15.25V13.72C7.3906 13.36 7.0006 12.71 7.0006 12V3C7.0006 0 10.0006 0 13.5006 0C17.0006 0 20.0006 0 20.0006 3ZM11.0006 11C11.0006 10.45 10.5506 10 10.0006 10C9.4506 10 9.0006 10.45 9.0006 11C9.0006 11.55 9.4506 12 10.0006 12C10.5506 12 11.0006 11.55 11.0006 11ZM18.0006 11C18.0006 10.45 17.5506 10 17.0006 10C16.4506 10 16.0006 10.45 16.0006 11C16.0006 11.55 16.4506 12 17.0006 12C17.5506 12 18.0006 11.55 18.0006 11ZM18.0006 3H9.0006V7H18.0006V3ZM5.0006 5.5C4.9706 4.12 3.8306 3 2.4506 3.05C1.0706 3.08 -0.0294007 4.22 0.000599348 5.6C0.0305993 6.77 0.860599 7.77 2.0006 8V16H3.0006V8C4.1806 7.76 5.0006 6.71 5.0006 5.5Z" fill="black"/>
</svg>