<svg width="9" height="10" viewBox="0 0 9 10" fill="none" xmlns="http://www.w3.org/2000/svg">
<path d="M4.64003 9.328C3.77603 9.328 3.0027 9.14133 2.32003 8.768C1.64803 8.39466 1.12003 7.88266 0.736034 7.232C0.352034 6.58133 0.160034 5.83466 0.160034 4.992C0.160034 4.14933 0.352034 3.40266 0.736034 2.752C1.12003 2.10133 1.64803 1.59466 2.32003 1.232C3.0027 0.858664 3.77603 0.671997 4.64003 0.671997C5.40803 0.671997 6.0907 0.826664 6.68803 1.136C7.29603 1.43466 7.76537 1.88266 8.09604 2.48L6.92803 3.232C6.6507 2.816 6.30937 2.512 5.90403 2.32C5.50937 2.11733 5.0827 2.016 4.62403 2.016C4.06937 2.016 3.57337 2.13866 3.13603 2.384C2.6987 2.62933 2.35203 2.976 2.09603 3.424C1.84003 3.86133 1.71203 4.384 1.71203 4.992C1.71203 5.6 1.84003 6.128 2.09603 6.576C2.35203 7.024 2.6987 7.37067 3.13603 7.616C3.57337 7.86133 4.06937 7.984 4.62403 7.984C5.0827 7.984 5.50937 7.888 5.90403 7.696C6.30937 7.49333 6.6507 7.184 6.92803 6.768L8.09604 7.504C7.76537 8.09066 7.29603 8.544 6.68803 8.864C6.0907 9.17333 5.40803 9.328 4.64003 9.328Z" fill="currentColor"/>
</svg>
