<svg width="20" height="22" viewBox="0 0 20 22" fill="none" xmlns="http://www.w3.org/2000/svg">
<path d="M3 0V2H2C0.89 2 0 2.89 0 4V18C0 19.1 0.89 20 2 20H8.1C9.36 21.24 11.09 22 13 22C16.87 22 20 18.87 20 15C20 13.09 19.24 11.36 18 10.1V4C18 2.9 17.11 2 16 2H15V0H13V2H5V0M2 4H16V6H2M2 8H16V8.67C15.09 8.24 14.07 8 13 8C9.13 8 6 11.13 6 15C6 16.07 6.24 17.09 6.67 18H2M13 10.15C15.68 10.15 17.85 12.32 17.85 15C17.85 17.68 15.68 19.85 13 19.85C10.32 19.85 8.15 17.68 8.15 15C8.15 12.32 10.32 10.15 13 10.15ZM12 12V15.69L15.19 17.53L15.94 16.23L13.5 14.82V12H12Z" fill="black"/>
</svg>