<svg width="17" height="17" viewBox="0 0 17 17" fill="none" xmlns="http://www.w3.org/2000/svg">
<path d="M4.10388 10.2746C4.10388 9.86043 4.43967 9.52464 4.85388 9.52464H4.86388C5.2781 9.52464 5.61388 9.86043 5.61388 10.2746V10.2846C5.61388 10.6989 5.2781 11.0346 4.86388 11.0346H4.85388C4.43967 11.0346 4.10388 10.6989 4.10388 10.2846V10.2746Z" fill="currentColor"/>
<path d="M4.85388 11.5246C4.43967 11.5246 4.10388 11.8604 4.10388 12.2746V12.2846C4.10388 12.6989 4.43967 13.0346 4.85388 13.0346H4.86388C5.2781 13.0346 5.61388 12.6989 5.61388 12.2846V12.2746C5.61388 11.8604 5.2781 11.5246 4.86388 11.5246H4.85388Z" fill="currentColor"/>
<path d="M6.10388 10.2746C6.10388 9.86043 6.43967 9.52464 6.85388 9.52464H6.86388C7.2781 9.52464 7.61388 9.86043 7.61388 10.2746V10.2846C7.61388 10.6989 7.2781 11.0346 6.86388 11.0346H6.85388C6.43967 11.0346 6.10388 10.6989 6.10388 10.2846V10.2746Z" fill="currentColor"/>
<path d="M6.85388 11.5246C6.43967 11.5246 6.10388 11.8604 6.10388 12.2746V12.2846C6.10388 12.6989 6.43967 13.0346 6.85388 13.0346H6.86388C7.2781 13.0346 7.61388 12.6989 7.61388 12.2846V12.2746C7.61388 11.8604 7.2781 11.5246 6.86388 11.5246H6.85388Z" fill="currentColor"/>
<path d="M8.10388 8.27464V8.28464C8.10388 8.69886 8.43967 9.03464 8.85388 9.03464H8.86388C9.2781 9.03464 9.61388 8.69886 9.61388 8.28464V8.27464C9.61388 7.86043 9.2781 7.52464 8.86388 7.52464H8.85388C8.43967 7.52464 8.10388 7.86043 8.10388 8.27464Z" fill="currentColor"/>
<path d="M8.85388 9.52464C8.43967 9.52464 8.10388 9.86043 8.10388 10.2746V10.2846C8.10388 10.6989 8.43967 11.0346 8.85388 11.0346H8.86388C9.2781 11.0346 9.61388 10.6989 9.61388 10.2846V10.2746C9.61388 9.86043 9.2781 9.52464 8.86388 9.52464H8.85388Z" fill="currentColor"/>
<path d="M8.10388 12.2746C8.10388 11.8604 8.43967 11.5246 8.85388 11.5246H8.86388C9.2781 11.5246 9.61388 11.8604 9.61388 12.2746V12.2846C9.61388 12.6989 9.2781 13.0346 8.86388 13.0346H8.85388C8.43967 13.0346 8.10388 12.6989 8.10388 12.2846V12.2746Z" fill="currentColor"/>
<path d="M11.6139 8.27464C11.6139 7.86043 11.2781 7.52464 10.8639 7.52464H10.8539C10.4397 7.52464 10.1039 7.86043 10.1039 8.27464V8.28464C10.1039 8.69886 10.4397 9.03464 10.8539 9.03464H10.8639C11.2781 9.03464 11.6139 8.69886 11.6139 8.28464V8.27464Z" fill="currentColor"/>
<path d="M10.1039 10.2746C10.1039 9.86043 10.4397 9.52464 10.8539 9.52464H10.8639C11.2781 9.52464 11.6139 9.86043 11.6139 10.2746V10.2846C11.6139 10.6989 11.2781 11.0346 10.8639 11.0346H10.8539C10.4397 11.0346 10.1039 10.6989 10.1039 10.2846V10.2746Z" fill="currentColor"/>
<path d="M10.8539 11.5246H10.8639C11.2781 11.5246 11.6139 11.8604 11.6139 12.2746V12.2846C11.6139 12.6989 11.2781 13.0346 10.8639 13.0346H10.8539C10.4397 13.0346 10.1039 12.6989 10.1039 12.2846V12.2746C10.1039 11.8604 10.4397 11.5246 10.8539 11.5246Z" fill="currentColor"/>
<path d="M12.1039 8.27464C12.1039 7.86043 12.4397 7.52464 12.8539 7.52464H12.8639C13.2781 7.52464 13.6139 7.86043 13.6139 8.27464V8.28464C13.6139 8.69886 13.2781 9.03464 12.8639 9.03464H12.8539C12.4397 9.03464 12.1039 8.69886 12.1039 8.28464V8.27464Z" fill="currentColor"/>
<path d="M12.8539 9.52464C12.4397 9.52464 12.1039 9.86043 12.1039 10.2746V10.2846C12.1039 10.6989 12.4397 11.0346 12.8539 11.0346H12.8639C13.2781 11.0346 13.6139 10.6989 13.6139 10.2846V10.2746C13.6139 9.86043 13.2781 9.52464 12.8639 9.52464H12.8539Z" fill="currentColor"/>
<path d="M4.60388 0.274643C5.0181 0.274643 5.35388 0.610429 5.35388 1.02464V2.27464H12.3539V1.02464C12.3539 0.610429 12.6897 0.274643 13.1039 0.274643C13.5181 0.274643 13.8539 0.610429 13.8539 1.02464V2.27464H14.1039C15.6227 2.27464 16.8539 3.50586 16.8539 5.02464V13.5246C16.8539 15.0434 15.6227 16.2746 14.1039 16.2746H3.60388C2.0851 16.2746 0.853882 15.0434 0.853882 13.5246V5.02464C0.853882 3.50586 2.0851 2.27464 3.60388 2.27464H3.85388V1.02464C3.85388 0.610429 4.18967 0.274643 4.60388 0.274643ZM3.60388 5.77464C2.91353 5.77464 2.35388 6.33429 2.35388 7.02464V13.5246C2.35388 14.215 2.91353 14.7746 3.60388 14.7746H14.1039C14.7942 14.7746 15.3539 14.215 15.3539 13.5246V7.02464C15.3539 6.33429 14.7942 5.77464 14.1039 5.77464H3.60388Z" fill="currentColor"/>
</svg>
