<svg width="18" height="15" viewBox="0 0 18 15" fill="none" xmlns="http://www.w3.org/2000/svg">
<path d="M9.12476 5C7.39887 5 5.99976 6.39911 5.99976 8.125C5.99976 9.85089 7.39887 11.25 9.12476 11.25C10.8506 11.25 12.2498 9.85089 12.2498 8.125C12.2498 6.39911 10.8506 5 9.12476 5Z" fill="currentColor"/>
<path d="M6.91166 0.0592722C7.64443 0.0199238 8.3823 0 9.12476 0C9.86722 0 10.6051 0.0199238 11.3379 0.0592722C12.1442 0.102572 12.8626 0.546766 13.2816 1.2182L13.9659 2.31488C14.1652 2.63416 14.5035 2.85109 14.891 2.90617C15.2122 2.95181 15.5321 3.00121 15.8508 3.05432C17.044 3.25315 17.8748 4.29821 17.8748 5.47836V12.5C17.8748 13.8807 16.7555 15 15.3748 15H2.87476C1.49404 15 0.374756 13.8807 0.374756 12.5V5.47835C0.374756 4.2982 1.20547 3.25314 2.39869 3.05431C2.71739 3.0012 3.03734 2.95181 3.35849 2.90617C3.74606 2.85109 4.08436 2.63416 4.28359 2.31487L4.96793 1.2182C5.38692 0.546765 6.10531 0.102572 6.91166 0.0592722ZM4.74976 8.125C4.74976 10.5412 6.70851 12.5 9.12476 12.5C11.541 12.5 13.4998 10.5412 13.4998 8.125C13.4998 5.70875 11.541 3.75 9.12476 3.75C6.70851 3.75 4.74976 5.70875 4.74976 8.125ZM14.7498 6.875C15.0949 6.875 15.3748 6.59518 15.3748 6.25C15.3748 5.90482 15.0949 5.625 14.7498 5.625C14.4046 5.625 14.1248 5.90482 14.1248 6.25C14.1248 6.59518 14.4046 6.875 14.7498 6.875Z" fill="currentColor"/>
</svg>
