<svg width="22" height="22" viewBox="0 0 22 22" fill="none" xmlns="http://www.w3.org/2000/svg">
<path d="M8.22 3.97L6.8 2.56L8.32 0.9H14.32L16.15 2.9H19.32C20.42 2.9 21.32 3.8 21.32 4.9V16.9C21.32 16.95 21.31 17 21.3 17.06L19.32 15.07V4.9H15.27L13.44 2.9H9.2L8.22 3.97ZM19.81 21.21L17.49 18.9H3.32C2.22 18.9 1.32 18 1.32 16.9V4.9C1.32 4.31 1.59 3.78 2 3.41L0 1.41L1.42 0L21.22 19.8L19.81 21.21ZM8.51 9.92C8.4 10.23 8.32 10.55 8.32 10.9C8.32 12.56 9.66 13.9 11.32 13.9C11.67 13.9 11.99 13.82 12.3 13.71L8.51 9.92ZM15.49 16.9L13.81 15.22C13.08 15.65 12.23 15.9 11.32 15.9C8.56 15.9 6.32 13.66 6.32 10.9C6.32 9.99 6.57 9.14 7 8.41L3.49 4.9H3.32V16.9H15.49ZM14.13 9.88L16.2 11.95C16.28 11.61 16.32 11.26 16.32 10.9C16.32 8.14 14.08 5.9 11.32 5.9C10.96 5.9 10.61 5.94 10.26 6.02L12.33 8.09C13.17 8.39 13.83 9.05 14.13 9.88Z" fill="#323232"/>
</svg>