<svg width="19" height="16" viewBox="0 0 19 16" fill="none" xmlns="http://www.w3.org/2000/svg">
<path fill-rule="evenodd" clip-rule="evenodd" d="M9.66064 5.5C7.93475 5.5 6.53564 6.89911 6.53564 8.625C6.53564 10.3509 7.93475 11.75 9.66064 11.75C11.3865 11.75 12.7856 10.3509 12.7856 8.625C12.7856 6.89911 11.3865 5.5 9.66064 5.5Z" fill="currentColor"/>
<path fill-rule="evenodd" clip-rule="evenodd" d="M7.44755 0.559272C8.18032 0.519924 8.91818 0.5 9.66064 0.5C10.4031 0.5 11.141 0.519924 11.8737 0.559272C12.6801 0.602572 13.3985 1.04677 13.8175 1.7182L14.5018 2.81488C14.701 3.13416 15.0393 3.35109 15.4269 3.40617C15.7481 3.45181 16.068 3.50121 16.3867 3.55432C17.5799 3.75315 18.4106 4.79821 18.4106 5.97836V13C18.4106 14.3807 17.2914 15.5 15.9106 15.5H3.41064C2.02993 15.5 0.910645 14.3807 0.910645 13V5.97835C0.910645 4.7982 1.74136 3.75314 2.93458 3.55431C3.25327 3.5012 3.57322 3.45181 3.89438 3.40617C4.28195 3.35109 4.62025 3.13416 4.81948 2.81487L5.50382 1.7182C5.92281 1.04677 6.6412 0.602572 7.44755 0.559272ZM5.28564 8.625C5.28564 11.0412 7.2444 13 9.66064 13C12.0769 13 14.0356 11.0412 14.0356 8.625C14.0356 6.20875 12.0769 4.25 9.66064 4.25C7.2444 4.25 5.28564 6.20875 5.28564 8.625ZM15.2856 7.375C15.6308 7.375 15.9106 7.09518 15.9106 6.75C15.9106 6.40482 15.6308 6.125 15.2856 6.125C14.9405 6.125 14.6606 6.40482 14.6606 6.75C14.6606 7.09518 14.9405 7.375 15.2856 7.375Z" fill="currentColor"/>
</svg>
