<svg width="21" height="21" viewBox="0 0 21 21" fill="none" xmlns="http://www.w3.org/2000/svg">
<path d="M9.8425 5.6025L6.3825 2.1425L7.3025 1.1325C7.6825 0.7225 8.2225 0.4825 8.7825 0.4825H13.0225C13.5825 0.4825 14.1225 0.7225 14.4925 1.1325L15.7325 2.4825H18.9025C20.0025 2.4825 20.9025 3.3825 20.9025 4.4825V16.4825C20.9025 16.5325 20.8925 16.5825 20.8825 16.6425L15.7825 11.5425C15.8625 11.1925 15.9025 10.8425 15.9025 10.4825C15.9025 7.7225 13.6625 5.4825 10.9025 5.4825C10.5425 5.4825 10.1925 5.5225 9.8425 5.6025ZM18.6825 20.0925L17.0725 18.4825H2.9025C1.8025 18.4825 0.9025 17.5825 0.9025 16.4825V4.4825C0.9025 3.8925 1.1725 3.3625 1.5825 2.9925L0.2925 1.7025C-0.0975 1.3125 -0.0975 0.6825 0.2925 0.2925C0.6825 -0.0975 1.3125 -0.0975 1.7025 0.2925L20.0825 18.6725C20.4725 19.0625 20.4725 19.6925 20.0825 20.0825C19.7025 20.4825 19.0725 20.4825 18.6825 20.0925ZM13.3925 14.8025L11.8925 13.3025C11.5725 13.4025 11.2525 13.4825 10.9025 13.4825C9.2425 13.4825 7.9025 12.1425 7.9025 10.4825C7.9025 10.1325 7.9825 9.8125 8.0925 9.5025L6.5925 8.0025C6.1525 8.7225 5.9025 9.5725 5.9025 10.4825C5.9025 13.2425 8.1425 15.4825 10.9025 15.4825C11.8125 15.4825 12.6625 15.2325 13.3925 14.8025Z" fill="#323232"/>
</svg>