<svg width="21" height="19" viewBox="0 0 21 19" fill="none" xmlns="http://www.w3.org/2000/svg">
<path d="M7 9L8.5 4.5H17.5L19 9M17.5 14C17.1022 14 16.7206 13.842 16.4393 13.5607C16.158 13.2794 16 12.8978 16 12.5C16 12.1022 16.158 11.7206 16.4393 11.4393C16.7206 11.158 17.1022 11 17.5 11C17.8978 11 18.2794 11.158 18.5607 11.4393C18.842 11.7206 19 12.1022 19 12.5C19 12.8978 18.842 13.2794 18.5607 13.5607C18.2794 13.842 17.8978 14 17.5 14ZM8.5 14C8.10218 14 7.72064 13.842 7.43934 13.5607C7.15804 13.2794 7 12.8978 7 12.5C7 12.1022 7.15804 11.7206 7.43934 11.4393C7.72064 11.158 8.10218 11 8.5 11C8.89782 11 9.27936 11.158 9.56066 11.4393C9.84196 11.7206 10 12.1022 10 12.5C10 12.8978 9.84196 13.2794 9.56066 13.5607C9.27936 13.842 8.89782 14 8.5 14ZM18.92 4C18.71 3.4 18.14 3 17.5 3H8.5C7.86 3 7.29 3.4 7.08 4L5 10V18C5 18.2652 5.10536 18.5196 5.29289 18.7071C5.48043 18.8946 5.73478 19 6 19H7C7.26522 19 7.51957 18.8946 7.70711 18.7071C7.89464 18.5196 8 18.2652 8 18V17H18V18C18 18.2652 18.1054 18.5196 18.2929 18.7071C18.4804 18.8946 18.7348 19 19 19H20C20.2652 19 20.5196 18.8946 20.7071 18.7071C20.8946 18.5196 21 18.2652 21 18V10L18.92 4ZM13.92 1C13.71 0.4 13.14 0 12.5 0H3.5C2.86 0 2.29 0.4 2.08 1L0 7V15C0 15.2652 0.105357 15.5196 0.292893 15.7071C0.48043 15.8946 0.734784 16 1 16H2C2.26522 16 2.51957 15.8946 2.70711 15.7071C2.89464 15.5196 3 15.2652 3 15V10.91C2.22 10.63 1.82 9.77 2.1 9C2.32 8.4 2.87 8 3.5 8H3.57L4.27 6H2L3.5 1.5H14.09L13.92 1Z" fill="black"/>
</svg>