<svg width="18" height="24" viewBox="0 0 18 24" fill="none" xmlns="http://www.w3.org/2000/svg">
<path d="M8 0V3H10V0H8ZM4.88 1.46L3.46 2.87L5.59 5L7 3.58L4.88 1.46ZM13.12 1.46L11 3.58L12.41 5L14.54 2.88L13.12 1.46ZM9 5C8.46957 5 7.96086 5.21071 7.58579 5.58579C7.21071 5.96086 7 6.46957 7 7V8H3.5C2.84 8 2.28 8.42 2.08 9L0 15V23C0 23.2652 0.105357 23.5196 0.292893 23.7071C0.48043 23.8946 0.734784 24 1 24H2C2.26522 24 2.51957 23.8946 2.70711 23.7071C2.89464 23.5196 3 23.2652 3 23V22H15V23C15 23.2652 15.1054 23.5196 15.2929 23.7071C15.4804 23.8946 15.7348 24 16 24H17C17.2652 24 17.5196 23.8946 17.7071 23.7071C17.8946 23.5196 18 23.2652 18 23V15L15.92 9C15.72 8.42 15.16 8 14.5 8H11V7C11 6.46957 10.7893 5.96086 10.4142 5.58579C10.0391 5.21071 9.53043 5 9 5ZM3.5 9.5H14.5L16 14H2L3.5 9.5ZM3.5 16C3.89782 16 4.27936 16.158 4.56066 16.4393C4.84196 16.7206 5 17.1022 5 17.5C5 17.8978 4.84196 18.2794 4.56066 18.5607C4.27936 18.842 3.89782 19 3.5 19C3.10218 19 2.72064 18.842 2.43934 18.5607C2.15804 18.2794 2 17.8978 2 17.5C2 17.1022 2.15804 16.7206 2.43934 16.4393C2.72064 16.158 3.10218 16 3.5 16ZM14.5 16C14.8978 16 15.2794 16.158 15.5607 16.4393C15.842 16.7206 16 17.1022 16 17.5C16 17.8978 15.842 18.2794 15.5607 18.5607C15.2794 18.842 14.8978 19 14.5 19C14.1022 19 13.7206 18.842 13.4393 18.5607C13.158 18.2794 13 17.8978 13 17.5C13 17.1022 13.158 16.7206 13.4393 16.4393C13.7206 16.158 14.1022 16 14.5 16Z" fill="black"/>
</svg>