<svg width="18" height="13" viewBox="0 0 18 13" fill="none" xmlns="http://www.w3.org/2000/svg">
<path d="M2 0C1.46957 0 0.960859 0.210714 0.585786 0.585786C0.210714 0.960859 0 1.46957 0 2V8C0 8.53043 0.210714 9.03914 0.585786 9.41421C0.960859 9.78929 1.46957 10 2 10H4C4 10.7956 4.31607 11.5587 4.87868 12.1213C5.44129 12.6839 6.20435 13 7 13C7.79565 13 8.55871 12.6839 9.12132 12.1213C9.68393 11.5587 10 10.7956 10 10H18V8H16V2C16 1.46957 15.7893 0.960859 15.4142 0.585786C15.0391 0.210714 14.5304 0 14 0H2ZM2 2H7V5H2V2ZM10 2H14V5H10V2ZM7 9C7.26522 9 7.51957 9.10536 7.70711 9.29289C7.89464 9.48043 8 9.73478 8 10C8 10.2652 7.89464 10.5196 7.70711 10.7071C7.51957 10.8946 7.26522 11 7 11C6.73478 11 6.48043 10.8946 6.29289 10.7071C6.10536 10.5196 6 10.2652 6 10C6 9.73478 6.10536 9.48043 6.29289 9.29289C6.48043 9.10536 6.73478 9 7 9Z" fill="black"/>
</svg>