<svg width="18" height="17" viewBox="0 0 18 17" fill="none" xmlns="http://www.w3.org/2000/svg">
<path fill-rule="evenodd" clip-rule="evenodd" d="M8.7915 1.5C5.06358 1.5 2.0415 4.52208 2.0415 8.25C2.0415 11.9779 5.06358 15 8.7915 15C12.5194 15 15.5415 11.9779 15.5415 8.25C15.5415 4.52208 12.5194 1.5 8.7915 1.5ZM0.541504 8.25C0.541504 3.69365 4.23515 0 8.7915 0C13.3479 0 17.0415 3.69365 17.0415 8.25C17.0415 12.8063 13.3479 16.5 8.7915 16.5C4.23515 16.5 0.541504 12.8063 0.541504 8.25ZM11.7274 5.7647C12.0645 6.00546 12.1426 6.47387 11.9018 6.81093L8.7768 11.1859C8.64866 11.3653 8.44808 11.4793 8.22836 11.4974C8.00865 11.5156 7.79207 11.4362 7.63617 11.2803L5.76117 9.40533C5.46828 9.11244 5.46828 8.63756 5.76117 8.34467C6.05407 8.05178 6.52894 8.05178 6.82183 8.34467L8.0708 9.59364L10.6812 5.93907C10.922 5.60201 11.3904 5.52394 11.7274 5.7647Z" fill="currentColor"/>
</svg>
