<svg width="18" height="17" viewBox="0 0 18 17" fill="none" xmlns="http://www.w3.org/2000/svg">
<path fill-rule="evenodd" clip-rule="evenodd" d="M8.91675 1.52464C5.18883 1.52464 2.16675 4.54672 2.16675 8.27464C2.16675 12.0026 5.18883 15.0246 8.91675 15.0246C12.6447 15.0246 15.6667 12.0026 15.6667 8.27464C15.6667 4.54672 12.6447 1.52464 8.91675 1.52464ZM0.666748 8.27464C0.666748 3.71829 4.3604 0.0246429 8.91675 0.0246429C13.4731 0.0246429 17.1667 3.71829 17.1667 8.27464C17.1667 12.831 13.4731 16.5246 8.91675 16.5246C4.3604 16.5246 0.666748 12.831 0.666748 8.27464ZM11.8527 5.78934C12.1897 6.0301 12.2678 6.49851 12.027 6.83557L8.90205 11.2106C8.77391 11.39 8.57332 11.5039 8.35361 11.5221C8.1339 11.5403 7.91731 11.4609 7.76142 11.305L5.88642 9.42997C5.59352 9.13708 5.59352 8.66221 5.88642 8.36931C6.17931 8.07642 6.65418 8.07642 6.94708 8.36931L8.19604 9.61828L10.8064 5.96371C11.0472 5.62665 11.5156 5.54859 11.8527 5.78934Z" fill="currentColor"/>
</svg>
