<svg width="17" height="17" viewBox="0 0 17 17" fill="none" xmlns="http://www.w3.org/2000/svg">
<path d="M8.85388 16.2746C13.2722 16.2746 16.8539 12.6929 16.8539 8.27464C16.8539 3.85636 13.2722 0.274643 8.85388 0.274643C4.4356 0.274643 0.853882 3.85636 0.853882 8.27464C0.853882 12.6929 4.4356 16.2746 8.85388 16.2746ZM12.7104 6.46577L8.71043 11.9658C8.58142 12.1432 8.38122 12.2552 8.16255 12.2723C7.94388 12.2895 7.72865 12.2101 7.57355 12.055L5.07355 9.55497C4.78066 9.26208 4.78066 8.78721 5.07355 8.49431C5.36645 8.20142 5.84132 8.20142 6.13421 8.49431L8.01358 10.3737L11.4973 5.58351C11.741 5.24852 12.21 5.17446 12.545 5.41809C12.88 5.66172 12.9541 6.13078 12.7104 6.46577Z" fill="currentColor"/>
</svg>
