<svg width="13" height="10" viewBox="0 0 13 10" fill="none" xmlns="http://www.w3.org/2000/svg">
<path fill-rule="evenodd" clip-rule="evenodd" d="M12.6654 9.76983C12.3783 10.0684 11.9035 10.0777 11.6049 9.79062L7.10492 5.54062C6.95786 5.39922 6.87475 5.20401 6.87475 5C6.87475 4.79599 6.95786 4.60078 7.10492 4.45938L11.6049 0.209375C11.9035 -0.0777206 12.3783 -0.0684108 12.6654 0.230167C12.9525 0.528747 12.9432 1.00353 12.6446 1.29062L8.70684 5L12.6446 8.70937C12.9432 8.99647 12.9525 9.47125 12.6654 9.76983ZM6.66538 9.76983C6.37828 10.0684 5.9035 10.0777 5.60492 9.79062L1.10492 5.54063C0.957864 5.39922 0.874754 5.20401 0.874754 5C0.874754 4.79599 0.957864 4.60078 1.10492 4.45938L5.60492 0.209375C5.9035 -0.07772 6.37828 -0.0684103 6.66538 0.230168C6.95247 0.528747 6.94316 1.00353 6.64459 1.29062L2.70684 5L6.64459 8.70937C6.94317 8.99647 6.95247 9.47125 6.66538 9.76983Z" fill="currentColor"/>
</svg>
