<svg width="12" height="10" viewBox="0 0 12 10" fill="currentColor" xmlns="http://www.w3.org/2000/svg">
<path fill-rule="evenodd" clip-rule="evenodd" d="M0.209376 9.76983C0.496471 10.0684 0.971254 10.0777 1.26983 9.79062L5.76983 5.54062C5.91689 5.39922 6 5.20401 6 5C6 4.79599 5.91689 4.60078 5.76983 4.45938L1.26983 0.209375C0.971255 -0.0777206 0.496473 -0.0684108 0.209378 0.230167C-0.0777173 0.528747 -0.068408 1.00353 0.230171 1.29062L4.16792 5L0.23017 8.70937C-0.0684094 8.99647 -0.0777189 9.47125 0.209376 9.76983ZM6.20938 9.76983C6.49647 10.0684 6.97125 10.0777 7.26983 9.79062L11.7698 5.54063C11.9169 5.39922 12 5.20401 12 5C12 4.79599 11.9169 4.60078 11.7698 4.45938L7.26983 0.209375C6.97125 -0.07772 6.49647 -0.0684103 6.20938 0.230168C5.92228 0.528747 5.93159 1.00353 6.23017 1.29062L10.1679 5L6.23017 8.70937C5.93159 8.99647 5.92228 9.47125 6.20938 9.76983Z" />
</svg>
