<svg width="13" height="10" viewBox="0 0 13 10" fill="none" xmlns="http://www.w3.org/2000/svg">
<path fill-rule="evenodd" clip-rule="evenodd" d="M1.08413 9.76983C1.37123 10.0684 1.84601 10.0777 2.14459 9.79062L6.64459 5.54062C6.79165 5.39922 6.87476 5.20401 6.87476 5C6.87476 4.79599 6.79165 4.60078 6.64459 4.45938L2.14459 0.209375C1.84601 -0.0777206 1.37123 -0.0684108 1.08413 0.230167C0.797039 0.528747 0.806348 1.00353 1.10493 1.29062L5.04268 5L1.10493 8.70937C0.806346 8.99647 0.797037 9.47125 1.08413 9.76983ZM7.08413 9.76983C7.37123 10.0684 7.84601 10.0777 8.14459 9.79062L12.6446 5.54063C12.7916 5.39922 12.8748 5.20401 12.8748 5C12.8748 4.79599 12.7916 4.60078 12.6446 4.45938L8.14459 0.209375C7.84601 -0.07772 7.37123 -0.0684103 7.08413 0.230168C6.79704 0.528747 6.80635 1.00353 7.10493 1.29062L11.0427 5L7.10493 8.70937C6.80635 8.99647 6.79704 9.47125 7.08413 9.76983Z" fill="currentColor"/>
</svg>
