<svg width="13" height="10" viewBox="0 0 13 10" fill="none" xmlns="http://www.w3.org/2000/svg">
<path fill-rule="evenodd" clip-rule="evenodd" d="M12.2013 9.76983C11.9142 10.0684 11.4394 10.0777 11.1408 9.79062L6.64081 5.54062C6.49375 5.39922 6.41064 5.20401 6.41064 5C6.41064 4.79599 6.49375 4.60078 6.64081 4.45938L11.1408 0.209375C11.4394 -0.0777206 11.9142 -0.0684108 12.2013 0.230167C12.4884 0.528747 12.4791 1.00353 12.1805 1.29062L8.24272 5L12.1805 8.70937C12.4791 8.99647 12.4884 9.47125 12.2013 9.76983ZM6.20127 9.76983C5.91417 10.0684 5.43939 10.0777 5.14081 9.79062L0.640812 5.54063C0.493753 5.39922 0.410643 5.20401 0.410643 5C0.410643 4.79599 0.493753 4.60078 0.640811 4.45938L5.14081 0.209375C5.43939 -0.07772 5.91417 -0.0684103 6.20127 0.230168C6.48836 0.528747 6.47905 1.00353 6.18047 1.29062L2.24272 5L6.18048 8.70937C6.47905 8.99647 6.48836 9.47125 6.20127 9.76983Z" fill="currentColor"/>
</svg>
