<svg width="13" height="10" viewBox="0 0 13 10" fill="none" xmlns="http://www.w3.org/2000/svg">
<path fill-rule="evenodd" clip-rule="evenodd" d="M0.620021 9.76983C0.907116 10.0684 1.3819 10.0777 1.68048 9.79062L6.18048 5.54062C6.32754 5.39922 6.41065 5.20401 6.41065 5C6.41065 4.79599 6.32754 4.60078 6.18048 4.45938L1.68048 0.209375C1.3819 -0.0777206 0.907117 -0.0684108 0.620022 0.230167C0.332927 0.528747 0.342237 1.00353 0.640815 1.29062L4.57857 5L0.640814 8.70937C0.342235 8.99647 0.332926 9.47125 0.620021 9.76983ZM6.62002 9.76983C6.90712 10.0684 7.3819 10.0777 7.68048 9.79062L12.1805 5.54063C12.3275 5.39922 12.4106 5.20401 12.4106 5C12.4106 4.79599 12.3275 4.60078 12.1805 4.45938L7.68048 0.209375C7.3819 -0.07772 6.90712 -0.0684103 6.62002 0.230168C6.33293 0.528747 6.34224 1.00353 6.64081 1.29062L10.5786 5L6.64081 8.70937C6.34224 8.99647 6.33293 9.47125 6.62002 9.76983Z" fill="currentColor"/>
</svg>
