<svg width="17" height="16" viewBox="0 0 17 16" fill="none" xmlns="http://www.w3.org/2000/svg">
<path fill-rule="evenodd" clip-rule="evenodd" d="M8.91064 16C13.3289 16 16.9106 12.4183 16.9106 8C16.9106 3.58172 13.3289 0 8.91064 0C4.49237 0 0.910645 3.58172 0.910645 8C0.910645 12.4183 4.49237 16 8.91064 16ZM9.66064 3V7.25H12.9106C13.3249 7.25 13.6606 7.58579 13.6606 8C13.6606 8.41421 13.3249 8.75 12.9106 8.75H8.91064C8.49643 8.75 8.16064 8.41421 8.16064 8V3C8.16064 2.58579 8.49643 2.25 8.91064 2.25C9.32486 2.25 9.66064 2.58579 9.66064 3Z" fill="currentColor"/>
</svg>
