<svg width="17" height="16" viewBox="0 0 17 16" fill="none" xmlns="http://www.w3.org/2000/svg">
<path d="M8.37476 16C12.793 16 16.3748 12.4183 16.3748 8C16.3748 3.58172 12.793 0 8.37476 0C3.95648 0 0.374756 3.58172 0.374756 8C0.374756 12.4183 3.95648 16 8.37476 16ZM9.12476 3V7.25H12.3748C12.789 7.25 13.1248 7.58579 13.1248 8C13.1248 8.41421 12.789 8.75 12.3748 8.75H8.37476C7.96054 8.75 7.62476 8.41421 7.62476 8V3C7.62476 2.58579 7.96054 2.25 8.37476 2.25C8.78897 2.25 9.12476 2.58579 9.12476 3Z" fill="currentColor"/>
</svg>
