<svg width="11" height="11" viewBox="0 0 11 11" fill="none" xmlns="http://www.w3.org/2000/svg">
<path d="M1.44696 0.494313C1.15406 0.20142 0.679189 0.20142 0.386296 0.494313C0.0934027 0.787206 0.0934027 1.26208 0.386296 1.55497L4.10597 5.27464L0.386296 8.99431C0.0934027 9.28721 0.0934027 9.76208 0.386296 10.055C0.679189 10.3479 1.15406 10.3479 1.44696 10.055L5.16663 6.3353L8.8863 10.055C9.17919 10.3479 9.65406 10.3479 9.94696 10.055C10.2398 9.76208 10.2398 9.28721 9.94696 8.99431L6.22729 5.27464L9.94696 1.55497C10.2398 1.26208 10.2398 0.787206 9.94696 0.494313C9.65406 0.20142 9.17919 0.20142 8.8863 0.494313L5.16663 4.21398L1.44696 0.494313Z" fill="currentColor"/>
</svg>
