<svg width="11" height="10" viewBox="0 0 11 10" fill="none" xmlns="http://www.w3.org/2000/svg">
<path d="M1.32183 0.21967C1.02894 -0.0732233 0.554067 -0.0732233 0.261174 0.21967C-0.0317194 0.512563 -0.0317194 0.987437 0.261174 1.28033L3.98084 5L0.261174 8.71967C-0.0317194 9.01256 -0.0317194 9.48744 0.261174 9.78033C0.554067 10.0732 1.02894 10.0732 1.32183 9.78033L5.0415 6.06066L8.76117 9.78033C9.05407 10.0732 9.52894 10.0732 9.82183 9.78033C10.1147 9.48744 10.1147 9.01256 9.82183 8.71967L6.10216 5L9.82183 1.28033C10.1147 0.987437 10.1147 0.512563 9.82183 0.21967C9.52894 -0.0732233 9.05407 -0.0732233 8.76117 0.21967L5.0415 3.93934L1.32183 0.21967Z" fill="currentColor"/>
</svg>
