<svg width="15" height="16" viewBox="0 0 15 16" fill="none" xmlns="http://www.w3.org/2000/svg">
<path d="M4.28418 1.5C4.28418 0.671573 4.95575 0 5.78418 0H9.66286C10.0607 0 10.4422 0.158035 10.7235 0.43934L13.8448 3.56066C14.1261 3.84197 14.2842 4.2235 14.2842 4.62132V10.5C14.2842 11.3284 13.6126 12 12.7842 12H11.7842V8.62132C11.7842 7.82567 11.4681 7.06261 10.9055 6.5L7.78418 3.37868C7.22157 2.81607 6.45851 2.5 5.66286 2.5H4.28418V1.5Z" fill="currentColor"/>
<path d="M1.78418 4C0.955753 4 0.28418 4.67157 0.28418 5.5V14.5C0.28418 15.3284 0.955752 16 1.78418 16H8.78418C9.61261 16 10.2842 15.3284 10.2842 14.5V8.62132C10.2842 8.2235 10.1261 7.84197 9.84484 7.56066L6.72352 4.43934C6.44221 4.15804 6.06068 4 5.66286 4H1.78418Z" fill="currentColor"/>
</svg>
