<svg width="18" height="20" viewBox="0 0 18 20" fill="none" xmlns="http://www.w3.org/2000/svg">
<path d="M15.9587 17.8947H6.11659V5.36842H15.9587M15.9587 3.57895H6.11659C5.64199 3.57895 5.18683 3.76748 4.85124 4.10307C4.51565 4.43866 4.32712 4.89382 4.32712 5.36842V17.8947C4.32712 18.3693 4.51565 18.8245 4.85124 19.1601C5.18683 19.4957 5.64199 19.6842 6.11659 19.6842H15.9587C16.4333 19.6842 16.8885 19.4957 17.224 19.1601C17.5596 18.8245 17.7482 18.3693 17.7482 17.8947V5.36842C17.7482 4.89382 17.5596 4.43866 17.224 4.10307C16.8885 3.76748 16.4333 3.57895 15.9587 3.57895ZM13.2745 0H2.53764C2.06304 0 1.60788 0.188533 1.27229 0.524125C0.936702 0.859716 0.748169 1.31488 0.748169 1.78947V14.3158H2.53764V1.78947H13.2745V0Z" fill="currentColor"/>
</svg>
