<svg width="22" height="20" viewBox="0 0 22 20" fill="none" xmlns="http://www.w3.org/2000/svg">
<path d="M14 10H15.5V12.82L17.94 14.23L17.19 15.53L14 13.69V10ZM22 13C22 14.8565 21.2625 16.637 19.9497 17.9497C18.637 19.2625 16.8565 20 15 20C12.21 20 9.8 18.36 8.67 16H2C0.89 16 0 15.1 0 14V2C0 0.89 0.89 0 2 0H18C18.5304 0 19.0391 0.210714 19.4142 0.585786C19.7893 0.960859 20 1.46957 20 2V8.1C21.24 9.36 22 11.09 22 13ZM15 8C13.6739 8 12.4021 8.52678 11.4645 9.46447C10.5268 10.4021 10 11.6739 10 13C10 14.3261 10.5268 15.5979 11.4645 16.5355C12.4021 17.4732 13.6739 18 15 18C16.3261 18 17.5979 17.4732 18.5355 16.5355C19.4732 15.5979 20 14.3261 20 13C20 11.6739 19.4732 10.4021 18.5355 9.46447C17.5979 8.52678 16.3261 8 15 8ZM18 6V3H2V6H18Z" fill="black"/>
</svg>