<svg width="9" height="12" viewBox="0 0 9 12" fill="none" xmlns="http://www.w3.org/2000/svg">
<path d="M4.288 11.968C3.46667 11.968 2.73067 11.7867 2.08 11.424C1.44 11.0613 0.933333 10.5547 0.56 9.904C0.186667 9.25333 0 8.496 0 7.632C0 6.768 0.186667 6.016 0.56 5.376C0.933333 4.72533 1.44 4.21867 2.08 3.856C2.73067 3.49333 3.46667 3.312 4.288 3.312C5.00267 3.312 5.648 3.472 6.224 3.792C6.8 4.112 7.25867 4.592 7.6 5.232C7.952 5.872 8.128 6.672 8.128 7.632C8.128 8.592 7.95733 9.392 7.616 10.032C7.28533 10.672 6.832 11.1573 6.256 11.488C5.68 11.808 5.024 11.968 4.288 11.968ZM4.416 10.624C4.94933 10.624 5.42933 10.5013 5.856 10.256C6.29333 10.0107 6.63467 9.664 6.88 9.216C7.136 8.75733 7.264 8.22933 7.264 7.632C7.264 7.024 7.136 6.50133 6.88 6.064C6.63467 5.616 6.29333 5.26933 5.856 5.024C5.42933 4.77867 4.94933 4.656 4.416 4.656C3.872 4.656 3.38667 4.77867 2.96 5.024C2.53333 5.26933 2.192 5.616 1.936 6.064C1.68 6.50133 1.552 7.024 1.552 7.632C1.552 8.22933 1.68 8.75733 1.936 9.216C2.192 9.664 2.53333 10.0107 2.96 10.256C3.38667 10.5013 3.872 10.624 4.416 10.624ZM7.312 11.872V9.584L7.408 7.616L7.248 5.648V0H8.784V11.872H7.312Z" fill="#0F172A"/>
</svg>