<svg width="9" height="12" viewBox="0 0 9 12" fill="none" xmlns="http://www.w3.org/2000/svg">
<path d="M4.38395 11.984C3.56261 11.984 2.82661 11.8027 2.17595 11.44C1.53595 11.0773 1.02928 10.5707 0.655947 9.92C0.282614 9.26933 0.0959473 8.512 0.0959473 7.648C0.0959473 6.784 0.282614 6.032 0.655947 5.392C1.02928 4.74133 1.53595 4.23467 2.17595 3.872C2.82661 3.50933 3.56261 3.328 4.38395 3.328C5.09861 3.328 5.74395 3.488 6.31995 3.808C6.89595 4.128 7.35461 4.608 7.69595 5.248C8.04795 5.888 8.22395 6.688 8.22395 7.648C8.22395 8.608 8.05328 9.408 7.71195 10.048C7.38128 10.688 6.92795 11.1733 6.35195 11.504C5.77595 11.824 5.11995 11.984 4.38395 11.984ZM4.51195 10.64C5.04528 10.64 5.52528 10.5173 5.95195 10.272C6.38928 10.0267 6.73061 9.68 6.97595 9.232C7.23195 8.77333 7.35995 8.24533 7.35995 7.648C7.35995 7.04 7.23195 6.51733 6.97595 6.08C6.73061 5.632 6.38928 5.28533 5.95195 5.04C5.52528 4.79467 5.04528 4.672 4.51195 4.672C3.96795 4.672 3.48261 4.79467 3.05595 5.04C2.62928 5.28533 2.28795 5.632 2.03195 6.08C1.77595 6.51733 1.64795 7.04 1.64795 7.648C1.64795 8.24533 1.77595 8.77333 2.03195 9.232C2.28795 9.68 2.62928 10.0267 3.05595 10.272C3.48261 10.5173 3.96795 10.64 4.51195 10.64ZM7.40795 11.888V9.6L7.50395 7.632L7.34395 5.664V0.0159988H8.87995V11.888H7.40795Z" fill="currentColor"/>
</svg>
