<svg width="20" height="20" viewBox="0 0 20 20" fill="none" xmlns="http://www.w3.org/2000/svg">
<path d="M10.1 20C8.7 20 7.3875 19.7333 6.1625 19.2C4.9375 18.6667 3.87083 17.9458 2.9625 17.0375C2.05417 16.1292 1.33333 15.0625 0.8 13.8375C0.266667 12.6125 0 11.3 0 9.9C0 7.46667 0.775 5.32083 2.325 3.4625C3.875 1.60417 5.85 0.45 8.25 0C7.95 1.65 8.04167 3.2625 8.525 4.8375C9.00833 6.4125 9.84167 7.79167 11.025 8.975C12.2083 10.1583 13.5875 10.9917 15.1625 11.475C16.7375 11.9583 18.35 12.05 20 11.75C19.5667 14.15 18.4167 16.125 16.55 17.675C14.6833 19.225 12.5333 20 10.1 20Z" fill="#1C1B1F"/>
</svg>