<svg width="15" height="19" viewBox="0 0 15 19" fill="none" xmlns="http://www.w3.org/2000/svg">
<path d="M3.89099 3.02464C3.89099 1.50586 5.12221 0.274643 6.64099 0.274643H9.14099C10.6598 0.274643 11.891 1.50586 11.891 3.02464V3.46732C12.6863 3.54434 13.4751 3.6441 14.2566 3.76594C14.6659 3.82974 14.946 4.21324 14.8821 4.62251C14.8183 5.03178 14.4348 5.31184 14.0256 5.24803L13.8772 5.2252L13.0357 15.7439C12.9214 17.1731 11.7282 18.2746 10.2945 18.2746H5.48728C4.05353 18.2746 2.86037 17.1731 2.74604 15.7439L1.90454 5.22526L1.75663 5.24803C1.34736 5.31184 0.963855 5.03178 0.90005 4.62251C0.836245 4.21324 1.1163 3.82974 1.52557 3.76594C2.30701 3.64411 3.09571 3.54436 3.89099 3.46734V3.02464ZM10.391 3.34963C9.56399 3.29988 8.73045 3.27464 7.8911 3.27464C7.05167 3.27464 6.21806 3.29988 5.39099 3.34964V3.02464C5.39099 2.33429 5.95064 1.77464 6.64099 1.77464H9.14099C9.83135 1.77464 10.391 2.33429 10.391 3.02464V3.34963ZM5.70212 6.33319C5.28831 6.35146 4.96766 6.70172 4.98593 7.11553L5.3174 14.6249C5.33566 15.0387 5.68593 15.3593 6.09974 15.3411C6.51355 15.3228 6.83421 14.9725 6.81594 14.5587L6.48447 7.04939C6.4662 6.63558 6.11593 6.31492 5.70212 6.33319ZM9.35294 7.1143L9.02146 14.6236C9.0032 15.0374 9.32385 15.3877 9.73766 15.406C10.1515 15.4242 10.5017 15.1036 10.52 14.6898L10.8515 7.18045C10.8697 6.76663 10.5491 6.41637 10.1353 6.3981C9.72147 6.37984 9.3712 6.70049 9.35294 7.1143Z" fill="currentColor"/>
</svg>
