<svg width="21" height="19" viewBox="0 0 21 19" fill="none" xmlns="http://www.w3.org/2000/svg">
<path d="M9.12301 14.9548L9.70795 11.9283C9.83109 11.3104 9.6669 10.6715 9.27694 10.1898C8.88698 9.70807 8.3123 9.42531 7.69658 9.42531H2.05242V8.29427L4.68978 2.09451H12.9918C13.1765 2.09451 13.3407 2.26207 13.3407 2.45058V10.6611L9.12301 14.9548ZM8.20968 18.8506L14.7877 12.1377C15.1776 11.7397 15.3932 11.2056 15.3932 10.6506V2.45058C15.3932 1.09962 14.3156 0 12.9918 0H4.67952C3.95091 0 3.28387 0.387485 2.91444 1.01584L0.174456 7.45647C0.0615727 7.71828 0 8.00104 0 8.29427V9.42531C0 10.5773 0.923589 11.5198 2.05242 11.5198H7.69658L6.75246 16.3896C6.70115 16.62 6.73194 16.8713 6.83456 17.0808C7.07059 17.552 7.36819 17.9814 7.73762 18.3584L8.20968 18.8506ZM18.4718 11.5198H20.5242V0H18.4718C17.9074 0 17.4456 0.471265 17.4456 1.04726V10.4726C17.4456 11.0486 17.9074 11.5198 18.4718 11.5198Z" fill="#323232"/>
</svg>