<svg width="23" height="21" viewBox="0 0 23 21" fill="none" xmlns="http://www.w3.org/2000/svg">
<path d="M14.3669 0H5.13105C4.2793 0 3.55069 0.523628 3.24282 1.27765L0.143669 8.66081C0.0513105 8.90168 0 9.15302 0 9.42531V11.5198C0 12.6718 0.923589 13.6143 2.05242 13.6143H8.52781L7.55291 18.4003L7.52212 18.7354C7.52212 19.1648 7.69658 19.5628 7.97365 19.8455L9.06144 20.9451L15.8242 14.0437C16.1936 13.6667 16.4194 13.1431 16.4194 12.5671V2.09451C16.4194 0.942531 15.4958 0 14.3669 0ZM18.4718 0V12.5671H22.5766V0H18.4718Z" fill="#323232"/>
</svg>