<svg width="9" height="9" viewBox="0 0 9 9" fill="none" xmlns="http://www.w3.org/2000/svg">
<path d="M4.56 8.656C3.65333 8.656 2.85333 8.46933 2.16 8.096C1.47733 7.72267 0.944 7.21067 0.56 6.56C0.186667 5.90933 0 5.16267 0 4.32C0 3.47733 0.181333 2.73067 0.544 2.08C0.917333 1.42933 1.424 0.922667 2.064 0.56C2.71467 0.186667 3.44533 0 4.256 0C5.07733 0 5.80267 0.181333 6.432 0.544C7.06133 0.906667 7.552 1.41867 7.904 2.08C8.26667 2.73067 8.448 3.49333 8.448 4.368C8.448 4.432 8.44267 4.50667 8.432 4.592C8.432 4.67733 8.42667 4.75733 8.416 4.832H1.2V3.728H7.616L6.992 4.112C7.00267 3.568 6.89067 3.08267 6.656 2.656C6.42133 2.22933 6.096 1.89867 5.68 1.664C5.27467 1.41867 4.8 1.296 4.256 1.296C3.72267 1.296 3.248 1.41867 2.832 1.664C2.416 1.89867 2.09067 2.23467 1.856 2.672C1.62133 3.09867 1.504 3.58933 1.504 4.144V4.4C1.504 4.96533 1.632 5.472 1.888 5.92C2.15467 6.35733 2.52267 6.69867 2.992 6.944C3.46133 7.18933 4 7.312 4.608 7.312C5.10933 7.312 5.56267 7.22667 5.968 7.056C6.384 6.88533 6.74667 6.62933 7.056 6.288L7.904 7.28C7.52 7.728 7.04 8.06933 6.464 8.304C5.89867 8.53867 5.264 8.656 4.56 8.656Z" fill="#0F172A"/>
</svg>