<svg width="10" height="10" viewBox="0 0 10 10" fill="none" xmlns="http://www.w3.org/2000/svg">
<path d="M5.44001 9.328C4.53334 9.328 3.73334 9.14133 3.04 8.768C2.35734 8.39466 1.824 7.88266 1.44 7.232C1.06667 6.58133 0.880005 5.83466 0.880005 4.992C0.880005 4.14933 1.06134 3.40266 1.424 2.752C1.79734 2.10133 2.30401 1.59466 2.94401 1.232C3.59467 0.858664 4.32534 0.671997 5.13601 0.671997C5.95734 0.671997 6.68267 0.85333 7.31201 1.216C7.94134 1.57866 8.43201 2.09066 8.78401 2.752C9.14667 3.40266 9.32801 4.16533 9.32801 5.04C9.32801 5.104 9.32267 5.17866 9.31201 5.264C9.31201 5.34933 9.30667 5.42933 9.29601 5.504H2.08V4.4H8.49601L7.87201 4.784C7.88267 4.24 7.77067 3.75466 7.53601 3.328C7.30134 2.90133 6.97601 2.57066 6.56001 2.336C6.15467 2.09066 5.68001 1.968 5.13601 1.968C4.60267 1.968 4.12801 2.09066 3.71201 2.336C3.29601 2.57066 2.97067 2.90666 2.736 3.344C2.50134 3.77066 2.384 4.26133 2.384 4.816V5.072C2.384 5.63733 2.512 6.144 2.76801 6.592C3.03467 7.02933 3.40267 7.37067 3.872 7.616C4.34134 7.86133 4.88 7.984 5.48801 7.984C5.98934 7.984 6.44267 7.89866 6.84801 7.728C7.26401 7.55733 7.62667 7.30133 7.93601 6.96L8.78401 7.952C8.4 8.4 7.92 8.74133 7.34401 8.976C6.77867 9.21066 6.14401 9.328 5.44001 9.328Z" fill="currentColor"/>
</svg>
