<svg width="14" height="22" viewBox="0 0 14 22" fill="none" xmlns="http://www.w3.org/2000/svg">
<path d="M7.5 4C8.6 4 9.5 3.1 9.5 2C9.5 0.9 8.6 0 7.5 0C6.4 0 5.5 0.9 5.5 2C5.5 3.1 6.4 4 7.5 4ZM14 11V21.5H13V11C13 10.72 12.78 10.5 12.5 10.5C12.22 10.5 12 10.72 12 11V12H11V11.31C9.54 10.93 8.3 10.02 7.49 8.79C7.18 9.66 7 10.57 7 11.5C7 11.73 7.02 11.96 7.03 12.19L9 15V21.5H7V16.5L5.22 13.96L5 17.5L2 21.5L0.4 20.3L3 16.83V11.5C3 10.35 3.18 9.21 3.5 8.11L2 8.96V12.5H0V7.8L5.4 4.73V4.74C5.99 4.43 6.72 4.41 7.34 4.77C7.7 4.98 7.97 5.28 8.14 5.62L8.93 7.29C9.58 8.6 10.94 9.5 12.5 9.5C13.33 9.5 14 10.17 14 11Z" fill="#323232"/>
</svg>