<svg width="14" height="22" viewBox="0 0 14 22" fill="none" xmlns="http://www.w3.org/2000/svg">
<path d="M2 22L0.4 20.8L2.5 18H0C0 17.4167 0.1625 16.4125 0.4875 14.9875C0.8125 13.5625 1.25833 12.1083 1.825 10.625C2.39167 9.125 3.0625 7.8125 3.8375 6.6875C4.6125 5.5625 5.45 5 6.35 5C6.96667 5 7.39583 5.19167 7.6375 5.575C7.87917 5.95833 8.225 6.53333 8.675 7.3C9.20833 8.2 9.69167 8.875 10.125 9.325C10.5583 9.775 11.025 10.1167 11.525 10.35C11.7083 10.2167 11.8667 10.125 12 10.075C12.1333 10.025 12.2917 10 12.475 10C12.8917 10 13.25 10.15 13.55 10.45C13.85 10.75 14 11.1 14 11.5V22H13V11.5C13 11.3667 12.95 11.25 12.85 11.15C12.75 11.05 12.6333 11 12.5 11C12.3667 11 12.25 11.05 12.15 11.15C12.05 11.25 12 11.3667 12 11.5V12.75H11V12.275C10.3667 11.925 9.71667 11.4708 9.05 10.9125C8.38333 10.3542 7.89167 9.74167 7.575 9.075L7 12L9 17.975V22H7V18H5L2 22ZM7.5 4.5C6.95 4.5 6.47917 4.30417 6.0875 3.9125C5.69583 3.52083 5.5 3.05 5.5 2.5C5.5 2.36667 5.53333 2.16667 5.6 1.9C5.41667 1.81667 5.27083 1.69583 5.1625 1.5375C5.05417 1.37917 5 1.2 5 1C5 0.716667 5.09583 0.479167 5.2875 0.2875C5.47917 0.0958333 5.71667 0 6 0C6.2 0 6.37917 0.0541667 6.5375 0.1625C6.69583 0.270833 6.81667 0.416667 6.9 0.6C7 0.566667 7.1 0.541667 7.2 0.525C7.3 0.508333 7.4 0.5 7.5 0.5C8.05 0.5 8.52083 0.695833 8.9125 1.0875C9.30417 1.47917 9.5 1.95 9.5 2.5C9.5 3.05 9.30417 3.52083 8.9125 3.9125C8.52083 4.30417 8.05 4.5 7.5 4.5Z" fill="#1C1B1F"/>
</svg>