<svg width="20" height="22" viewBox="0 0 20 22" fill="none" xmlns="http://www.w3.org/2000/svg">
<path d="M3 17C2.16667 17 1.45833 16.7083 0.875 16.125C0.291667 15.5417 0 14.8333 0 14C0 13.1667 0.291667 12.4583 0.875 11.875C1.45833 11.2917 2.16667 11 3 11C3.65 11 4.22917 11.1875 4.7375 11.5625C5.24583 11.9375 5.6 12.4167 5.8 13H11.1C11.2833 11.8667 11.7542 10.875 12.5125 10.025C13.2708 9.175 14.2 8.58333 15.3 8.25L13.9 2H10V0H13.9C14.35 0 14.7625 0.145833 15.1375 0.4375C15.5125 0.729167 15.75 1.1 15.85 1.55L17.75 10H17C15.9 10 14.9583 10.3917 14.175 11.175C13.3917 11.9583 13 12.9 13 14V15H5.8C5.6 15.5833 5.24583 16.0625 4.7375 16.4375C4.22917 16.8125 3.65 17 3 17ZM17 17C16.1667 17 15.4583 16.7083 14.875 16.125C14.2917 15.5417 14 14.8333 14 14C14 13.1667 14.2917 12.4583 14.875 11.875C15.4583 11.2917 16.1667 11 17 11C17.8333 11 18.5417 11.2917 19.125 11.875C19.7083 12.4583 20 13.1667 20 14C20 14.8333 19.7083 15.5417 19.125 16.125C18.5417 16.7083 17.8333 17 17 17ZM11 22L5 19H9V17L15 20H11V22Z" fill="#1C1B1F"/>
</svg>