<svg width="17" height="20" viewBox="0 0 17 20" fill="none" xmlns="http://www.w3.org/2000/svg">
<path d="M3.5 0C4.6 0 5.5 0.9 5.5 2C5.5 3.1 4.6 4 3.5 4C2.4 4 1.5 3.1 1.5 2C1.5 0.9 2.4 0 3.5 0ZM12.5 7.5C12.5 8.33 13.17 9 14 9C14.83 9 15.5 8.33 15.5 7.5C15.5 6.67 14.83 6 14 6C13.17 6 12.5 6.67 12.5 7.5ZM15.5 10H12.66C12.08 10.01 11.52 10.32 11.21 10.86L10.29 12.18L6.72 6C6.35 5.37 5.69 5.01 5.01 5H2C0.9 5 0 5.9 0 7V13H1.5V20H6.5V9.61L9.03 14H11.23L12 12.9V20H16V15H17V11.5C17 10.68 16.33 10 15.5 10Z" fill="#323232"/>
</svg>