<svg width="18" height="18" viewBox="0 0 18 18" fill="none" xmlns="http://www.w3.org/2000/svg">
<path d="M12 18C10.0333 18 8.28333 17.4417 6.75 16.325C5.21667 15.2083 4.13333 13.7667 3.5 12H0V10H3.05C3 9.6 2.97917 9.22917 2.9875 8.8875C2.99583 8.54583 3.01667 8.25 3.05 8H0V6H3.5C4.13333 4.23333 5.21667 2.79167 6.75 1.675C8.28333 0.558333 10.0333 0 12 0C13.15 0 14.2375 0.204167 15.2625 0.6125C16.2875 1.02083 17.2 1.58333 18 2.3L16.575 3.7C15.9583 3.16667 15.2625 2.75 14.4875 2.45C13.7125 2.15 12.8833 2 12 2C10.5833 2 9.31667 2.37083 8.2 3.1125C7.08333 3.85417 6.24167 4.81667 5.675 6H12V8H5.075C5.00833 8.45 4.98333 8.84583 5 9.1875C5.01667 9.52917 5.04167 9.8 5.075 10H12V12H5.675C6.24167 13.1833 7.08333 14.1458 8.2 14.8875C9.31667 15.6292 10.5833 16 12 16C12.8833 16 13.7125 15.85 14.4875 15.55C15.2625 15.25 15.9583 14.8333 16.575 14.3L18 15.7C17.2 16.4167 16.2875 16.9792 15.2625 17.3875C14.2375 17.7958 13.15 18 12 18Z" fill="#1C1B1F"/>
</svg>