<svg width="17" height="17" viewBox="0 0 17 17" fill="currentColor" xmlns="http://www.w3.org/2000/svg">
<path fill-rule="evenodd" clip-rule="evenodd" d="M8.5 1.75C4.77208 1.75 1.75 4.77208 1.75 8.5C1.75 12.2279 4.77208 15.25 8.5 15.25C12.2279 15.25 15.25 12.2279 15.25 8.5C15.25 4.77208 12.2279 1.75 8.5 1.75ZM0.25 8.5C0.25 3.94365 3.94365 0.25 8.5 0.25C13.0563 0.25 16.75 3.94365 16.75 8.5C16.75 13.0563 13.0563 16.75 8.5 16.75C3.94365 16.75 0.25 13.0563 0.25 8.5ZM8.5 5.25C8.91421 5.25 9.25 5.58579 9.25 6V9.125C9.25 9.53921 8.91421 9.875 8.5 9.875C8.08579 9.875 7.75 9.53921 7.75 9.125V6C7.75 5.58579 8.08579 5.25 8.5 5.25ZM7.75 11.625C7.75 11.2108 8.08579 10.875 8.5 10.875H8.50625C8.92046 10.875 9.25625 11.2108 9.25625 11.625V11.6313C9.25625 12.0455 8.92046 12.3813 8.50625 12.3813H8.5C8.08579 12.3813 7.75 12.0455 7.75 11.6313V11.625Z" />
</svg>
