<svg width="18" height="17" viewBox="0 0 18 17" fill="none" xmlns="http://www.w3.org/2000/svg">
<path fill-rule="evenodd" clip-rule="evenodd" d="M8.80652 1.5C5.0786 1.5 2.05652 4.52208 2.05652 8.25C2.05652 11.9779 5.0786 15 8.80652 15C12.5344 15 15.5565 11.9779 15.5565 8.25C15.5565 4.52208 12.5344 1.5 8.80652 1.5ZM0.556519 8.25C0.556519 3.69365 4.25017 0 8.80652 0C13.3629 0 17.0565 3.69365 17.0565 8.25C17.0565 12.8063 13.3629 16.5 8.80652 16.5C4.25017 16.5 0.556519 12.8063 0.556519 8.25ZM8.80652 5C9.22073 5 9.55652 5.33579 9.55652 5.75V8.875C9.55652 9.28921 9.22073 9.625 8.80652 9.625C8.3923 9.625 8.05652 9.28921 8.05652 8.875V5.75C8.05652 5.33579 8.3923 5 8.80652 5ZM8.05652 11.375C8.05652 10.9608 8.3923 10.625 8.80652 10.625H8.81277C9.22698 10.625 9.56277 10.9608 9.56277 11.375V11.3813C9.56277 11.7955 9.22698 12.1313 8.81277 12.1313H8.80652C8.3923 12.1313 8.05652 11.7955 8.05652 11.3813V11.375Z" fill="currentColor"/>
</svg>
