<svg width="18" height="17" viewBox="0 0 18 17" fill="none" xmlns="http://www.w3.org/2000/svg">
<path fill-rule="evenodd" clip-rule="evenodd" d="M8.93176 1.52464C5.20384 1.52464 2.18176 4.54672 2.18176 8.27464C2.18176 12.0026 5.20384 15.0246 8.93176 15.0246C12.6597 15.0246 15.6818 12.0026 15.6818 8.27464C15.6818 4.54672 12.6597 1.52464 8.93176 1.52464ZM0.681763 8.27464C0.681763 3.71829 4.37541 0.0246429 8.93176 0.0246429C13.4881 0.0246429 17.1818 3.71829 17.1818 8.27464C17.1818 12.831 13.4881 16.5246 8.93176 16.5246C4.37541 16.5246 0.681763 12.831 0.681763 8.27464ZM8.93176 5.02464C9.34598 5.02464 9.68176 5.36043 9.68176 5.77464V8.89964C9.68176 9.31386 9.34598 9.64964 8.93176 9.64964C8.51755 9.64964 8.18176 9.31386 8.18176 8.89964V5.77464C8.18176 5.36043 8.51755 5.02464 8.93176 5.02464ZM8.18176 11.3996C8.18176 10.9854 8.51755 10.6496 8.93176 10.6496H8.93801C9.35223 10.6496 9.68801 10.9854 9.68801 11.3996V11.4059C9.68801 11.8201 9.35223 12.1559 8.93801 12.1559H8.93176C8.51755 12.1559 8.18176 11.8201 8.18176 11.4059V11.3996Z" fill="currentColor"/>
</svg>
