<svg width="18" height="16" viewBox="0 0 18 16" fill="none" xmlns="http://www.w3.org/2000/svg">
<path fill-rule="evenodd" clip-rule="evenodd" d="M9.77348 2.06281C9.34055 1.3124 8.2575 1.3124 7.82456 2.06281L1.69596 12.6857C1.26327 13.4357 1.80455 14.3729 2.67042 14.3729H14.9276C15.7935 14.3729 16.3348 13.4357 15.9021 12.6857L9.77348 2.06281ZM6.52529 1.31323C7.53546 -0.437742 10.0626 -0.437743 11.0728 1.31323L17.2014 11.9361C18.211 13.6861 16.948 15.8729 14.9276 15.8729H2.67042C0.650065 15.8729 -0.612935 13.6861 0.39668 11.9361L6.52529 1.31323ZM8.79902 5.62292C9.21324 5.62292 9.54902 5.9587 9.54902 6.37292V9.49792C9.54902 9.91213 9.21324 10.2479 8.79902 10.2479C8.38481 10.2479 8.04902 9.91213 8.04902 9.49792V6.37292C8.04902 5.9587 8.38481 5.62292 8.79902 5.62292ZM8.04902 11.9979C8.04902 11.5837 8.38481 11.2479 8.79902 11.2479H8.80527C9.21949 11.2479 9.55527 11.5837 9.55527 11.9979V12.0042C9.55527 12.4184 9.21949 12.7542 8.80527 12.7542H8.79902C8.38481 12.7542 8.04902 12.4184 8.04902 12.0042V11.9979Z" fill="currentColor"/>
</svg>
