<svg width="18" height="17" viewBox="0 0 18 17" fill="none" xmlns="http://www.w3.org/2000/svg">
<path fill-rule="evenodd" clip-rule="evenodd" d="M9.89873 2.40101C9.46579 1.65059 8.38274 1.65059 7.94981 2.40101L1.8212 13.0239C1.38851 13.7739 1.9298 14.7111 2.79566 14.7111H15.0529C15.9187 14.7111 16.46 13.7739 16.0273 13.0239L9.89873 2.40101ZM6.65053 1.65142C7.66071 -0.0995467 10.1878 -0.0995474 11.198 1.65142L17.3266 12.2743C18.3362 14.0243 17.0732 16.2111 15.0529 16.2111H2.79566C0.775309 16.2111 -0.487691 14.0243 0.521924 12.2743L6.65053 1.65142ZM8.92427 5.96111C9.33848 5.96111 9.67427 6.2969 9.67427 6.71111V9.83611C9.67427 10.2503 9.33848 10.5861 8.92427 10.5861C8.51005 10.5861 8.17427 10.2503 8.17427 9.83611V6.71111C8.17427 6.2969 8.51005 5.96111 8.92427 5.96111ZM8.17427 12.3361C8.17427 11.9219 8.51005 11.5861 8.92427 11.5861H8.93052C9.34473 11.5861 9.68052 11.9219 9.68052 12.3361V12.3424C9.68052 12.7566 9.34473 13.0924 8.93052 13.0924H8.92427C8.51005 13.0924 8.17427 12.7566 8.17427 12.3424V12.3361Z" fill="currentColor"/>
</svg>
