<svg width="6" height="12" viewBox="0 0 6 12" fill="none" xmlns="http://www.w3.org/2000/svg">
<path d="M1.44 11.968V2.736C1.44 1.904 1.68 1.24267 2.16 0.752C2.65067 0.250667 3.344 0 4.24 0C4.57067 0 4.88533 0.0426668 5.184 0.128C5.49333 0.202667 5.75467 0.325333 5.968 0.496L5.504 1.664C5.344 1.536 5.16267 1.44 4.96 1.376C4.75733 1.30133 4.544 1.264 4.32 1.264C3.872 1.264 3.53067 1.392 3.296 1.648C3.06133 1.89333 2.944 2.26133 2.944 2.752V3.888L2.976 4.592V11.968H1.44ZM0 4.752V3.488H5.408V4.752H0Z" fill="#0F172A"/>
</svg>