<svg width="7" height="12" viewBox="0 0 7 12" fill="none" xmlns="http://www.w3.org/2000/svg">
<path d="M1.768 11.984V2.752C1.768 1.92 2.008 1.25867 2.488 0.767999C2.97867 0.266665 3.672 0.0159988 4.568 0.0159988C4.89867 0.0159988 5.21334 0.0586656 5.512 0.143999C5.82134 0.218665 6.08267 0.341332 6.296 0.511999L5.832 1.68C5.672 1.552 5.49067 1.456 5.288 1.392C5.08534 1.31733 4.872 1.28 4.648 1.28C4.2 1.28 3.85867 1.408 3.624 1.664C3.38934 1.90933 3.272 2.27733 3.272 2.768V3.904L3.304 4.608V11.984H1.768ZM0.328003 4.768V3.504H5.736V4.768H0.328003Z" fill="currentColor"/>
</svg>
