<svg width="21" height="20" viewBox="0 0 21 20" fill="none" xmlns="http://www.w3.org/2000/svg">
<path d="M14.88 0C13.0944 0 11.3807 0.848278 10.2621 2.18877C9.14353 0.848278 7.42976 0 5.64416 0C2.48343 0 0 2.53436 0 5.75991C0 9.71854 3.48912 12.9441 8.7741 17.8453L10.2621 19.2172L11.7501 17.8348C17.0351 12.9441 20.5242 9.71854 20.5242 5.75991C20.5242 2.53436 18.0408 0 14.88 0ZM10.3647 16.2848L10.2621 16.3896L10.1595 16.2848C5.27472 11.7712 2.05242 8.78648 2.05242 5.75991C2.05242 3.6654 3.59174 2.09451 5.64416 2.09451C7.22452 2.09451 8.76383 3.1313 9.30773 4.56604H11.2267C11.7604 3.1313 13.2997 2.09451 14.88 2.09451C16.9325 2.09451 18.4718 3.6654 18.4718 5.75991C18.4718 8.78648 15.2495 11.7712 10.3647 16.2848Z" fill="#323232"/>
</svg>