<svg width="19" height="21" viewBox="0 0 19 21" fill="none" xmlns="http://www.w3.org/2000/svg">
<path d="M17.12 13.46L15 15.59L12.88 13.46L11.46 14.88L13.59 17L11.46 19.12L12.88 20.54L15 18.41L17.12 20.54L18.54 19.12L16.41 17L18.54 14.88M2 0C0.89 0 0 0.89 0 2V18C0 19.11 0.89 20 2 20H9.81C9.28 19.09 9 18.05 9 17C9 16.67 9.03 16.33 9.08 16H2V14H9.81C10.27 13.2 10.91 12.5 11.68 12H2V10H14V11.08C14.33 11.03 14.67 11 15 11C15.34 11 15.67 11.03 16 11.08V6L10 0M9 1.5L14.5 7H9V1.5Z" fill="black"/>
</svg>