<svg width="18" height="21" viewBox="0 0 18 21" fill="none" xmlns="http://www.w3.org/2000/svg">
<path d="M2 0H10L16 6V10.17C15.5 10.06 15 10 14.5 10H2V12H9.81C9.26 12.58 8.81 13.25 8.5 14H2V16H8V16.5C8 17.79 8.38 19 9 20H2C0.89 20 0 19.1 0 18V2C0 0.89 0.89 0 2 0ZM9 7H14.5L9 1.5V7ZM14 12.5C15.11 12.5 16.11 12.95 16.83 13.67L18 12.5V16.5H14L15.77 14.73C15.32 14.28 14.69 14 14 14C12.62 14 11.5 15.12 11.5 16.5C11.5 17.88 12.62 19 14 19C14.82 19 15.54 18.61 16 18H17.71C17.12 19.47 15.68 20.5 14 20.5C11.79 20.5 10 18.71 10 16.5C10 14.29 11.79 12.5 14 12.5Z" fill="black"/>
</svg>