<svg width="20" height="22" viewBox="0 0 20 22" fill="none" xmlns="http://www.w3.org/2000/svg">
<path d="M10 0H2C1.46957 0 0.960859 0.210714 0.585786 0.585786C0.210714 0.960859 0 1.46957 0 2V18C0 18.5304 0.210714 19.0391 0.585786 19.4142C0.960859 19.7893 1.46957 20 2 20H9C8.59 19.75 8.2 19.44 7.86 19.1C7.53 18.77 7.25 18.4 7 18H2V2H9V7H14V8.18C14.71 8.34 15.39 8.61 16 9V6L10 0ZM16.31 16.9C17.64 14.79 17 12 14.91 10.68C12.8 9.35 10 10 8.69 12.08C7.35 14.19 8 16.97 10.09 18.3C11.55 19.23 13.41 19.23 14.88 18.32L18 21.39L19.39 20L16.31 16.9ZM12.5 17C11.837 17 11.2011 16.7366 10.7322 16.2678C10.2634 15.7989 10 15.163 10 14.5C10 13.837 10.2634 13.2011 10.7322 12.7322C11.2011 12.2634 11.837 12 12.5 12C13.163 12 13.7989 12.2634 14.2678 12.7322C14.7366 13.2011 15 13.837 15 14.5C15 15.163 14.7366 15.7989 14.2678 16.2678C13.7989 16.7366 13.163 17 12.5 17Z" fill="black"/>
</svg>