<svg width="18" height="15" viewBox="0 0 18 15" fill="none" xmlns="http://www.w3.org/2000/svg">
<path d="M4.2 5.8125C3 3.5125 4.7 0.8125 7.1 0.3125C10.2 -0.6875 14.7 0.7125 14.6 4.5125H11.6C11.6 4.2125 11.5 3.9125 11.5 3.7125C11.3 3.1125 10.9 2.8125 10.3 2.6125C9.5 2.3125 8.2 2.4125 7.5 2.9125C6 4.2125 7.4 5.5125 9 6.0125H4.4C4.3 5.9125 4.3 5.8125 4.2 5.8125ZM18 9.0125V7.0125H0V9.0125H9.6C9.8 9.1125 10 9.1125 10.2 9.2125C10.8 9.5125 11.3 9.7125 11.5 10.3125C11.6 10.7125 11.7 11.2125 11.5 11.6125C11.3 12.1125 10.9 12.3125 10.4 12.5125C8.6 13.0125 6.4 12.3125 6.5 10.1125H3.5C3.4 12.7125 5.6 14.5125 8 14.8125C11.8 15.6125 16.3 13.2125 14.3 8.9125L18 9.0125Z" fill="black"/>
</svg>