<svg width="10" height="12" viewBox="0 0 10 12" fill="none" xmlns="http://www.w3.org/2000/svg">
<path d="M4.79202 11.88C4.01335 11.88 3.25602 11.768 2.52002 11.544C1.79469 11.3307 1.20269 11.0213 0.74402 10.616L1.48002 9.432C1.87469 9.77334 2.36002 10.04 2.93602 10.232C3.51202 10.4347 4.11469 10.536 4.74402 10.536C5.74669 10.536 6.48269 10.3013 6.95202 9.832C7.42135 9.36267 7.65602 8.648 7.65602 7.688V5.896L7.81602 4.216L7.73602 2.52V0.200003H9.19202V7.528C9.19202 9.02134 8.81869 10.12 8.07202 10.824C7.32535 11.528 6.23202 11.88 4.79202 11.88ZM4.60002 8.328C3.77869 8.328 3.04269 8.15734 2.39202 7.816C1.75202 7.464 1.24002 6.97867 0.856021 6.36C0.482687 5.74134 0.296021 5.02667 0.296021 4.216C0.296021 3.39467 0.482687 2.68 0.856021 2.072C1.24002 1.45334 1.75202 0.973336 2.39202 0.632003C3.04269 0.290669 3.77869 0.120003 4.60002 0.120003C5.32535 0.120003 5.98669 0.269336 6.58402 0.568003C7.18135 0.856003 7.65602 1.304 8.00802 1.912C8.37069 2.52 8.55202 3.288 8.55202 4.216C8.55202 5.13334 8.37069 5.896 8.00802 6.504C7.65602 7.112 7.18135 7.57067 6.58402 7.88C5.98669 8.17867 5.32535 8.328 4.60002 8.328ZM4.77602 6.984C5.34135 6.984 5.84269 6.86667 6.28002 6.632C6.71735 6.39734 7.05869 6.072 7.30402 5.656C7.56002 5.24 7.68802 4.76 7.68802 4.216C7.68802 3.672 7.56002 3.192 7.30402 2.776C7.05869 2.36 6.71735 2.04 6.28002 1.816C5.84269 1.58134 5.34135 1.464 4.77602 1.464C4.21069 1.464 3.70402 1.58134 3.25602 1.816C2.81869 2.04 2.47202 2.36 2.21602 2.776C1.97069 3.192 1.84802 3.672 1.84802 4.216C1.84802 4.76 1.97069 5.24 2.21602 5.656C2.47202 6.072 2.81869 6.39734 3.25602 6.632C3.70402 6.86667 4.21069 6.984 4.77602 6.984Z" fill="currentColor"/>
</svg>
