<svg width="14" height="20" viewBox="0 0 14 20" fill="none" xmlns="http://www.w3.org/2000/svg">
<path d="M13.1894 4C14.1994 6.17 13.9694 8.73 12.8594 10.81C11.9194 12.5 10.5694 13.93 9.41939 15.5C8.91939 16.2 8.41939 16.95 8.04939 17.76C7.91939 18.03 7.82939 18.31 7.72939 18.59C7.62939 18.87 7.53939 19.15 7.44939 19.43C7.35939 19.69 7.24939 20 6.91939 20C6.52939 20 6.41939 19.56 6.33939 19.26C6.09939 18.53 5.85939 17.83 5.48939 17.16C5.06939 16.37 4.53939 15.64 3.99939 14.93L13.1894 4ZM4.03939 6.42L0.73939 10.34C1.34939 11.63 2.25939 12.73 3.12939 13.83C3.33939 14.08 3.54939 14.34 3.74939 14.61L7.91939 9.67L7.87939 9.68C6.41939 10.18 4.79939 9.44 4.21939 8C4.13939 7.83 4.07939 7.63 4.03939 7.43C3.98939 7.06 3.97939 6.79 4.03939 6.43V6.42ZM1.49939 2.62L1.48939 2.63C-0.13061 4.68 -0.41061 7.53 0.55939 9.94L4.54939 5.2L4.49939 5.15L1.49939 2.62ZM9.13939 0.36L5.91939 4.17L5.95939 4.16C7.29939 3.7 8.79939 4.28 9.47939 5.5C9.62939 5.78 9.74939 6.08 9.78939 6.38C9.84939 6.76 9.86939 7.03 9.79939 7.4V7.41L12.9994 3.61C12.1594 2.09 10.7894 0.93 9.14939 0.37L9.13939 0.36ZM4.80939 4.89L8.71939 0.24L8.67939 0.23C8.09939 0.08 7.50939 0 6.91939 0C4.94939 0 3.08939 0.85 1.76939 2.31L1.74939 2.32L4.80939 4.89Z" fill="black"/>
</svg>