<svg width="9" height="12" viewBox="0 0 9 12" fill="none" xmlns="http://www.w3.org/2000/svg">
<path d="M4.72002 3.376C5.41335 3.376 6.02135 3.50934 6.54402 3.776C7.07735 4.04267 7.49335 4.448 7.79202 4.992C8.09068 5.536 8.24002 6.224 8.24002 7.056V11.936H6.70402V7.232C6.70402 6.41067 6.50135 5.792 6.09602 5.376C5.70135 4.96 5.14135 4.752 4.41602 4.752C3.87202 4.752 3.39735 4.85867 2.99202 5.072C2.58668 5.28534 2.27202 5.6 2.04802 6.016C1.83468 6.432 1.72802 6.94934 1.72802 7.568V11.936H0.192017V0.064003H1.72802V5.744L1.42402 5.136C1.70135 4.58134 2.12802 4.14934 2.70402 3.84C3.28002 3.53067 3.95202 3.376 4.72002 3.376Z" fill="currentColor"/>
</svg>
