<svg width="22" height="21" viewBox="0 0 22 21" fill="none" xmlns="http://www.w3.org/2000/svg">
<path d="M20.325 16.15L14.175 10H18.325V9C18.325 7.03333 17.6417 5.375 16.275 4.025C14.9083 2.675 13.2583 2 11.325 2C10.5917 2 9.89583 2.10417 9.2375 2.3125C8.57917 2.52083 7.975 2.81667 7.425 3.2L5.975 1.8C6.725 1.21667 7.55417 0.770833 8.4625 0.4625C9.37083 0.154167 10.325 0 11.325 0C12.5583 0 13.7208 0.233333 14.8125 0.7C15.9042 1.16667 16.8583 1.80833 17.675 2.625C18.4917 3.44167 19.1375 4.39583 19.6125 5.4875C20.0875 6.57917 20.325 7.75 20.325 9V16.15ZM11.325 21V19H17.5L16.5 18H14.325V15.825L4.85 6.35C4.7 6.75 4.575 7.17917 4.475 7.6375C4.375 8.09583 4.325 8.55 4.325 9V10H8.325V18H4.325C3.775 18 3.30417 17.8042 2.9125 17.4125C2.52083 17.0208 2.325 16.55 2.325 16V9C2.325 8.25 2.4125 7.525 2.5875 6.825C2.7625 6.125 3.01667 5.45833 3.35 4.825L0 1.5L1.425 0.1L21.2 19.9V21H11.325Z" fill="#1C1B1F"/>
</svg>