<svg width="17" height="17" viewBox="0 0 17 17" fill="none" xmlns="http://www.w3.org/2000/svg">
<path fill-rule="evenodd" clip-rule="evenodd" d="M7.96529 0.567536C8.35581 0.177012 8.98898 0.177012 9.3795 0.567536L16.3795 7.56754C16.6655 7.85353 16.7511 8.28365 16.5963 8.65733C16.4415 9.031 16.0769 9.27464 15.6724 9.27464H14.6724V15.2746C14.6724 15.8269 14.2247 16.2746 13.6724 16.2746H11.6724C11.1201 16.2746 10.6724 15.8269 10.6724 15.2746V12.2746C10.6724 11.7224 10.2247 11.2746 9.67239 11.2746H7.67239C7.12011 11.2746 6.67239 11.7224 6.67239 12.2746V15.2746C6.67239 15.8269 6.22468 16.2746 5.67239 16.2746H3.67239C3.12011 16.2746 2.67239 15.8269 2.67239 15.2746V9.27464H1.67239C1.26793 9.27464 0.903294 9.031 0.748513 8.65733C0.593732 8.28365 0.679288 7.85353 0.965286 7.56754L7.96529 0.567536Z" fill="currentColor"/>
</svg>
