<svg width="21" height="21" viewBox="0 0 21 21" fill="none" xmlns="http://www.w3.org/2000/svg">
<path d="M21 19.73L1.28 0L0 1.27L2.95 4.22C1.66 5.9 0.89 7.99 0.89 10.27C0.89 15.77 5.39 20.27 10.89 20.27C13.17 20.27 15.26 19.5 16.94 18.21L19.73 21L21 19.73ZM7.83 9.1H7.25L7.39 8.68L7.83 9.1ZM5.06 9.77H8.5L9.17 10.44H5.06V9.77ZM13.81 15.6C12.62 15.6 11.66 14.69 11.56 13.53C10.93 13.13 10.42 13.39 10.22 13.52C10.13 14.69 9.17 15.6 7.97 15.6C6.72 15.6 5.71 14.59 5.71 13.34C5.71 12.09 6.72 11.08 7.97 11.08C9.04 11.08 9.94 11.82 10.18 12.82C10.54 12.67 11.02 12.61 11.54 12.81L12.2 13.47C12.26 14.27 12.89 14.88 13.67 14.94L14.27 15.54C14.12 15.57 13.97 15.6 13.81 15.6ZM8.83 5.01L5.61 1.77C7.14 0.83 8.95 0.27 10.89 0.27C16.39 0.27 20.89 4.77 20.89 10.27C20.89 12.21 20.33 14.02 19.39 15.55L14.26 10.44H16.72V9.77H13.59L12.92 9.1H14.53L13.05 5.19L13.04 5.16C12.89 4.86 12.56 4.7 12.24 4.8L10.89 5.27L9.54 4.8L9.5 4.77C9.25 4.72 8.99 4.82 8.83 5.01ZM9.59 13.34C9.59 14.23 8.89 14.96 7.97 14.96C7.08 14.96 6.35 14.23 6.35 13.34C6.35 12.45 7.08 11.72 7.97 11.72C8.89 11.72 9.59 12.45 9.59 13.34Z" fill="black"/>
</svg>