<svg width="21" height="21" viewBox="0 0 21 21" fill="none" xmlns="http://www.w3.org/2000/svg">
<path d="M21 19.73L1.28 0L0 1.27L5.2 6.47L4.89 7.27H6L7.5 8.77H0.89V10.27H9L12.39 13.64C12.27 13.88 12.19 14.12 12.13 14.37C11.18 13.96 10.3 14.07 9.65 14.36C9.24 12.58 7.68 11.27 5.83 11.27C3.66 11.27 1.89 13.06 1.89 15.27C1.89 17.48 3.66 19.27 5.83 19.27C7.89 19.27 9.57 17.65 9.73 15.59C10.07 15.35 10.96 14.9 12.05 15.61C12.23 17.66 13.89 19.27 15.95 19.27C16.55 19.27 17.11 19.13 17.61 18.88L19.73 21L21 19.73ZM5.83 18.13C4.27 18.13 3.02 16.85 3.02 15.27C3.02 13.69 4.28 12.41 5.83 12.41C7.39 12.41 8.64 13.69 8.64 15.27C8.64 16.85 7.39 18.13 5.83 18.13ZM15.95 18.13C14.39 18.13 13.14 16.85 13.14 15.27C13.14 15.01 13.18 14.77 13.25 14.52L16.73 18C16.48 18.08 16.23 18.13 15.95 18.13ZM20.89 10.27H14.09L12.59 8.77H20.89V10.27ZM15.95 11.27C18.12 11.27 19.89 13.06 19.89 15.27C19.89 15.52 19.86 15.77 19.82 16L18.73 14.91C18.57 13.61 17.55 12.59 16.27 12.44L15.18 11.36C15.43 11.3 15.69 11.27 15.95 11.27ZM11.09 7.27L6.61 2.77L7.32 0.95C7.52 0.44 8.08 0.16 8.61 0.31L8.66 0.32L10.89 1.06L13.11 0.32C13.64 0.15 14.21 0.41 14.43 0.9L14.45 0.95L16.89 7.27H11.09Z" fill="black"/>
</svg>