<svg width="20" height="20" viewBox="0 0 20 20" fill="none" xmlns="http://www.w3.org/2000/svg">
<path d="M10 0C15.5 0 20 4.5 20 10C20 15.5 15.5 20 10 20C4.5 20 0 15.5 0 10C0 4.5 4.5 0 10 0ZM12.92 10.81C11.84 10.81 10.95 11.56 10.71 12.56C10.17 12.33 9.66 12.39 9.29 12.55C9.05 11.55 8.15 10.81 7.08 10.81C5.83 10.81 4.82 11.82 4.82 13.07C4.82 14.32 5.83 15.33 7.08 15.33C8.28 15.33 9.24 14.42 9.33 13.25C9.53 13.12 10.04 12.86 10.67 13.26C10.77 14.42 11.73 15.33 12.92 15.33C14.17 15.33 15.18 14.32 15.18 13.07C15.18 11.82 14.17 10.81 12.92 10.81ZM7.08 11.45C8 11.45 8.7 12.18 8.7 13.07C8.7 13.96 8 14.69 7.08 14.69C6.19 14.69 5.46 13.96 5.46 13.07C5.46 12.18 6.19 11.45 7.08 11.45ZM12.92 11.45C13.81 11.45 14.54 12.18 14.54 13.07C14.54 13.96 13.81 14.69 12.92 14.69C12 14.69 11.3 13.96 11.3 13.07C11.3 12.18 12 11.45 12.92 11.45ZM15.83 9.5H4.17V10.17H15.83V9.5ZM12.15 4.89C12 4.59 11.67 4.43 11.35 4.53L10 5L8.65 4.53L8.61 4.5C8.29 4.43 7.95 4.61 7.84 4.92L6.36 8.83H13.64L12.16 4.92L12.15 4.89Z" fill="black"/>
</svg>