<svg width="17" height="17" viewBox="0 0 17 17" fill="none" xmlns="http://www.w3.org/2000/svg">
<path d="M16.6724 8.27464C16.6724 12.6929 13.0906 16.2746 8.67236 16.2746C4.25409 16.2746 0.672363 12.6929 0.672363 8.27464C0.672363 3.85637 4.25409 0.274643 8.67236 0.274643C13.0906 0.274643 16.6724 3.85637 16.6724 8.27464ZM9.67236 4.27464C9.67236 3.72236 9.22465 3.27464 8.67236 3.27464C8.12008 3.27464 7.67236 3.72236 7.67236 4.27464C7.67236 4.82693 8.12008 5.27464 8.67236 5.27464C9.22465 5.27464 9.67236 4.82693 9.67236 4.27464ZM7.67236 7.27464C7.25815 7.27464 6.92236 7.61043 6.92236 8.02464C6.92236 8.43886 7.25815 8.77464 7.67236 8.77464H7.92575C8.08568 8.77464 8.20449 8.92275 8.16979 9.07888L7.71065 11.145C7.46779 12.2379 8.29942 13.2746 9.41898 13.2746H9.67236C10.0866 13.2746 10.4224 12.9389 10.4224 12.5246C10.4224 12.1104 10.0866 11.7746 9.67236 11.7746H9.41898C9.25904 11.7746 9.14024 11.6265 9.17493 11.4704L9.63407 9.40427C9.87694 8.31137 9.04531 7.27464 7.92575 7.27464H7.67236Z" fill="currentColor"/>
</svg>
