<svg width="21" height="20" viewBox="0 0 21 20" fill="none" xmlns="http://www.w3.org/2000/svg">
<path d="M2 20C1.45 20 0.979167 19.8042 0.5875 19.4125C0.195833 19.0208 0 18.55 0 18V2C0 1.45 0.195833 0.979167 0.5875 0.5875C0.979167 0.195833 1.45 0 2 0H11C11.55 0 12.0208 0.195833 12.4125 0.5875C12.8042 0.979167 13 1.45 13 2V18C13 18.55 12.8042 19.0208 12.4125 19.4125C12.0208 19.8042 11.55 20 11 20H2ZM2 8.525C2.3 8.34167 2.61667 8.20833 2.95 8.125C3.28333 8.04167 3.63333 8 4 8H9C9.36667 8 9.71667 8.04167 10.05 8.125C10.3833 8.20833 10.7 8.34167 11 8.525V2H2V8.525ZM6.5 7C5.95 7 5.47917 6.80417 5.0875 6.4125C4.69583 6.02083 4.5 5.55 4.5 5C4.5 4.45 4.69583 3.97917 5.0875 3.5875C5.47917 3.19583 5.95 3 6.5 3C7.05 3 7.52083 3.19583 7.9125 3.5875C8.30417 3.97917 8.5 4.45 8.5 5C8.5 5.55 8.30417 6.02083 7.9125 6.4125C7.52083 6.80417 7.05 7 6.5 7ZM17.5 13.5L14 10L17.5 6.5L18.9 7.9L17.825 9H21V11H17.825L18.9 12.1L17.5 13.5ZM2 18H11V12C11 11.45 10.8042 10.9792 10.4125 10.5875C10.0208 10.1958 9.55 10 9 10H4C3.45 10 2.97917 10.1958 2.5875 10.5875C2.19583 10.9792 2 11.45 2 12V18ZM5.5 17H7.5V15H9.5V13H7.5V11H5.5V13H3.5V15H5.5V17Z" fill="#1C1B1F"/>
</svg>