<svg width="6" height="16" viewBox="0 0 6 16" fill="none" xmlns="http://www.w3.org/2000/svg">
<path d="M2.16007 15.656C1.80807 15.656 1.47207 15.6133 1.15207 15.528C0.821402 15.4427 0.544068 15.3147 0.320068 15.144L0.816068 13.96C1.13607 14.2267 1.55207 14.36 2.06407 14.36C2.4694 14.36 2.77874 14.232 2.99207 13.976C3.21607 13.7307 3.32807 13.3627 3.32807 12.872V3.976H4.86407V12.84C4.86407 13.704 4.6294 14.3867 4.16007 14.888C3.7014 15.4 3.03474 15.656 2.16007 15.656ZM4.09607 2.344C3.7974 2.344 3.54674 2.248 3.34407 2.056C3.15207 1.864 3.05607 1.62934 3.05607 1.352C3.05607 1.064 3.15207 0.824002 3.34407 0.632002C3.54674 0.440002 3.7974 0.344002 4.09607 0.344002C4.39474 0.344002 4.64007 0.440002 4.83207 0.632002C5.03474 0.813335 5.13607 1.04267 5.13607 1.32C5.13607 1.608 5.04007 1.85334 4.84807 2.056C4.65607 2.248 4.4054 2.344 4.09607 2.344Z" fill="currentColor"/>
</svg>
