<svg width="18" height="19" viewBox="0 0 18 19" fill="none" xmlns="http://www.w3.org/2000/svg">
<path d="M4.5 0C2 0 0 2 0 4.5C0 7 2 9 4.5 9C6.5 9 8.1 7.8 8.7 6H12V9H15V6H18V3H8.7C8.1 1.2 6.5 0 4.5 0ZM4.5 3C5.3 3 6 3.7 6 4.5C6 5.3 5.3 6 4.5 6C3.7 6 3 5.3 3 4.5C3 3.7 3.7 3 4.5 3ZM7 11C5.4 11 3 12.1 3 15C3 17.9 5.4 19 7 19H8V17H7C6.7 17 5 16.9 5 15C5 13.2 6.5 13 7 13H8V11M10 11V13H11C11.3 13 13 13.1 13 15C13 16.8 11.5 17 11 17H10V19H11C12.6 19 15 17.9 15 15C15 12.1 12.6 11 11 11M6 14V16H12V14H6Z" fill="black"/>
</svg>