<svg width="21" height="19" viewBox="0 0 21 19" fill="none" xmlns="http://www.w3.org/2000/svg">
<path d="M0 1.27L1.47 2.74C1.18 3.08 1 3.5 1 4V14C1 14.5304 1.21071 15.0391 1.58579 15.4142C1.96086 15.7893 2.46957 16 3 16H14.73L17.73 19L19 17.72L1.28 0L0 1.27ZM3 14V4.27L4 5.27V7H5.73L7 8.27V10H8.73L9.73 11H7V13H11.73L12.73 14H3ZM4 8H6V10H4V8ZM16 8H18V10H16V8ZM18 7H16V5H18V7ZM13 8H15V10H13.83L13 9.17V8ZM12 7H10.83L10 6.17V5H12V7ZM21 4V14C21 14.86 20.45 15.58 19.7 15.87L17.83 14H19V4H7.83L5.83 2H19C19.5304 2 20.0391 2.21071 20.4142 2.58579C20.7893 2.96086 21 3.46957 21 4ZM15 7H13V5H15V7Z" fill="black"/>
</svg>