<svg width="21" height="19" viewBox="0 0 21 19" fill="none" xmlns="http://www.w3.org/2000/svg">
<path d="M0 1.27L1.28 0L19 17.72L17.73 19L14.73 16H3C1.89 16 1 15.1 1 14V4C1 3.5 1.18 3.07 1.46 2.73L0 1.27ZM18 7V5H16V7H18ZM18 10V8H16V10H18ZM15 7V5H13V7H15ZM15 10V8H13V9.18L10.82 7H12V5H10V6.18L5.82 2H19C19.5304 2 20.0391 2.21071 20.4142 2.58579C20.7893 2.96086 21 3.46957 21 4V14C21 14.86 20.46 15.59 19.7 15.87L13.82 10H15ZM7 12V14H12.73L10.73 12H7ZM4 7H5.73L4 5.27V7ZM6 10V8H4V10H6ZM7 10H8.73L7 8.27V10Z" fill="black"/>
</svg>