<svg width="21" height="19" viewBox="0 0 21 19" fill="none" xmlns="http://www.w3.org/2000/svg">
<path d="M11.4012 3.89579L10.8163 6.92237C10.6931 7.54025 10.8573 8.17908 11.2473 8.66081C11.6372 9.14255 12.2119 9.42531 12.8276 9.42531H18.4718V10.5563L15.8344 16.7561H7.53238C7.34767 16.7561 7.18347 16.5885 7.18347 16.4V8.18955L11.4012 3.89579ZM12.3145 0L5.73652 6.71292C5.34656 7.11087 5.13105 7.64497 5.13105 8.20002V16.4C5.13105 17.751 6.20857 18.8506 7.53238 18.8506H15.8447C16.5733 18.8506 17.2403 18.4631 17.6098 17.8348L20.3497 11.3942C20.4626 11.1323 20.5242 10.8496 20.5242 10.5563V9.42531C20.5242 8.27333 19.6006 7.3308 18.4718 7.3308H12.8276L13.7717 2.46105C13.8231 2.23066 13.7923 1.97932 13.6896 1.76986C13.4536 1.2986 13.156 0.869223 12.7866 0.492211L12.3145 0ZM2.05242 7.3308H0V18.8506H2.05242C2.61684 18.8506 3.07863 18.3794 3.07863 17.8034V8.37805C3.07863 7.80206 2.61684 7.3308 2.05242 7.3308Z" fill="#323232"/>
</svg>