<svg width="23" height="21" viewBox="0 0 23 21" fill="none" xmlns="http://www.w3.org/2000/svg">
<path d="M0 20.9451H4.10484V8.37805H0V20.9451ZM22.5766 9.42531C22.5766 8.27333 21.653 7.3308 20.5242 7.3308H14.0488L15.0237 2.54483L15.0545 2.20971C15.0545 1.78034 14.88 1.38238 14.603 1.09962L13.5152 0L6.76273 6.90142C6.38303 7.27843 6.15726 7.80206 6.15726 8.37805V18.8506C6.15726 20.0026 7.08085 20.9451 8.20968 20.9451H17.4456C18.2973 20.9451 19.0259 20.4215 19.3338 19.6675L22.433 12.2843C22.5253 12.0435 22.5766 11.7921 22.5766 11.5198V9.42531Z" fill="#323232"/>
</svg>