<svg width="17" height="16" viewBox="0 0 17 16" fill="none" xmlns="http://www.w3.org/2000/svg">
<path d="M11.107 2.23223C12.0833 1.25592 13.6662 1.25592 14.6425 2.23223C15.6188 3.20854 15.6188 4.79146 14.6425 5.76777L13.4182 6.9921C13.1253 7.28499 13.1253 7.75987 13.4182 8.05276C13.7111 8.34565 14.186 8.34565 14.4788 8.05276L15.7032 6.82843C17.2653 5.26633 17.2653 2.73367 15.7032 1.17157C14.1411 -0.390524 11.6084 -0.390524 10.0463 1.17157L7.04633 4.17157C5.48423 5.73367 5.48423 8.26633 7.04633 9.82843C7.11925 9.90134 7.19439 9.97094 7.27156 10.0372C7.58582 10.307 8.05933 10.271 8.32916 9.95675C8.599 9.64248 8.56298 9.16898 8.24871 8.89915C8.20032 8.85759 8.15303 8.81381 8.10699 8.76777C7.13068 7.79145 7.13068 6.20854 8.10699 5.23223L11.107 2.23223Z" fill="currentColor"/>
<path d="M10.478 5.96278C10.1637 5.69295 9.69018 5.72897 9.42035 6.04324C9.15051 6.3575 9.18653 6.83101 9.5008 7.10084C9.5492 7.14239 9.59648 7.18618 9.64252 7.23222C10.6188 8.20853 10.6188 9.79145 9.64252 10.7678L6.64252 13.7678C5.66621 14.7441 4.0833 14.7441 3.10699 13.7678C2.13068 12.7914 2.13068 11.2085 3.10699 10.2322L4.33132 9.00789C4.62422 8.71499 4.62422 8.24012 4.33132 7.94723C4.03843 7.65433 3.56356 7.65433 3.27066 7.94723L2.04633 9.17156C0.484231 10.7337 0.484232 13.2663 2.04633 14.8284C3.60843 16.3905 6.14109 16.3905 7.70318 14.8284L10.7032 11.8284C12.2653 10.2663 12.2653 7.73366 10.7032 6.17156C10.6303 6.09864 10.5551 6.02904 10.478 5.96278Z" fill="currentColor"/>
</svg>
