<svg width="16" height="17" viewBox="0 0 16 17" fill="none" xmlns="http://www.w3.org/2000/svg">
<path d="M10.2322 2.50689C11.2085 1.53058 12.7915 1.53058 13.7678 2.50689C14.7441 3.4832 14.7441 5.06611 13.7678 6.04243L12.5434 7.26676C12.2505 7.55965 12.2505 8.03453 12.5434 8.32742C12.8363 8.62031 13.3112 8.62031 13.6041 8.32742L14.8284 7.10309C16.3905 5.54099 16.3905 3.00833 14.8284 1.44623C13.2663 -0.115866 10.7337 -0.115866 9.17157 1.44623L6.17157 4.44623C4.60948 6.00833 4.60948 8.54099 6.17157 10.1031C6.24449 10.176 6.31963 10.2456 6.3968 10.3119C6.71107 10.5817 7.18457 10.5457 7.45441 10.2314C7.72424 9.91714 7.68822 9.44364 7.37395 9.1738C7.32556 9.13225 7.27828 9.08847 7.23223 9.04242C6.25592 8.06611 6.25592 6.4832 7.23223 5.50689L10.2322 2.50689Z" fill="currentColor"/>
<path d="M9.6032 6.23744C9.28893 5.96761 8.81542 6.00363 8.54559 6.3179C8.27576 6.63216 8.31178 7.10567 8.62605 7.3755C8.67444 7.41705 8.72172 7.46084 8.76777 7.50688C9.74408 8.48319 9.74408 10.0661 8.76777 11.0424L5.76777 14.0424C4.79146 15.0187 3.20854 15.0187 2.23223 14.0424C1.25592 13.0661 1.25592 11.4832 2.23223 10.5069L3.45657 9.28255C3.74946 8.98965 3.74946 8.51478 3.45657 8.22189C3.16367 7.92899 2.6888 7.92899 2.39591 8.22189L1.17157 9.44622C-0.390524 11.0083 -0.390524 13.541 1.17157 15.1031C2.73367 16.6652 5.26633 16.6652 6.82843 15.1031L9.82843 12.1031C11.3905 10.541 11.3905 8.00832 9.82843 6.44622C9.75551 6.3733 9.68037 6.3037 9.6032 6.23744Z" fill="currentColor"/>
</svg>
