<svg width="22" height="22" viewBox="0 0 22 22" fill="none" xmlns="http://www.w3.org/2000/svg">
<path d="M13.325 8C13.325 7.45 13.1292 6.97917 12.7375 6.5875C12.3458 6.19583 11.875 6 11.325 6C11.1583 6 11 6.01667 10.85 6.05C10.7 6.08333 10.5583 6.14167 10.425 6.225L13.1 8.9C13.1833 8.76667 13.2417 8.625 13.275 8.475C13.3083 8.325 13.325 8.16667 13.325 8ZM17.525 13.325L16.075 11.875C16.4917 11.175 16.8042 10.5208 17.0125 9.9125C17.2208 9.30417 17.325 8.73333 17.325 8.2C17.325 6.38333 16.7458 4.89583 15.5875 3.7375C14.4292 2.57917 13.0083 2 11.325 2C10.5917 2 9.90417 2.1125 9.2625 2.3375C8.62083 2.5625 8.04167 2.89167 7.525 3.325L6.1 1.9C6.81667 1.28333 7.625 0.8125 8.525 0.4875C9.425 0.1625 10.3583 0 11.325 0C13.4417 0 15.3042 0.741667 16.9125 2.225C18.5208 3.70833 19.325 5.7 19.325 8.2C19.325 9 19.175 9.82083 18.875 10.6625C18.575 11.5042 18.125 12.3917 17.525 13.325ZM13.6 15.1L5.425 6.925C5.39167 7.125 5.36667 7.33333 5.35 7.55C5.33333 7.76667 5.325 7.98333 5.325 8.2C5.325 9.38333 5.81667 10.7375 6.8 12.2625C7.78333 13.7875 9.29167 15.4833 11.325 17.35C11.7583 16.9667 12.1625 16.5875 12.5375 16.2125C12.9125 15.8375 13.2667 15.4667 13.6 15.1ZM19.8 21.3L15 16.5C14.4667 17.0667 13.9 17.6417 13.3 18.225C12.7 18.8083 12.0417 19.4 11.325 20C8.64167 17.7167 6.6375 15.5958 5.3125 13.6375C3.9875 11.6792 3.325 9.86667 3.325 8.2C3.325 7.66667 3.36667 7.15833 3.45 6.675C3.53333 6.19167 3.65 5.73333 3.8 5.3L0 1.5L1.425 0.075L21.225 19.875L19.8 21.3Z" fill="#1C1B1F"/>
</svg>