<svg width="19" height="21" viewBox="0 0 19 21" fill="none" xmlns="http://www.w3.org/2000/svg">
<path d="M8 20.95C5.31667 18.6667 3.3125 16.5458 1.9875 14.5875C0.6625 12.6292 0 10.8167 0 9.15C0 6.65 0.804167 4.65833 2.4125 3.175C4.02083 1.69167 5.88333 0.95 8 0.95C8.16667 0.95 8.32917 0.954167 8.4875 0.9625C8.64583 0.970833 8.81667 0.991667 9 1.025V3.05C8.83333 3.01667 8.66667 2.99167 8.5 2.975C8.33333 2.95833 8.16667 2.95 8 2.95C6.31667 2.95 4.89583 3.52917 3.7375 4.6875C2.57917 5.84583 2 7.33333 2 9.15C2 10.3333 2.49167 11.6875 3.475 13.2125C4.45833 14.7375 5.96667 16.4333 8 18.3C10.0333 16.4333 11.5417 14.7375 12.525 13.2125C13.5083 11.6875 14 10.3333 14 9.15C14 9.11667 13.9958 9.08333 13.9875 9.05C13.9792 9.01667 13.975 8.98333 13.975 8.95H15.975C15.975 8.98333 15.9792 9.01667 15.9875 9.05C15.9958 9.08333 16 9.11667 16 9.15C16 10.8167 15.3375 12.6292 14.0125 14.5875C12.6875 16.5458 10.6833 18.6667 8 20.95ZM12.875 7L14.975 4.9L17.075 7L18.475 5.6L16.375 3.5L18.475 1.4L17.075 0L14.975 2.1L12.875 0L11.475 1.4L13.575 3.5L11.475 5.6L12.875 7ZM8 10.95C8.55 10.95 9.02083 10.7542 9.4125 10.3625C9.80417 9.97083 10 9.5 10 8.95C10 8.4 9.80417 7.92917 9.4125 7.5375C9.02083 7.14583 8.55 6.95 8 6.95C7.45 6.95 6.97917 7.14583 6.5875 7.5375C6.19583 7.92917 6 8.4 6 8.95C6 9.5 6.19583 9.97083 6.5875 10.3625C6.97917 10.7542 7.45 10.95 8 10.95Z" fill="#1C1B1F"/>
</svg>