<svg width="19" height="21" viewBox="0 0 19 21" fill="none" xmlns="http://www.w3.org/2000/svg">
<path d="M8 10.95C8.55 10.95 9.02083 10.7542 9.4125 10.3625C9.80417 9.97083 10 9.5 10 8.95C10 8.4 9.80417 7.92917 9.4125 7.5375C9.02083 7.14583 8.55 6.95 8 6.95C7.45 6.95 6.97917 7.14583 6.5875 7.5375C6.19583 7.92917 6 8.4 6 8.95C6 9.5 6.19583 9.97083 6.5875 10.3625C6.97917 10.7542 7.45 10.95 8 10.95ZM8 20.95C5.31667 18.6667 3.3125 16.5458 1.9875 14.5875C0.6625 12.6292 0 10.8167 0 9.15C0 6.65 0.804167 4.65833 2.4125 3.175C4.02083 1.69167 5.88333 0.95 8 0.95C8.28333 0.95 8.575 0.966667 8.875 1C9.175 1.03333 9.46667 1.06667 9.75 1.1L12.15 3.5L10.05 5.6L12.875 8.425L14.975 6.325L15.75 7.125C15.8167 7.45833 15.875 7.79167 15.925 8.125C15.975 8.45833 16 8.8 16 9.15C16 10.8167 15.3375 12.6292 14.0125 14.5875C12.6875 16.5458 10.6833 18.6667 8 20.95ZM12.875 7L11.475 5.6L13.575 3.5L11.475 1.4L12.875 0L14.975 2.1L17.075 0L18.475 1.4L16.375 3.5L18.475 5.6L17.075 7L14.975 4.9L12.875 7Z" fill="#1C1B1F"/>
</svg>