<svg width="17" height="17" viewBox="0 0 17 17" fill="none" xmlns="http://www.w3.org/2000/svg">
<path fill-rule="evenodd" clip-rule="evenodd" d="M0.853882 2.52464C0.853882 1.282 1.86124 0.274643 3.10388 0.274643H8.60388C9.84652 0.274643 10.8539 1.282 10.8539 2.52464V4.52464C10.8539 4.93886 10.5181 5.27464 10.1039 5.27464C9.68967 5.27464 9.35388 4.93886 9.35388 4.52464V2.52464C9.35388 2.11043 9.0181 1.77464 8.60388 1.77464H3.10388C2.68967 1.77464 2.35388 2.11043 2.35388 2.52464V14.0246C2.35388 14.4389 2.68967 14.7746 3.10388 14.7746H8.60388C9.0181 14.7746 9.35388 14.4389 9.35388 14.0246V12.0246C9.35388 11.6104 9.68967 11.2746 10.1039 11.2746C10.5181 11.2746 10.8539 11.6104 10.8539 12.0246V14.0246C10.8539 15.2673 9.84652 16.2746 8.60388 16.2746H3.10388C1.86124 16.2746 0.853882 15.2673 0.853882 14.0246V2.52464Z" fill="currentColor"/>
<path fill-rule="evenodd" clip-rule="evenodd" d="M16.8539 8.27464C16.8539 7.86043 16.5181 7.52464 16.1039 7.52464H6.55835L7.60561 6.58211C7.91349 6.30502 7.93845 5.8308 7.66135 5.52292C7.38426 5.21504 6.91004 5.19008 6.60216 5.46717L4.10216 7.71717C3.94412 7.8594 3.85388 8.06203 3.85388 8.27464C3.85388 8.48726 3.94412 8.68988 4.10216 8.83211L6.60216 11.0821C6.91004 11.3592 7.38426 11.3342 7.66135 11.0264C7.93845 10.7185 7.91349 10.2443 7.60561 9.96717L6.55835 9.02464H16.1039C16.5181 9.02464 16.8539 8.68886 16.8539 8.27464Z" fill="currentColor"/>
</svg>
