<svg width="17" height="17" viewBox="0 0 17 17" fill="none" xmlns="http://www.w3.org/2000/svg">
<path fill-rule="evenodd" clip-rule="evenodd" d="M0.853882 2.52464C0.853882 1.282 1.86124 0.274643 3.10388 0.274643H8.60388C9.84652 0.274643 10.8539 1.282 10.8539 2.52464V4.52464C10.8539 4.93886 10.5181 5.27464 10.1039 5.27464C9.68967 5.27464 9.35388 4.93886 9.35388 4.52464V2.52464C9.35388 2.11043 9.0181 1.77464 8.60388 1.77464H3.10388C2.68967 1.77464 2.35388 2.11043 2.35388 2.52464V14.0246C2.35388 14.4389 2.68967 14.7746 3.10388 14.7746H8.60388C9.0181 14.7746 9.35388 14.4389 9.35388 14.0246V12.0246C9.35388 11.6104 9.68967 11.2746 10.1039 11.2746C10.5181 11.2746 10.8539 11.6104 10.8539 12.0246V14.0246C10.8539 15.2673 9.84652 16.2746 8.60388 16.2746H3.10388C1.86124 16.2746 0.853882 15.2673 0.853882 14.0246V2.52464Z" fill="currentColor"/>
<path fill-rule="evenodd" clip-rule="evenodd" d="M3.85388 8.27464C3.85388 7.86043 4.18967 7.52464 4.60388 7.52464H14.1494L13.1022 6.58211C12.7943 6.30502 12.7693 5.8308 13.0464 5.52292C13.3235 5.21504 13.7977 5.19008 14.1056 5.46717L16.6056 7.71717C16.7636 7.8594 16.8539 8.06203 16.8539 8.27464C16.8539 8.48726 16.7636 8.68988 16.6056 8.83211L14.1056 11.0821C13.7977 11.3592 13.3235 11.3342 13.0464 11.0264C12.7693 10.7185 12.7943 10.2443 13.1022 9.96717L14.1494 9.02464H4.60388C4.18967 9.02464 3.85388 8.68886 3.85388 8.27464Z" fill="currentColor"/>
</svg>
