<svg width="15" height="10" viewBox="0 0 15 10" fill="none" xmlns="http://www.w3.org/2000/svg">
<path d="M10.648 0.720001C11.3307 0.720001 11.9334 0.853334 12.456 1.12C12.9787 1.38667 13.384 1.792 13.672 2.336C13.9707 2.88 14.12 3.568 14.12 4.4V9.28H12.584V4.576C12.584 3.75467 12.392 3.136 12.008 2.72C11.624 2.304 11.0854 2.096 10.392 2.096C9.88004 2.096 9.43204 2.20267 9.04804 2.416C8.66404 2.62933 8.36537 2.944 8.15204 3.36C7.94937 3.776 7.84804 4.29333 7.84804 4.912V9.28H6.31204V4.576C6.31204 3.75467 6.12004 3.136 5.73604 2.72C5.36271 2.304 4.82404 2.096 4.12004 2.096C3.61871 2.096 3.17604 2.20267 2.79204 2.416C2.40804 2.62933 2.10937 2.944 1.89604 3.36C1.68271 3.776 1.57604 4.29333 1.57604 4.912V9.28H0.0400391V0.800001H1.51204V3.056L1.27204 2.48C1.53871 1.92533 1.94937 1.49333 2.50404 1.184C3.05871 0.874668 3.70404 0.720001 4.44004 0.720001C5.25071 0.720001 5.94937 0.922668 6.53604 1.328C7.12271 1.72267 7.50671 2.32533 7.68804 3.136L7.06404 2.88C7.32004 2.22934 7.76804 1.70667 8.40804 1.312C9.04804 0.917335 9.79471 0.720001 10.648 0.720001Z" fill="currentColor"/>
</svg>
