<svg width="19" height="19" viewBox="0 0 19 19" fill="none" xmlns="http://www.w3.org/2000/svg">
<path d="M15 12.43C15.7956 12.43 16.5587 12.7461 17.1213 13.3087C17.6839 13.8713 18 14.6344 18 15.43C18 16.2256 17.6839 16.9887 17.1213 17.5513C16.5587 18.1139 15.7956 18.43 15 18.43C13.69 18.43 12.58 17.6 12.17 16.43H11V14.43H12.17C12.58 13.26 13.69 12.43 15 12.43ZM15 14.43C14.7348 14.43 14.4804 14.5354 14.2929 14.7229C14.1054 14.9104 14 15.1648 14 15.43C14 15.6952 14.1054 15.9496 14.2929 16.1371C14.4804 16.3246 14.7348 16.43 15 16.43C15.2652 16.43 15.5196 16.3246 15.7071 16.1371C15.8946 15.9496 16 15.6952 16 15.43C16 15.1648 15.8946 14.9104 15.7071 14.7229C15.5196 14.5354 15.2652 14.43 15 14.43ZM15 5.43C15.3793 5.43 15.743 5.27934 16.0112 5.01116C16.2793 4.74299 16.43 4.37926 16.43 4C16.43 3.21 15.79 2.57 15 2.57C14.21 2.57 13.57 3.21 13.57 4C13.57 4.37926 13.7207 4.74299 13.9888 5.01116C14.257 5.27934 14.6207 5.43 15 5.43ZM15 0C16.0609 0 17.0783 0.421427 17.8284 1.17157C18.5786 1.92172 19 2.93913 19 4C19 6.99 15 11.43 15 11.43C15 11.43 11 6.99 11 4C11 2.93913 11.4214 1.92172 12.1716 1.17157C12.9217 0.421427 13.9391 0 15 0ZM5.83 14.43H7V16.43H5.83C5.42 17.6 4.31 18.43 3 18.43C2.20435 18.43 1.44129 18.1139 0.87868 17.5513C0.316071 16.9887 0 16.2256 0 15.43C0 14.12 0.83 13.01 2 12.6V11.43H4V12.6C4.85 12.9 5.53 13.58 5.83 14.43ZM3 14.43C2.73478 14.43 2.48043 14.5354 2.29289 14.7229C2.10536 14.9104 2 15.1648 2 15.43C2 15.6952 2.10536 15.9496 2.29289 16.1371C2.48043 16.3246 2.73478 16.43 3 16.43C3.26522 16.43 3.51957 16.3246 3.70711 16.1371C3.89464 15.9496 4 15.6952 4 15.43C4 15.1648 3.89464 14.9104 3.70711 14.7229C3.51957 14.5354 3.26522 14.43 3 14.43ZM3 0.43C3.79565 0.43 4.55871 0.746071 5.12132 1.30868C5.68393 1.87129 6 2.63435 6 3.43C6 4.74 5.17 5.85 4 6.26V7.43H2V6.26C0.83 5.85 0 4.74 0 3.43C0 2.63435 0.316071 1.87129 0.87868 1.30868C1.44129 0.746071 2.20435 0.43 3 0.43ZM3 2.43C2.73478 2.43 2.48043 2.53536 2.29289 2.72289C2.10536 2.91043 2 3.16478 2 3.43C2 3.69522 2.10536 3.94957 2.29289 4.13711C2.48043 4.32464 2.73478 4.43 3 4.43C3.26522 4.43 3.51957 4.32464 3.70711 4.13711C3.89464 3.94957 4 3.69522 4 3.43C4 3.16478 3.89464 2.91043 3.70711 2.72289C3.51957 2.53536 3.26522 2.43 3 2.43ZM8 16.43V14.43H10V16.43H8ZM4 10.43H2V8.43H4V10.43Z" fill="black"/>
</svg>