<svg width="15" height="17" viewBox="0 0 15 17" fill="none" xmlns="http://www.w3.org/2000/svg">
<path d="M7.37476 0C3.50876 0 0.374756 3.13401 0.374756 7C0.374756 10.4925 2.07259 12.9876 3.72927 14.5844C4.55739 15.3826 5.38352 15.9655 6.0031 16.3495C6.31354 16.5419 6.57398 16.6855 6.75943 16.7822C6.85221 16.8306 6.92638 16.8673 6.97885 16.8926C7.00509 16.9052 7.02592 16.915 7.04095 16.922L7.0591 16.9304L7.06483 16.933L7.06764 16.9342C7.26476 17.02 7.37476 17 7.37476 17C7.37476 17 7.48476 17.02 7.68267 16.9339L7.68468 16.933L7.69041 16.9304L7.70856 16.922C7.72359 16.915 7.74442 16.9052 7.77066 16.8926C7.82313 16.8673 7.89731 16.8306 7.99008 16.7822C8.17553 16.6855 8.43597 16.5419 8.74641 16.3495C9.36599 15.9655 10.1921 15.3826 11.0202 14.5844C12.6769 12.9876 14.3748 10.4925 14.3748 7C14.3748 3.13401 11.2407 0 7.37476 0ZM5.12476 7C5.12476 5.75736 6.13212 4.75 7.37476 4.75C8.6174 4.75 9.62476 5.75736 9.62476 7C9.62476 8.24264 8.6174 9.25 7.37476 9.25C6.13212 9.25 5.12476 8.24264 5.12476 7Z" fill="currentColor"/>
</svg>
