<svg width="21" height="21" viewBox="0 0 21 21" fill="none" xmlns="http://www.w3.org/2000/svg">
<path d="M13 10H14.5V14.25L17.36 15.94L16.61 17.16L13 15V10ZM14 7C14.69 7 15.37 7.1 16 7.29V2.7L13 3.86V7.07C13.33 7 13.66 7 14 7ZM21 14C21 15.8565 20.2625 17.637 18.9497 18.9497C17.637 20.2625 15.8565 21 14 21C11 21 8.4 19.08 7.42 16.4L6 15.9L0.66 17.97L0.5 18C0.367392 18 0.240215 17.9473 0.146447 17.8536C0.0526785 17.7598 0 17.6326 0 17.5V2.38C0 2.15 0.15 1.97 0.36 1.9L6 0L12 2.1L17.34 0.03L17.5 0C17.6326 0 17.7598 0.0526785 17.8536 0.146447C17.9473 0.240215 18 0.367392 18 0.5V8.25C19.81 9.5 21 11.62 21 14ZM7 14C7 11.21 8.63 8.8 11 7.67V3.87L7 2.47V14.13C7 14.09 7 14.04 7 14ZM14 9C12.6739 9 11.4021 9.52678 10.4645 10.4645C9.52678 11.4021 9 12.6739 9 14C9 15.3261 9.52678 16.5979 10.4645 17.5355C11.4021 18.4732 12.6739 19 14 19C15.3261 19 16.5979 18.4732 17.5355 17.5355C18.4732 16.5979 19 15.3261 19 14C19 12.6739 18.4732 11.4021 17.5355 10.4645C16.5979 9.52678 15.3261 9 14 9ZM2 3.46V15.31L5 14.15V2.45L2 3.46Z" fill="black"/>
</svg>