<svg width="15" height="18" viewBox="0 0 15 18" fill="none" xmlns="http://www.w3.org/2000/svg">
<path d="M7.91064 0.498985C4.04465 0.498985 0.910645 3.63299 0.910645 7.49899C0.910645 10.9915 2.60848 13.4866 4.26516 15.0834C5.09328 15.8816 5.91941 16.4645 6.53899 16.8484C6.84943 17.0409 7.10987 17.1845 7.29532 17.2812C7.3881 17.3295 7.46227 17.3663 7.51474 17.3916C7.54098 17.4042 7.56181 17.414 7.57684 17.421L7.59499 17.4294L7.60072 17.432L7.60353 17.4332C7.80064 17.519 7.91064 17.499 7.91064 17.499C7.91064 17.499 8.02064 17.519 8.21855 17.4329L8.22057 17.432L8.2263 17.4294L8.24445 17.421C8.25948 17.414 8.28031 17.4042 8.30655 17.3916C8.35902 17.3663 8.43319 17.3295 8.52597 17.2812C8.71142 17.1845 8.97186 17.0409 9.2823 16.8484C9.90188 16.4645 10.728 15.8816 11.5561 15.0834C13.2128 13.4866 14.9106 10.9915 14.9106 7.49899C14.9106 3.63299 11.7766 0.498985 7.91064 0.498985ZM5.66064 7.49899C5.66064 6.25634 6.668 5.24899 7.91064 5.24899C9.15329 5.24899 10.1606 6.25634 10.1606 7.49899C10.1606 8.74163 9.15329 9.74899 7.91064 9.74899C6.668 9.74899 5.66064 8.74163 5.66064 7.49899Z" fill="currentColor"/>
</svg>
