<svg width="20" height="20" viewBox="0 0 20 20" fill="none" xmlns="http://www.w3.org/2000/svg">
<path d="M4.5 6.11C3.61 6.11 2.89 5.39 2.89 4.5C2.89 4.073 3.05962 3.66349 3.36156 3.36156C3.66349 3.05962 4.073 2.89 4.5 2.89C5.39 2.89 6.11 3.61 6.11 4.5C6.11 4.927 5.94038 5.33651 5.63844 5.63844C5.33651 5.94038 4.927 6.11 4.5 6.11ZM4.5 0C2 0 0 2 0 4.5C0 7.87 4.5 12.86 4.5 12.86C4.5 12.86 9 7.87 9 4.5C9 2 7 0 4.5 0ZM15.5 6.11C15.073 6.11 14.6635 5.94038 14.3616 5.63844C14.0596 5.33651 13.89 4.927 13.89 4.5C13.89 3.61 14.61 2.89 15.5 2.89C16.39 2.89 17.11 3.61 17.11 4.5C17.11 4.927 16.9404 5.33651 16.6384 5.63844C16.3365 5.94038 15.927 6.11 15.5 6.11ZM15.5 0C13 0 11 2 11 4.5C11 7.87 15.5 12.86 15.5 12.86C15.5 12.86 20 7.87 20 4.5C20 2 18 0 15.5 0ZM15.5 14C14.23 14 13.1 14.8 12.68 16H7.32C6.77 14.44 5.05 13.62 3.5 14.17C1.93 14.72 1.11 16.44 1.66 18C2.22 19.56 3.93 20.38 5.5 19.83C6.35 19.53 7 18.85 7.32 18H12.69C13.24 19.56 14.96 20.38 16.5 19.83C18.08 19.28 18.9 17.56 18.35 16C17.92 14.8 16.78 14 15.5 14ZM15.5 18.5C15.1022 18.5 14.7206 18.342 14.4393 18.0607C14.158 17.7794 14 17.3978 14 17C14 16.6022 14.158 16.2206 14.4393 15.9393C14.7206 15.658 15.1022 15.5 15.5 15.5C15.8978 15.5 16.2794 15.658 16.5607 15.9393C16.842 16.2206 17 16.6022 17 17C17 17.3978 16.842 17.7794 16.5607 18.0607C16.2794 18.342 15.8978 18.5 15.5 18.5Z" fill="black"/>
</svg>