<svg width="14" height="17" viewBox="0 0 14 17" fill="currentColor" xmlns="http://www.w3.org/2000/svg">
<path d="M7 0C3.13401 0 0 3.13401 0 7C0 10.4925 1.69783 12.9876 3.35452 14.5844C4.18264 15.3826 5.00877 15.9655 5.62834 16.3495C5.93879 16.5419 6.19922 16.6855 6.38467 16.7822C6.47745 16.8306 6.55163 16.8673 6.60409 16.8926C6.63033 16.9052 6.65116 16.915 6.66619 16.922L6.68435 16.9304L6.69008 16.933L6.69288 16.9342C6.89 17.02 7 17 7 17C7 17 7.11 17.02 7.30791 16.9339L7.30992 16.933L7.31565 16.9304L7.33381 16.922C7.34884 16.915 7.36967 16.9052 7.39591 16.8926C7.44837 16.8673 7.52255 16.8306 7.61533 16.7822C7.80078 16.6855 8.06121 16.5419 8.37166 16.3495C8.99123 15.9655 9.81736 15.3826 10.6455 14.5844C12.3022 12.9876 14 10.4925 14 7C14 3.13401 10.866 0 7 0ZM4.75 7C4.75 5.75736 5.75736 4.75 7 4.75C8.24264 4.75 9.25 5.75736 9.25 7C9.25 8.24264 8.24264 9.25 7 9.25C5.75736 9.25 4.75 8.24264 4.75 7Z" />
</svg>
