<svg width="16" height="17" viewBox="0 0 16 17" fill="none" xmlns="http://www.w3.org/2000/svg">
<path fill-rule="evenodd" clip-rule="evenodd" d="M6.15686 0.450294C5.78961 0.298328 5.37706 0.298327 5.00981 0.450294L0.926472 2.13995C0.365696 2.37199 0 2.91909 0 3.52597V14.4026C0 15.4714 1.08594 16.1973 2.07353 15.7887L5.58333 14.3363L9.84314 16.099C10.2104 16.251 10.6229 16.251 10.9902 16.099L15.0735 14.4093C15.6343 14.1773 16 13.6302 16 13.0233V2.14666C16 1.07787 14.9141 0.351983 13.9265 0.760638L10.4167 2.21297L6.15686 0.450294ZM4.83008 10.5247V4.02467C4.83008 3.61046 5.16586 3.27467 5.58008 3.27467C5.99429 3.27467 6.33008 3.61046 6.33008 4.02467V10.5247C6.33008 10.9389 5.99429 11.2747 5.58008 11.2747C5.16586 11.2747 4.83008 10.9389 4.83008 10.5247ZM11.1699 6.02467V12.5247C11.1699 12.9389 10.8341 13.2747 10.4199 13.2747C10.0057 13.2747 9.66992 12.9389 9.66992 12.5247V6.02467C9.66992 5.61046 10.0057 5.27467 10.4199 5.27467C10.8341 5.27467 11.1699 5.61046 11.1699 6.02467Z" fill="currentColor"/>
</svg>
