<svg width="16" height="16" viewBox="0 0 16 16" fill="currentColor" xmlns="http://www.w3.org/2000/svg">
<path d="M6.15686 0.17562C5.78961 0.0236541 5.37706 0.0236538 5.00981 0.17562L0.926472 1.86528C0.365696 2.09732 0 2.64441 0 3.2513V14.128C0 15.1967 1.08594 15.9226 2.07353 15.514L5.58333 14.0616L9.84314 15.8243C10.2104 15.9763 10.6229 15.9763 10.9902 15.8243L15.0735 14.1347C15.6343 13.9026 16 13.3555 16 12.7486V1.87199C16 0.8032 14.9141 0.0773098 13.9265 0.485965L10.4167 1.9383L6.15686 0.17562ZM4.83008 10.25V3.75C4.83008 3.33579 5.16586 3 5.58008 3C5.99429 3 6.33008 3.33579 6.33008 3.75V10.25C6.33008 10.6642 5.99429 11 5.58008 11C5.16586 11 4.83008 10.6642 4.83008 10.25ZM11.1699 5.75V12.25C11.1699 12.6642 10.8341 13 10.4199 13C10.0057 13 9.66992 12.6642 9.66992 12.25V5.75C9.66992 5.33579 10.0057 5 10.4199 5C10.8341 5 11.1699 5.33579 11.1699 5.75Z" />
</svg>
