<svg width="17" height="16" viewBox="0 0 17 16" fill="none" xmlns="http://www.w3.org/2000/svg">
<path d="M7.03162 0.113975C6.66437 -0.0379914 6.25181 -0.0379917 5.88456 0.113975L1.80123 1.80363C1.24045 2.03568 0.874756 2.58277 0.874756 3.18966V14.0663C0.874756 15.1351 1.9607 15.861 2.94828 15.4523L6.45809 14L10.7179 15.7627C11.0851 15.9146 11.4977 15.9146 11.865 15.7627L15.9483 14.073C16.5091 13.841 16.8748 13.2939 16.8748 12.687V1.81034C16.8748 0.741555 15.7888 0.0156643 14.8012 0.424319L11.2914 1.87665L7.03162 0.113975ZM5.70483 10.1884V3.68835C5.70483 3.27414 6.04062 2.93835 6.45483 2.93835C6.86905 2.93835 7.20483 3.27414 7.20483 3.68835V10.1884C7.20483 10.6026 6.86905 10.9384 6.45483 10.9384C6.04062 10.9384 5.70483 10.6026 5.70483 10.1884ZM12.0447 5.68835V12.1884C12.0447 12.6026 11.7089 12.9384 11.2947 12.9384C10.8805 12.9384 10.5447 12.6026 10.5447 12.1884V5.68835C10.5447 5.27414 10.8805 4.93835 11.2947 4.93835C11.7089 4.93835 12.0447 5.27414 12.0447 5.68835Z" fill="currentColor"/>
</svg>
