<svg width="18" height="17" viewBox="0 0 18 17" fill="none" xmlns="http://www.w3.org/2000/svg">
<path fill-rule="evenodd" clip-rule="evenodd" d="M6.56337 0.183076C6.74254 0.362245 6.7958 0.63186 6.69823 0.865702C6.32788 1.75323 6.12305 2.72772 6.12305 3.75164C6.12305 7.89377 9.48091 11.2516 13.623 11.2516C14.647 11.2516 15.6215 11.0468 16.509 10.6765C16.7428 10.5789 17.0124 10.6321 17.1916 10.8113C17.3708 10.9905 17.424 11.2601 17.3265 11.4939C16.0079 14.6538 12.8883 16.8766 9.24805 16.8766C4.41556 16.8766 0.498047 12.9591 0.498047 8.12664C0.498047 4.48639 2.72084 1.36677 5.88074 0.0482199C6.11458 -0.0493563 6.3842 0.00390776 6.56337 0.183076Z" fill="currentColor"/>
</svg>
