<svg width="17" height="18" viewBox="0 0 17 18" fill="none" xmlns="http://www.w3.org/2000/svg">
<path fill-rule="evenodd" clip-rule="evenodd" d="M6.0995 0.74476C6.27867 0.923929 6.33193 1.19354 6.23436 1.42739C5.86402 2.31491 5.65918 3.2894 5.65918 4.31332C5.65918 8.45546 9.01705 11.8133 13.1592 11.8133C14.1831 11.8133 15.1576 11.6085 16.0451 11.2381C16.279 11.1406 16.5486 11.1938 16.7277 11.373C16.9069 11.5522 16.9602 11.8218 16.8626 12.0556C15.544 15.2155 12.4244 17.4383 8.78418 17.4383C3.95169 17.4383 0.0341797 13.5208 0.0341797 8.68832C0.0341797 5.04808 2.25697 1.92845 5.41688 0.609904C5.65072 0.512327 5.92033 0.565591 6.0995 0.74476Z" fill="currentColor"/>
</svg>
