<svg width="4" height="15" viewBox="0 0 4 15" fill="none" xmlns="http://www.w3.org/2000/svg">
<path d="M2.35388 0.274643C3.18231 0.274643 3.85388 0.946216 3.85388 1.77464C3.85388 2.60307 3.18231 3.27464 2.35388 3.27464C1.52545 3.27464 0.853882 2.60307 0.853882 1.77464C0.853882 0.946216 1.52545 0.274643 2.35388 0.274643Z" fill="currentColor"/>
<path d="M2.35388 5.77464C3.18231 5.77464 3.85388 6.44622 3.85388 7.27464C3.85388 8.10307 3.18231 8.77464 2.35388 8.77464C1.52545 8.77464 0.853882 8.10307 0.853882 7.27464C0.853882 6.44622 1.52545 5.77464 2.35388 5.77464Z" fill="currentColor"/>
<path d="M3.85388 12.7746C3.85388 11.9462 3.18231 11.2746 2.35388 11.2746C1.52545 11.2746 0.853882 11.9462 0.853882 12.7746C0.853882 13.6031 1.52545 14.2746 2.35388 14.2746C3.18231 14.2746 3.85388 13.6031 3.85388 12.7746Z" fill="currentColor"/>
</svg>
