<svg width="15" height="4" viewBox="0 0 15 4" fill="none" xmlns="http://www.w3.org/2000/svg">
<path d="M0.853882 2.27464C0.853882 1.44622 1.52545 0.774643 2.35388 0.774643C3.18231 0.774643 3.85388 1.44622 3.85388 2.27464C3.85388 3.10307 3.18231 3.77464 2.35388 3.77464C1.52545 3.77464 0.853882 3.10307 0.853882 2.27464Z" fill="currentColor"/>
<path d="M6.35388 2.27464C6.35388 1.44622 7.02545 0.774643 7.85388 0.774643C8.68231 0.774643 9.35388 1.44622 9.35388 2.27464C9.35388 3.10307 8.68231 3.77464 7.85388 3.77464C7.02545 3.77464 6.35388 3.10307 6.35388 2.27464Z" fill="currentColor"/>
<path d="M13.3539 0.774643C12.5255 0.774643 11.8539 1.44622 11.8539 2.27464C11.8539 3.10307 12.5255 3.77464 13.3539 3.77464C14.1823 3.77464 14.8539 3.10307 14.8539 2.27464C14.8539 1.44622 14.1823 0.774643 13.3539 0.774643Z" fill="currentColor"/>
</svg>
