<svg width="9" height="10" viewBox="0 0 9 10" fill="none" xmlns="http://www.w3.org/2000/svg">
<path d="M4.64799 0.720001C5.34133 0.720001 5.94933 0.853334 6.472 1.12C7.00533 1.38667 7.42133 1.792 7.72 2.336C8.01866 2.88 8.168 3.568 8.168 4.4V9.28H6.632V4.576C6.632 3.75467 6.42933 3.136 6.024 2.72C5.62933 2.304 5.06933 2.096 4.344 2.096C3.8 2.096 3.32533 2.20267 2.92 2.416C2.51466 2.62933 2.2 2.944 1.976 3.36C1.76266 3.776 1.656 4.29333 1.656 4.912V9.28H0.119995V0.800001H1.592V3.088L1.352 2.48C1.62933 1.92533 2.056 1.49333 2.632 1.184C3.208 0.874668 3.88 0.720001 4.64799 0.720001Z" fill="currentColor"/>
</svg>
