<svg width="21" height="22" viewBox="0 0 21 22" fill="none" xmlns="http://www.w3.org/2000/svg">
<path d="M19.73 21.73L17.74 19.74C17.45 20.5 16.73 21 15.89 21H13.81C13.7 19.59 13.39 18.25 12.86 17H15L5.89 7.89V10C5.25 9.74 4.58 9.53 3.89 9.37V5.89L0 2L1.28 0.73L21 20.46L19.73 21.73ZM15.89 4V12.8L17.89 14.8V2C17.89 0.9 17 0 15.89 0H5.89C5.13 0 4.48 0.43 4.14 1.05L7.09 4H15.89ZM0.89 19V22H3.89C3.89 20.34 2.55 19 0.89 19ZM0.89 15V17C3.65 17 5.89 19.24 5.89 22H7.89C7.89 18.13 4.76 15 0.89 15ZM0.89 11V13C5.86 13 9.89 17.03 9.89 22H11.89C11.89 15.92 6.97 11 0.89 11Z" fill="black"/>
</svg>