<svg width="16" height="20" viewBox="0 0 16 20" fill="none" xmlns="http://www.w3.org/2000/svg">
<path d="M8 14C8.28333 14 8.52917 13.8958 8.7375 13.6875C8.94583 13.4792 9.05 13.2333 9.05 12.95C9.05 12.6667 8.94583 12.4208 8.7375 12.2125C8.52917 12.0042 8.28333 11.9 8 11.9C7.71667 11.9 7.47083 12.0042 7.2625 12.2125C7.05417 12.4208 6.95 12.6667 6.95 12.95C6.95 13.2333 7.05417 13.4792 7.2625 13.6875C7.47083 13.8958 7.71667 14 8 14ZM7.25 10.9H8.75C8.75 10.5833 8.7625 10.3333 8.7875 10.15C8.8125 9.96667 8.85 9.81667 8.9 9.7C8.96667 9.56667 9.0625 9.42917 9.1875 9.2875C9.3125 9.14583 9.51667 8.93333 9.8 8.65C10.15 8.3 10.4125 7.95 10.5875 7.6C10.7625 7.25 10.85 6.9 10.85 6.55C10.85 5.76667 10.5917 5.14583 10.075 4.6875C9.55833 4.22917 8.86667 4 8 4C7.31667 4 6.71667 4.19167 6.2 4.575C5.68333 4.95833 5.33333 5.46667 5.15 6.1L6.5 6.65C6.61667 6.26667 6.80833 5.97083 7.075 5.7625C7.34167 5.55417 7.65 5.45 8 5.45C8.4 5.45 8.725 5.55833 8.975 5.775C9.225 5.99167 9.35 6.26667 9.35 6.6C9.35 6.88333 9.2875 7.12917 9.1625 7.3375C9.0375 7.54583 8.81667 7.78333 8.5 8.05C8.21667 8.28333 7.99167 8.49583 7.825 8.6875C7.65833 8.87917 7.53333 9.06667 7.45 9.25C7.36667 9.41667 7.3125 9.62083 7.2875 9.8625C7.2625 10.1042 7.25 10.45 7.25 10.9ZM8 17.35C10.0333 15.4833 11.5417 13.7875 12.525 12.2625C13.5083 10.7375 14 9.38333 14 8.2C14 6.38333 13.4208 4.89583 12.2625 3.7375C11.1042 2.57917 9.68333 2 8 2C6.31667 2 4.89583 2.57917 3.7375 3.7375C2.57917 4.89583 2 6.38333 2 8.2C2 9.38333 2.49167 10.7375 3.475 12.2625C4.45833 13.7875 5.96667 15.4833 8 17.35ZM8 20C5.31667 17.7167 3.3125 15.5958 1.9875 13.6375C0.6625 11.6792 0 9.86667 0 8.2C0 5.7 0.804167 3.70833 2.4125 2.225C4.02083 0.741667 5.88333 0 8 0C10.1167 0 11.9792 0.741667 13.5875 2.225C15.1958 3.70833 16 5.7 16 8.2C16 9.86667 15.3375 11.6792 14.0125 13.6375C12.6875 15.5958 10.6833 17.7167 8 20Z" fill="#1C1B1F"/>
</svg>