<svg width="17" height="20" viewBox="0 0 17 20" fill="none" xmlns="http://www.w3.org/2000/svg">
<path d="M16 16.19L1.27 0.99L0 2.26L2.8 5.06V5.07C2.28 6.06 2 7.23 2 8.49V13.49L0 15.49V16.49H13.73L15.73 18.49L17 17.22L16 16.19ZM8 19.5C9.11 19.5 10 18.61 10 17.5H6C6 18.61 6.89 19.5 8 19.5ZM14 12.18V8.5C14 5.42 12.36 2.86 9.5 2.18V1.5C9.5 0.67 8.83 0 8 0C7.17 0 6.5 0.67 6.5 1.5V2.18C6.35 2.21 6.21 2.26 6.08 2.3C5.98 2.33 5.88 2.37 5.78 2.41H5.77C5.76 2.41 5.76 2.41 5.75 2.42C5.52 2.51 5.29 2.62 5.07 2.73C5.07 2.73 5.06 2.73 5.06 2.74L14 12.18Z" fill="#323232"/>
</svg>