<svg width="9" height="9" viewBox="0 0 9 9" fill="none" xmlns="http://www.w3.org/2000/svg">
<path d="M4.416 8.656C3.56267 8.656 2.80533 8.46933 2.144 8.096C1.48267 7.72267 0.96 7.21067 0.576 6.56C0.192 5.89867 0 5.152 0 4.32C0 3.47733 0.192 2.73067 0.576 2.08C0.96 1.42933 1.48267 0.922667 2.144 0.56C2.80533 0.186667 3.56267 0 4.416 0C5.25867 0 6.01067 0.186667 6.672 0.56C7.344 0.922667 7.86667 1.42933 8.24 2.08C8.624 2.72 8.816 3.46667 8.816 4.32C8.816 5.16267 8.624 5.90933 8.24 6.56C7.86667 7.21067 7.344 7.72267 6.672 8.096C6.01067 8.46933 5.25867 8.656 4.416 8.656ZM4.416 7.312C4.96 7.312 5.44533 7.18933 5.872 6.944C6.30933 6.69867 6.65067 6.352 6.896 5.904C7.14133 5.44533 7.264 4.91733 7.264 4.32C7.264 3.712 7.14133 3.18933 6.896 2.752C6.65067 2.304 6.30933 1.95733 5.872 1.712C5.44533 1.46667 4.96 1.344 4.416 1.344C3.872 1.344 3.38667 1.46667 2.96 1.712C2.53333 1.95733 2.192 2.304 1.936 2.752C1.68 3.18933 1.552 3.712 1.552 4.32C1.552 4.91733 1.68 5.44533 1.936 5.904C2.192 6.352 2.53333 6.69867 2.96 6.944C3.38667 7.18933 3.872 7.312 4.416 7.312Z" fill="#0F172A"/>
</svg>