<svg width="9" height="10" viewBox="0 0 9 10" fill="none" xmlns="http://www.w3.org/2000/svg">
<path d="M4.58397 9.328C3.73064 9.328 2.9733 9.14133 2.31197 8.768C1.65064 8.39466 1.12797 7.88266 0.743969 7.232C0.359969 6.57066 0.167969 5.824 0.167969 4.992C0.167969 4.14933 0.359969 3.40266 0.743969 2.752C1.12797 2.10133 1.65064 1.59466 2.31197 1.232C2.9733 0.858664 3.73064 0.671997 4.58397 0.671997C5.42664 0.671997 6.17864 0.858664 6.83997 1.232C7.51197 1.59466 8.03464 2.10133 8.40797 2.752C8.79197 3.392 8.98397 4.13866 8.98397 4.992C8.98397 5.83466 8.79197 6.58133 8.40797 7.232C8.03464 7.88266 7.51197 8.39466 6.83997 8.768C6.17864 9.14133 5.42664 9.328 4.58397 9.328ZM4.58397 7.984C5.12797 7.984 5.6133 7.86133 6.03997 7.616C6.4773 7.37067 6.81864 7.024 7.06397 6.576C7.3093 6.11733 7.43197 5.58933 7.43197 4.992C7.43197 4.384 7.3093 3.86133 7.06397 3.424C6.81864 2.976 6.4773 2.62933 6.03997 2.384C5.6133 2.13866 5.12797 2.016 4.58397 2.016C4.03997 2.016 3.55464 2.13866 3.12797 2.384C2.7013 2.62933 2.35997 2.976 2.10397 3.424C1.84797 3.86133 1.71997 4.384 1.71997 4.992C1.71997 5.58933 1.84797 6.11733 2.10397 6.576C2.35997 7.024 2.7013 7.37067 3.12797 7.616C3.55464 7.86133 4.03997 7.984 4.58397 7.984Z" fill="currentColor"/>
</svg>
