<svg width="17" height="19" viewBox="0 0 17 19" fill="none" xmlns="http://www.w3.org/2000/svg">
<path d="M10.19 18C9.12 16.43 8 14.36 8 12.5C8 10.67 8.96 9 10.4 8H10V6H12V7.23C12.5 7.09 13 7 13.5 7C13.67 7 13.84 7 14 7.03V0H0V18H6V14.5H8V18H10.19ZM10 2H12V4H10V2ZM4 16H2V14H4V16ZM4 12H2V10H4V12ZM4 8H2V6H4V8ZM4 4H2V2H4V4ZM6 2H8V4H6V2ZM6 6H8V8H6V6ZM6 12V10H8V12H6ZM13.5 9C11.6 9 10 10.61 10 12.5C10 15.11 13.5 19 13.5 19C13.5 19 17 15.11 17 12.5C17 10.61 15.4 9 13.5 9ZM13.5 13.81C12.8 13.81 12.3 13.21 12.3 12.61C12.3 11.91 12.9 11.41 13.5 11.41C14.1 11.41 14.7 12 14.7 12.61C14.8 13.21 14.2 13.81 13.5 13.81Z" fill="black"/>
</svg>