<svg width="20" height="21" viewBox="0 0 20 21" fill="none" xmlns="http://www.w3.org/2000/svg">
<path d="M18.575 21L16.025 18.45C15.725 18.6333 15.4083 18.7708 15.075 18.8625C14.7417 18.9542 14.3833 19 14 19C12.9 19 11.9583 18.6083 11.175 17.825C10.3917 17.0417 10 16.1 10 15C10 13.9 10.3917 12.9583 11.175 12.175C11.9583 11.3917 12.9 11 14 11C15.1 11 16.0417 11.3917 16.825 12.175C17.6083 12.9583 18 13.9 18 15C18 15.3833 17.95 15.7458 17.85 16.0875C17.75 16.4292 17.6083 16.75 17.425 17.05L19.975 19.6L18.575 21ZM14 17C14.55 17 15.0208 16.8042 15.4125 16.4125C15.8042 16.0208 16 15.55 16 15C16 14.45 15.8042 13.9792 15.4125 13.5875C15.0208 13.1958 14.55 13 14 13C13.45 13 12.9792 13.1958 12.5875 13.5875C12.1958 13.9792 12 14.45 12 15C12 15.55 12.1958 16.0208 12.5875 16.4125C12.9792 16.8042 13.45 17 14 17ZM0 20V14C0 13.1667 0.291667 12.4583 0.875 11.875C1.45833 11.2917 2.16667 11 3 11H5C5.83333 11 6.54167 10.7083 7.125 10.125C7.70833 9.54167 8 8.83333 8 8C8 7.71667 7.90417 7.47917 7.7125 7.2875C7.52083 7.09583 7.28333 7 7 7C6.45 7 5.97917 6.80417 5.5875 6.4125C5.19583 6.02083 5 5.55 5 5V0H11V2C12.95 2 14.6042 2.67917 15.9625 4.0375C17.3208 5.39583 18 7.05 18 9V10.525C17.45 10.0417 16.8333 9.66667 16.15 9.4C15.4667 9.13333 14.75 9 14 9C12.3333 9 10.9167 9.58333 9.75 10.75C8.58333 11.9167 8 13.3333 8 15C8 15.35 8.02917 15.6917 8.0875 16.025C8.14583 16.3583 8.23333 16.6833 8.35 17H7C6.71667 17 6.47917 17.0958 6.2875 17.2875C6.09583 17.4792 6 17.7167 6 18V20H0Z" fill="#1C1B1F"/>
</svg>