<svg width="22" height="21" viewBox="0 0 22 21" fill="none" xmlns="http://www.w3.org/2000/svg">
<path d="M6 12C4.9 12 3.95833 11.6083 3.175 10.825C2.39167 10.0417 2 9.1 2 8C2 6.9 2.39167 5.95833 3.175 5.175C3.95833 4.39167 4.9 4 6 4H7V0H15V4H16C17.1 4 18.0417 4.39167 18.825 5.175C19.6083 5.95833 20 6.9 20 8C20 9.1 19.6083 10.0417 18.825 10.825C18.0417 11.6083 17.1 12 16 12H13.675C13.8583 11.8167 14.0208 11.6125 14.1625 11.3875C14.3042 11.1625 14.4167 10.925 14.5 10.675C14.5667 10.475 14.6875 10.3125 14.8625 10.1875C15.0375 10.0625 15.2333 10 15.45 10H16V8H15.45C14.8 8 14.2125 8.1875 13.6875 8.5625C13.1625 8.9375 12.8 9.43333 12.6 10.05C12.5167 10.3333 12.35 10.5625 12.1 10.7375C11.85 10.9125 11.575 11 11.275 11H10.725C10.425 11 10.15 10.9125 9.9 10.7375C9.65 10.5625 9.48333 10.3333 9.4 10.05C9.2 9.43333 8.8375 8.9375 8.3125 8.5625C7.7875 8.1875 7.2 8 6.55 8H6V10H6.55C6.76667 10 6.95833 10.0625 7.125 10.1875C7.29167 10.3125 7.41667 10.475 7.5 10.675C7.58333 10.925 7.69583 11.1625 7.8375 11.3875C7.97917 11.6125 8.14167 11.8167 8.325 12H6ZM7 21C6.65 21 6.32083 20.9125 6.0125 20.7375C5.70417 20.5625 5.45833 20.3167 5.275 20H3C2.16667 20 1.45833 19.7083 0.875 19.125C0.291667 18.5417 0 17.8333 0 17V13H2V17C2 17.2833 2.09583 17.5208 2.2875 17.7125C2.47917 17.9042 2.71667 18 3 18H5.275C5.45833 17.6833 5.70417 17.4375 6.0125 17.2625C6.32083 17.0875 6.65 17 7 17H8V16C8 15.7167 8.09583 15.4792 8.2875 15.2875C8.47917 15.0958 8.71667 15 9 15C9.28333 15 9.52083 15.0958 9.7125 15.2875C9.90417 15.4792 10 15.7167 10 16V17H12V16C12 15.7167 12.0958 15.4792 12.2875 15.2875C12.4792 15.0958 12.7167 15 13 15C13.2833 15 13.5208 15.0958 13.7125 15.2875C13.9042 15.4792 14 15.7167 14 16V17H15C15.35 17 15.6792 17.0875 15.9875 17.2625C16.2958 17.4375 16.5417 17.6833 16.725 18H19C19.2833 18 19.5208 17.9042 19.7125 17.7125C19.9042 17.5208 20 17.2833 20 17V13H22V17C22 17.8333 21.7083 18.5417 21.125 19.125C20.5417 19.7083 19.8333 20 19 20H16.725C16.5417 20.3167 16.2958 20.5625 15.9875 20.7375C15.6792 20.9125 15.35 21 15 21H7Z" fill="#1C1B1F"/>
</svg>