<svg width="22" height="21" viewBox="0 0 22 21" fill="none" xmlns="http://www.w3.org/2000/svg">
<path d="M0 13H2V17C2 17.2833 2.09583 17.5208 2.2875 17.7125C2.47917 17.9042 2.71667 18 3 18H5.275C5.45833 17.6833 5.70417 17.4375 6.0125 17.2625C6.32083 17.0875 6.65 17 7 17H8V16C8 15.7167 8.09583 15.4792 8.2875 15.2875C8.47917 15.0958 8.71667 15 9 15C9.28333 15 9.52083 15.0958 9.7125 15.2875C9.90417 15.4792 10 15.7167 10 16V17H12V16C12 15.7167 12.0958 15.4792 12.2875 15.2875C12.4792 15.0958 12.7167 15 13 15C13.2833 15 13.5208 15.0958 13.7125 15.2875C13.9042 15.4792 14 15.7167 14 16V17H15C15.35 17 15.6792 17.0875 15.9875 17.2625C16.2958 17.4375 16.5417 17.6833 16.725 18H19C19.2833 18 19.5208 17.9042 19.7125 17.7125C19.9042 17.5208 20 17.2833 20 17V13H22V17C22 17.8333 21.7083 18.5417 21.125 19.125C20.5417 19.7083 19.8333 20 19 20H16.725C16.5417 20.3167 16.2958 20.5625 15.9875 20.7375C15.6792 20.9125 15.35 21 15 21H7C6.65 21 6.32083 20.9125 6.0125 20.7375C5.70417 20.5625 5.45833 20.3167 5.275 20H3C2.16667 20 1.45833 19.7083 0.875 19.125C0.291667 18.5417 0 17.8333 0 17V13ZM7 0H9V4C9 4.55 8.80417 5.02083 8.4125 5.4125C8.02083 5.80417 7.55 6 7 6H6C5.45 6 4.97917 6.19583 4.5875 6.5875C4.19583 6.97917 4 7.45 4 8C4 8.55 4.19583 9.02083 4.5875 9.4125C4.97917 9.80417 5.45 10 6 10V12C4.9 12 3.95833 11.6083 3.175 10.825C2.39167 10.0417 2 9.1 2 8C2 6.9 2.39167 5.95833 3.175 5.175C3.95833 4.39167 4.9 4 6 4H7V0ZM13 0H15V4H16C17.1 4 18.0417 4.39167 18.825 5.175C19.6083 5.95833 20 6.9 20 8C20 9.1 19.6083 10.0417 18.825 10.825C18.0417 11.6083 17.1 12 16 12V10C16.55 10 17.0208 9.80417 17.4125 9.4125C17.8042 9.02083 18 8.55 18 8C18 7.45 17.8042 6.97917 17.4125 6.5875C17.0208 6.19583 16.55 6 16 6H15C14.45 6 13.9792 5.80417 13.5875 5.4125C13.1958 5.02083 13 4.55 13 4V0ZM10.725 13C9.99167 13 9.32917 12.7875 8.7375 12.3625C8.14583 11.9375 7.73333 11.375 7.5 10.675C7.41667 10.475 7.29167 10.3125 7.125 10.1875C6.95833 10.0625 6.76667 10 6.55 10H6V8H6.55C7.2 8 7.7875 8.1875 8.3125 8.5625C8.8375 8.9375 9.2 9.43333 9.4 10.05C9.48333 10.3333 9.65 10.5625 9.9 10.7375C10.15 10.9125 10.425 11 10.725 11H11.275C11.575 11 11.85 10.9125 12.1 10.7375C12.35 10.5625 12.5167 10.3333 12.6 10.05C12.8 9.43333 13.1625 8.9375 13.6875 8.5625C14.2125 8.1875 14.8 8 15.45 8H16V10H15.45C15.2333 10 15.0375 10.0625 14.8625 10.1875C14.6875 10.3125 14.5667 10.475 14.5 10.675C14.2667 11.375 13.8542 11.9375 13.2625 12.3625C12.6708 12.7875 12.0083 13 11.275 13H10.725Z" fill="#1C1B1F"/>
</svg>