<svg width="10" height="12" viewBox="0 0 10 12" fill="none" xmlns="http://www.w3.org/2000/svg">
<path d="M5.48001 8.824C4.77601 8.824 4.13068 8.664 3.54401 8.344C2.96801 8.01333 2.50401 7.528 2.15201 6.888C1.81068 6.248 1.64001 5.448 1.64001 4.488C1.64001 3.528 1.80534 2.728 2.13601 2.088C2.47734 1.448 2.93601 0.967999 3.51201 0.648C4.09868 0.327999 4.75468 0.167999 5.48001 0.167999C6.31201 0.167999 7.04801 0.349332 7.68801 0.711999C8.32801 1.07467 8.83468 1.58133 9.20801 2.232C9.58134 2.872 9.76801 3.624 9.76801 4.488C9.76801 5.352 9.58134 6.10933 9.20801 6.76C8.83468 7.41067 8.32801 7.91733 7.68801 8.28C7.04801 8.64267 6.31201 8.824 5.48001 8.824ZM0.984009 11.832V0.247999H2.45601V2.536L2.36001 4.504L2.52001 6.472V11.832H0.984009ZM5.35201 7.48C5.89601 7.48 6.38134 7.35733 6.80801 7.112C7.24534 6.86667 7.58668 6.52 7.83201 6.072C8.08801 5.61333 8.21601 5.08533 8.21601 4.488C8.21601 3.88 8.08801 3.35733 7.83201 2.92C7.58668 2.472 7.24534 2.12533 6.80801 1.88C6.38134 1.63467 5.89601 1.512 5.35201 1.512C4.81868 1.512 4.33334 1.63467 3.89601 1.88C3.46934 2.12533 3.12801 2.472 2.87201 2.92C2.62668 3.35733 2.50401 3.88 2.50401 4.488C2.50401 5.08533 2.62668 5.61333 2.87201 6.072C3.12801 6.52 3.46934 6.86667 3.89601 7.112C4.33334 7.35733 4.81868 7.48 5.35201 7.48Z" fill="currentColor"/>
</svg>
