<svg width="17" height="17" viewBox="0 0 17 17" fill="none" xmlns="http://www.w3.org/2000/svg">
<path d="M15 0L0 15L2 17L17 2M3.5 0.5C2.70435 0.5 1.94129 0.816071 1.37868 1.37868C0.816071 1.94129 0.5 2.70435 0.5 3.5C0.5 4.29565 0.816071 5.05871 1.37868 5.62132C1.94129 6.18393 2.70435 6.5 3.5 6.5C4.29565 6.5 5.05871 6.18393 5.62132 5.62132C6.18393 5.05871 6.5 4.29565 6.5 3.5C6.5 2.70435 6.18393 1.94129 5.62132 1.37868C5.05871 0.816071 4.29565 0.5 3.5 0.5ZM13.5 10.5C12.7044 10.5 11.9413 10.8161 11.3787 11.3787C10.8161 11.9413 10.5 12.7044 10.5 13.5C10.5 14.2956 10.8161 15.0587 11.3787 15.6213C11.9413 16.1839 12.7044 16.5 13.5 16.5C14.2956 16.5 15.0587 16.1839 15.6213 15.6213C16.1839 15.0587 16.5 14.2956 16.5 13.5C16.5 12.7044 16.1839 11.9413 15.6213 11.3787C15.0587 10.8161 14.2956 10.5 13.5 10.5Z" fill="black"/>
</svg>