<svg width="8" height="9" viewBox="0 0 8 9" fill="none" xmlns="http://www.w3.org/2000/svg">
<path d="M4.75 1.02464C4.75 0.610429 4.41421 0.274643 4 0.274643C3.58579 0.274643 3.25 0.610429 3.25 1.02464V3.52464H0.75C0.335786 3.52464 0 3.86043 0 4.27464C0 4.68886 0.335786 5.02464 0.75 5.02464L3.25 5.02464V7.52464C3.25 7.93886 3.58579 8.27464 4 8.27464C4.41421 8.27464 4.75 7.93886 4.75 7.52464V5.02464L7.25 5.02464C7.66421 5.02464 8 4.68886 8 4.27464C8 3.86043 7.66421 3.52464 7.25 3.52464H4.75V1.02464Z" fill="currentColor"/>
</svg>
