<svg width="9" height="8" viewBox="0 0 9 8" fill="none" xmlns="http://www.w3.org/2000/svg">
<path d="M5.62476 0.75C5.62476 0.335786 5.28897 0 4.87476 0C4.46054 0 4.12476 0.335786 4.12476 0.75V3.25H1.62476C1.21054 3.25 0.874756 3.58579 0.874756 4C0.874756 4.41421 1.21054 4.75 1.62476 4.75L4.12476 4.75V7.25C4.12476 7.66421 4.46054 8 4.87476 8C5.28897 8 5.62476 7.66421 5.62476 7.25V4.75L8.12476 4.75C8.53897 4.75 8.87476 4.41421 8.87476 4C8.87476 3.58579 8.53897 3.25 8.12476 3.25H5.62476V0.75Z" fill="currentColor"/>
</svg>
