<svg width="20" height="20" viewBox="0 0 20 20" fill="none" xmlns="http://www.w3.org/2000/svg">
<path d="M3 20V15.7C2.05 14.8333 1.3125 13.8208 0.7875 12.6625C0.2625 11.5042 0 10.2833 0 9C0 6.5 0.875 4.375 2.625 2.625C4.375 0.875 6.5 0 9 0C11.0833 0 12.9292 0.6125 14.5375 1.8375C16.1458 3.0625 17.1917 4.65833 17.675 6.625L18.975 11.75C19.0583 12.0667 19 12.3542 18.8 12.6125C18.6 12.8708 18.3333 13 18 13H16V16C16 16.55 15.8042 17.0208 15.4125 17.4125C15.0208 17.8042 14.55 18 14 18H12V20H3ZM9 14C9.28333 14 9.52083 13.9042 9.7125 13.7125C9.90417 13.5208 10 13.2833 10 13C10 12.7167 9.90417 12.4792 9.7125 12.2875C9.52083 12.0958 9.28333 12 9 12C8.71667 12 8.47917 12.0958 8.2875 12.2875C8.09583 12.4792 8 12.7167 8 13C8 13.2833 8.09583 13.5208 8.2875 13.7125C8.47917 13.9042 8.71667 14 9 14ZM8.25 10.8H9.775C9.775 10.3833 9.82917 10.0458 9.9375 9.7875C10.0458 9.52917 10.2667 9.21667 10.6 8.85C10.9 8.51667 11.1917 8.17917 11.475 7.8375C11.7583 7.49583 11.9 7.05 11.9 6.5C11.9 5.8 11.6292 5.20833 11.0875 4.725C10.5458 4.24167 9.875 4 9.075 4C8.40833 4 7.80417 4.19167 7.2625 4.575C6.72083 4.95833 6.34167 5.45833 6.125 6.075L7.5 6.65C7.61667 6.28333 7.82083 5.9875 8.1125 5.7625C8.40417 5.5375 8.725 5.425 9.075 5.425C9.44167 5.425 9.74583 5.525 9.9875 5.725C10.2292 5.925 10.35 6.18333 10.35 6.5C10.35 6.85 10.2458 7.1625 10.0375 7.4375C9.82917 7.7125 9.58333 7.99167 9.3 8.275C8.96667 8.625 8.70833 8.975 8.525 9.325C8.34167 9.675 8.25 10.1667 8.25 10.8Z" fill="#1C1B1F"/>
</svg>