<svg width="21" height="21" viewBox="0 0 21 21" fill="none" xmlns="http://www.w3.org/2000/svg">
<path d="M9.61 6.17L5.1 1.66C6.68 0.61 8.57 0 10.61 0C16.13 0 20.61 4.48 20.61 10C20.61 12.04 20 13.93 18.95 15.51L17.49 14.05C18.2 12.87 18.61 11.48 18.61 10C18.61 6.65 16.54 3.78 13.61 2.59V3C13.61 4.1 12.71 5 11.61 5H9.61V6.17ZM19.8 19.19L18.39 20.6L16.12 18.33C14.54 19.39 12.65 20 10.61 20C5.09 20 0.61 15.52 0.61 10C0.61 7.96 1.22 6.07 2.27 4.49L0 2.22L1.41 0.81L19.8 19.19ZM9.61 16C8.51 16 7.61 15.1 7.61 14V13L2.82 8.21C2.69 8.79 2.61 9.38 2.61 10C2.61 14.08 5.66 17.44 9.61 17.93V16Z" fill="#323232"/>
</svg>