<svg width="20" height="19" viewBox="0 0 20 19" fill="none" xmlns="http://www.w3.org/2000/svg">
<path d="M3 19C2.15 19 1.4375 18.7125 0.8625 18.1375C0.2875 17.5625 0 16.85 0 16V11.825L2.625 4.8C2.825 4.25 3.175 3.8125 3.675 3.4875C4.175 3.1625 4.71667 3 5.3 3C5.73333 3 6.14167 3.10833 6.525 3.325C6.90833 3.54167 7.225 3.83333 7.475 4.2V7L4.925 9.55L6 10.6L9 7.6V0H11V7.6L14 10.6L15.05 9.55L12.5 7V4.2C12.75 3.83333 13.0667 3.54167 13.45 3.325C13.8333 3.10833 14.2417 3 14.675 3C15.2583 3 15.7958 3.1625 16.2875 3.4875C16.7792 3.8125 17.1333 4.25 17.35 4.8L19.975 11.825V16C19.975 16.85 19.6833 17.5625 19.1 18.1375C18.5167 18.7125 17.8083 19 16.975 19H13.975C13.1417 19 12.4375 18.7125 11.8625 18.1375C11.2875 17.5625 11 16.85 11 16V14L11.375 10.825L10 9.425L8.6 10.825L9 14V16C9 16.85 8.70833 17.5625 8.125 18.1375C7.54167 18.7125 6.83333 19 6 19H3Z" fill="#1C1B1F"/>
</svg>