<svg width="10" height="12" viewBox="0 0 10 12" fill="none" xmlns="http://www.w3.org/2000/svg">
<path d="M5.05607 8.824C4.23473 8.824 3.49873 8.64267 2.84807 8.28C2.20807 7.91733 1.7014 7.41067 1.32807 6.76C0.954733 6.10933 0.768066 5.352 0.768066 4.488C0.768066 3.624 0.954733 2.872 1.32807 2.232C1.7014 1.58133 2.20807 1.07467 2.84807 0.711999C3.49873 0.349332 4.23473 0.167999 5.05607 0.167999C5.79207 0.167999 6.44807 0.327999 7.02407 0.648C7.60007 0.967999 8.0534 1.448 8.38407 2.088C8.7254 2.728 8.89607 3.528 8.89607 4.488C8.89607 5.448 8.72007 6.248 8.36807 6.888C8.02673 7.528 7.56807 8.01333 6.99207 8.344C6.41607 8.664 5.77073 8.824 5.05607 8.824ZM5.18407 7.48C5.7174 7.48 6.1974 7.35733 6.62407 7.112C7.0614 6.86667 7.40273 6.52 7.64807 6.072C7.90407 5.61333 8.03207 5.08533 8.03207 4.488C8.03207 3.88 7.90407 3.35733 7.64807 2.92C7.40273 2.472 7.0614 2.12533 6.62407 1.88C6.1974 1.63467 5.7174 1.512 5.18407 1.512C4.64007 1.512 4.15473 1.63467 3.72807 1.88C3.3014 2.12533 2.96007 2.472 2.70407 2.92C2.44807 3.35733 2.32007 3.88 2.32007 4.488C2.32007 5.08533 2.44807 5.61333 2.70407 6.072C2.96007 6.52 3.3014 6.86667 3.72807 7.112C4.15473 7.35733 4.64007 7.48 5.18407 7.48ZM8.01607 11.832V6.472L8.17607 4.504L8.08007 2.536V0.247999H9.55207V11.832H8.01607Z" fill="currentColor"/>
</svg>
