<svg width="17" height="17" viewBox="0 0 17 17" fill="none" xmlns="http://www.w3.org/2000/svg">
<path d="M16.8539 8.27464C16.8539 12.6929 13.2722 16.2746 8.85388 16.2746C4.4356 16.2746 0.853882 12.6929 0.853882 8.27464C0.853882 3.85637 4.4356 0.274643 8.85388 0.274643C13.2722 0.274643 16.8539 3.85637 16.8539 8.27464ZM8.85388 3.27464C8.43967 3.27464 8.10388 3.61043 8.10388 4.02464V8.52464C8.10388 8.93886 8.43967 9.27464 8.85388 9.27464C9.2681 9.27464 9.60388 8.93886 9.60388 8.52464V4.02464C9.60388 3.61043 9.2681 3.27464 8.85388 3.27464ZM8.85388 13.2746C9.40617 13.2746 9.85388 12.8269 9.85388 12.2746C9.85388 11.7224 9.40617 11.2746 8.85388 11.2746C8.3016 11.2746 7.85388 11.7224 7.85388 12.2746C7.85388 12.8269 8.3016 13.2746 8.85388 13.2746Z" fill="currentColor"/>
</svg>
