<svg width="17" height="17" viewBox="0 0 17 17" fill="none" xmlns="http://www.w3.org/2000/svg">
<path d="M16.8539 8.27464C16.8539 12.6929 13.2722 16.2746 8.85388 16.2746C4.4356 16.2746 0.853882 12.6929 0.853882 8.27464C0.853882 3.85637 4.4356 0.274643 8.85388 0.274643C13.2722 0.274643 16.8539 3.85637 16.8539 8.27464ZM7.79322 5.21396C8.37901 4.62817 9.32876 4.62817 9.91454 5.21396C10.5003 5.79974 10.5003 6.74949 9.91454 7.33528C9.70549 7.54433 9.45211 7.67782 9.18522 7.73786C8.67383 7.8529 8.10388 8.30432 8.10388 9.02462V9.52461C8.10388 9.93883 8.43967 10.2746 8.85388 10.2746C9.2681 10.2746 9.60388 9.93883 9.60388 9.52461V9.17972C10.1067 9.05027 10.5827 8.78842 10.9752 8.39594C12.1468 7.22436 12.1468 5.32487 10.9752 4.1533C9.80363 2.98172 7.90413 2.98172 6.73256 4.1533C6.43967 4.44619 6.43967 4.92106 6.73256 5.21396C7.02545 5.50685 7.50033 5.50685 7.79322 5.21396ZM8.85388 13.2746C9.40617 13.2746 9.85388 12.8269 9.85388 12.2746C9.85388 11.7224 9.40617 11.2746 8.85388 11.2746C8.3016 11.2746 7.85388 11.7224 7.85388 12.2746C7.85388 12.8269 8.3016 13.2746 8.85388 13.2746Z" fill="currentColor"/>
</svg>
