<svg width="16" height="19" viewBox="0 0 16 19" fill="none" xmlns="http://www.w3.org/2000/svg">
<path d="M2 19V18L3.5 17C2.51667 17 1.6875 16.6625 1.0125 15.9875C0.3375 15.3125 0 14.4833 0 13.5V4C0 2.61667 0.641667 1.60417 1.925 0.9625C3.20833 0.320833 5.23333 0 8 0C10.8667 0 12.9167 0.308333 14.15 0.925C15.3833 1.54167 16 2.56667 16 4V13.5C16 14.4833 15.6625 15.3125 14.9875 15.9875C14.3125 16.6625 13.4833 17 12.5 17L14 18V19H2ZM2 8H14V5H2V8ZM8 14C8.41667 14 8.77083 13.8542 9.0625 13.5625C9.35417 13.2708 9.5 12.9167 9.5 12.5C9.5 12.0833 9.35417 11.7292 9.0625 11.4375C8.77083 11.1458 8.41667 11 8 11C7.58333 11 7.22917 11.1458 6.9375 11.4375C6.64583 11.7292 6.5 12.0833 6.5 12.5C6.5 12.9167 6.64583 13.2708 6.9375 13.5625C7.22917 13.8542 7.58333 14 8 14ZM3.5 15H12.5C12.9333 15 13.2917 14.8583 13.575 14.575C13.8583 14.2917 14 13.9333 14 13.5V10H2V13.5C2 13.9333 2.14167 14.2917 2.425 14.575C2.70833 14.8583 3.06667 15 3.5 15ZM8 2C6.56667 2 5.37917 2.08333 4.4375 2.25C3.49583 2.41667 2.83333 2.66667 2.45 3H13.65C13.35 2.66667 12.7292 2.41667 11.7875 2.25C10.8458 2.08333 9.58333 2 8 2Z" fill="#1C1B1F"/>
</svg>