<svg width="19" height="21" viewBox="0 0 19 21" fill="none" xmlns="http://www.w3.org/2000/svg">
<path d="M9.56754 1.32221C5.23827 1.32221 1.72871 4.83178 1.72871 9.16105C1.72871 10.5699 1.95537 11.8729 2.53737 12.9729C2.90334 13.6646 3.41901 14.2939 4.13797 14.8262C4.31767 14.9569 4.50563 15.0799 4.70163 15.1944C5.74542 15.804 6.88519 16.0957 8.01102 16.1002L10.3891 16.1113L8.40981 14.1122C8.15223 13.852 8.15432 13.4323 8.41449 13.1747C8.67465 12.9171 9.09437 12.9192 9.35196 13.1794L12.4567 16.3153C12.7143 16.5754 12.7122 16.9951 12.452 17.2527L9.31617 20.3575C9.056 20.615 8.63628 20.613 8.3787 20.3528C8.12111 20.0926 8.1232 19.6729 8.38337 19.4153L10.3814 17.4371L8.00565 17.426C7.01584 17.422 6.01706 17.233 5.0625 16.8457L5.05944 16.853C4.73319 16.7146 4.42711 16.5636 4.1403 16.4008C4.10445 16.3806 4.06869 16.3601 4.03302 16.3392C3.99603 16.3176 3.95927 16.2958 3.92276 16.2737C2.7553 15.5623 1.92633 14.6453 1.36866 13.5913C0.652054 12.2369 0.406494 10.6992 0.406494 9.16105C0.406494 4.10154 4.50804 0 9.56754 0C14.6271 0 18.7286 4.10154 18.7286 9.16105C18.7286 12.2854 17.164 15.0442 14.7785 16.6966C14.4783 16.9045 14.0665 16.8298 13.8586 16.5296C13.6507 16.2295 13.7254 15.8176 14.0256 15.6097C16.0698 14.1937 17.4064 11.8334 17.4064 9.16105C17.4064 4.83178 13.8968 1.32221 9.56754 1.32221Z" fill="currentColor"/>
<path d="M12.4084 6.83184C12.4084 6.18526 11.8488 5.66111 11.1584 5.66111C10.4681 5.66111 9.90845 6.18526 9.90845 6.83184C9.90845 7.47842 10.4681 8.00257 11.1584 8.00257C11.8488 8.00257 12.4084 7.47842 12.4084 6.83184Z" fill="currentColor"/>
<path d="M9.28345 6.83184C9.28345 7.07431 9.07358 7.27086 8.8147 7.27086H5.3772C5.11831 7.27086 4.90845 7.07431 4.90845 6.83184C4.90845 6.58937 5.11831 6.39281 5.3772 6.39281H8.8147C9.07358 6.39281 9.28345 6.58937 9.28345 6.83184Z" fill="currentColor"/>
<path d="M6.78345 10.4904C6.78345 10.7328 6.57358 10.9294 6.3147 10.9294H5.3772C5.11831 10.9294 4.90845 10.7328 4.90845 10.4904C4.90845 10.2479 5.11831 10.0514 5.3772 10.0514H6.3147C6.57358 10.0514 6.78345 10.2479 6.78345 10.4904Z" fill="currentColor"/>
<path d="M14.9084 10.4904C14.9084 10.7328 14.6986 10.9294 14.4397 10.9294H11.0022C10.7433 10.9294 10.5334 10.7328 10.5334 10.4904C10.5334 10.2479 10.7433 10.0514 11.0022 10.0514H14.4397C14.6986 10.0514 14.9084 10.2479 14.9084 10.4904Z" fill="currentColor"/>
<path d="M14.9084 6.83184C14.9084 7.07431 14.6986 7.27086 14.4397 7.27086H13.5022C13.2433 7.27086 13.0334 7.07431 13.0334 6.83184C13.0334 6.58937 13.2433 6.39281 13.5022 6.39281H14.4397C14.6986 6.39281 14.9084 6.58937 14.9084 6.83184Z" fill="currentColor"/>
<path d="M8.65845 9.31964C9.3488 9.31964 9.90845 9.8438 9.90845 10.4904C9.90845 11.137 9.3488 11.6611 8.65845 11.6611C7.96809 11.6611 7.40845 11.137 7.40845 10.4904C7.40845 9.8438 7.96809 9.31964 8.65845 9.31964Z" fill="currentColor"/>
</svg>
