<svg width="19" height="21" viewBox="0 0 19 21" fill="none" xmlns="http://www.w3.org/2000/svg">
<path d="M9.69279 1.32221C5.36352 1.32221 1.85395 4.83178 1.85395 9.16105C1.85395 10.5699 2.08061 11.8729 2.66261 12.9729C3.02859 13.6646 3.54425 14.2939 4.26321 14.8262C4.44292 14.9569 4.63087 15.0799 4.82688 15.1944C5.87066 15.804 7.01043 16.0957 8.13627 16.1002L10.5143 16.1113L8.53506 14.1122C8.27747 13.852 8.27956 13.4323 8.53973 13.1747C8.7999 12.9171 9.21961 12.9192 9.4772 13.1794L12.5819 16.3153C12.8395 16.5754 12.8374 16.9951 12.5773 17.2527L9.44141 20.3575C9.18124 20.615 8.76152 20.613 8.50394 20.3528C8.24636 20.0926 8.24845 19.6729 8.50861 19.4153L10.5067 17.4371L8.13089 17.426C7.14108 17.422 6.1423 17.233 5.18774 16.8457L5.18468 16.853C4.85843 16.7146 4.55235 16.5636 4.26555 16.4008C4.22969 16.3806 4.19393 16.3601 4.15826 16.3392C4.12127 16.3176 4.08452 16.2958 4.048 16.2737C2.88054 15.5623 2.05157 14.6453 1.4939 13.5913C0.777298 12.2369 0.531738 10.6992 0.531738 9.16105C0.531738 4.10154 4.63328 0 9.69279 0C14.7523 0 18.8538 4.10154 18.8538 9.16105C18.8538 12.2854 17.2892 15.0442 14.9037 16.6966C14.6036 16.9045 14.1917 16.8298 13.9838 16.5296C13.7759 16.2295 13.8507 15.8176 14.1508 15.6097C16.195 14.1937 17.5316 11.8334 17.5316 9.16105C17.5316 4.83178 14.0221 1.32221 9.69279 1.32221Z" fill="currentColor"/>
<path d="M12.5337 6.83184C12.5337 6.18526 11.974 5.66111 11.2837 5.66111C10.5933 5.66111 10.0337 6.18526 10.0337 6.83184C10.0337 7.47842 10.5933 8.00257 11.2837 8.00257C11.974 8.00257 12.5337 7.47842 12.5337 6.83184Z" fill="currentColor"/>
<path d="M9.40869 6.83184C9.40869 7.07431 9.19882 7.27086 8.93994 7.27086H5.50244C5.24356 7.27086 5.03369 7.07431 5.03369 6.83184C5.03369 6.58937 5.24356 6.39281 5.50244 6.39281H8.93994C9.19882 6.39281 9.40869 6.58937 9.40869 6.83184Z" fill="currentColor"/>
<path d="M6.90869 10.4904C6.90869 10.7328 6.69882 10.9294 6.43994 10.9294H5.50244C5.24356 10.9294 5.03369 10.7328 5.03369 10.4904C5.03369 10.2479 5.24356 10.0514 5.50244 10.0514H6.43994C6.69882 10.0514 6.90869 10.2479 6.90869 10.4904Z" fill="currentColor"/>
<path d="M15.0337 10.4904C15.0337 10.7328 14.8238 10.9294 14.5649 10.9294H11.1274C10.8686 10.9294 10.6587 10.7328 10.6587 10.4904C10.6587 10.2479 10.8686 10.0514 11.1274 10.0514H14.5649C14.8238 10.0514 15.0337 10.2479 15.0337 10.4904Z" fill="currentColor"/>
<path d="M15.0337 6.83184C15.0337 7.07431 14.8238 7.27086 14.5649 7.27086H13.6274C13.3686 7.27086 13.1587 7.07431 13.1587 6.83184C13.1587 6.58937 13.3686 6.39281 13.6274 6.39281H14.5649C14.8238 6.39281 15.0337 6.58937 15.0337 6.83184Z" fill="currentColor"/>
<path d="M8.78369 9.31964C9.47405 9.31964 10.0337 9.8438 10.0337 10.4904C10.0337 11.137 9.47405 11.6611 8.78369 11.6611C8.09334 11.6611 7.53369 11.137 7.53369 10.4904C7.53369 9.8438 8.09334 9.31964 8.78369 9.31964Z" fill="currentColor"/>
</svg>
