<svg width="20" height="18" viewBox="0 0 20 18" fill="none" xmlns="http://www.w3.org/2000/svg">
<path d="M13 18V11.9C13 11.4167 13.1583 10.9917 13.475 10.625C13.7917 10.2583 14.1917 10.0333 14.675 9.95C15.6417 9.78333 16.4375 9.32917 17.0625 8.5875C17.6875 7.84583 18 6.98333 18 6C18 4.9 17.6083 3.95833 16.825 3.175C16.0417 2.39167 15.1 2 14 2C13.0167 2 12.1542 2.3125 11.4125 2.9375C10.6708 3.5625 10.2167 4.35833 10.05 5.325C9.96667 5.80833 9.74167 6.20833 9.375 6.525C9.00833 6.84167 8.58333 7 8.1 7H3.825L5.425 8.6L4 10L0 6L4 2L5.4 3.4L3.825 5H8.075C8.30833 3.53333 8.9875 2.33333 10.1125 1.4C11.2375 0.466667 12.5333 0 14 0C15.6667 0 17.0833 0.583333 18.25 1.75C19.4167 2.91667 20 4.33333 20 6C20 7.46667 19.5333 8.7625 18.6 9.8875C17.6667 11.0125 16.4667 11.6917 15 11.925V18H13Z" fill="#1C1B1F"/>
</svg>