<svg width="20" height="18" viewBox="0 0 20 18" fill="none" xmlns="http://www.w3.org/2000/svg">
<path d="M5 18V11.925C3.53333 11.6917 2.33333 11.0125 1.4 9.8875C0.466667 8.7625 0 7.46667 0 6C0 4.33333 0.583333 2.91667 1.75 1.75C2.91667 0.583333 4.33333 0 6 0C7.46667 0 8.7625 0.466667 9.8875 1.4C11.0125 2.33333 11.6917 3.53333 11.925 5H16.175L14.6 3.4L16 2L20 6L16 10L14.575 8.6L16.175 7H11.9C11.4167 7 10.9917 6.84167 10.625 6.525C10.2583 6.20833 10.0333 5.80833 9.95 5.325C9.78333 4.35833 9.32917 3.5625 8.5875 2.9375C7.84583 2.3125 6.98333 2 6 2C4.9 2 3.95833 2.39167 3.175 3.175C2.39167 3.95833 2 4.9 2 6C2 6.98333 2.3125 7.84583 2.9375 8.5875C3.5625 9.32917 4.35833 9.78333 5.325 9.95C5.80833 10.0333 6.20833 10.2583 6.525 10.625C6.84167 10.9917 7 11.4167 7 11.9V18H5Z" fill="#1C1B1F"/>
</svg>