<svg width="8" height="10" viewBox="0 0 8 10" fill="none" xmlns="http://www.w3.org/2000/svg">
<path d="M3.61606 9.328C2.91206 9.328 2.24006 9.232 1.60006 9.04C0.970727 8.848 0.474727 8.61333 0.112061 8.336L0.752061 7.12C1.11473 7.36533 1.56273 7.57333 2.09606 7.744C2.62939 7.91466 3.17339 8 3.72806 8C4.44273 8 4.95473 7.89866 5.26406 7.696C5.58406 7.49333 5.74406 7.21066 5.74406 6.848C5.74406 6.58133 5.64806 6.37333 5.45606 6.224C5.26406 6.07466 5.00806 5.96266 4.68806 5.888C4.37873 5.81333 4.03206 5.74933 3.64806 5.696C3.26406 5.632 2.88006 5.55733 2.49606 5.472C2.11206 5.376 1.76006 5.248 1.44006 5.088C1.12006 4.91733 0.864061 4.688 0.672061 4.4C0.480061 4.10133 0.384061 3.70666 0.384061 3.216C0.384061 2.704 0.528061 2.256 0.816061 1.872C1.10406 1.488 1.50939 1.19466 2.03206 0.991997C2.56539 0.778664 3.19473 0.671997 3.92006 0.671997C4.47473 0.671997 5.03473 0.74133 5.60006 0.879997C6.17606 1.008 6.64539 1.19466 7.00806 1.44L6.35206 2.656C5.96806 2.4 5.56806 2.224 5.15206 2.128C4.73606 2.032 4.32006 1.984 3.90406 1.984C3.23206 1.984 2.73073 2.096 2.40006 2.32C2.06939 2.53333 1.90406 2.81066 1.90406 3.152C1.90406 3.44 2.00006 3.664 2.19206 3.824C2.39473 3.97333 2.65073 4.09066 2.96006 4.176C3.28006 4.26133 3.63206 4.336 4.01606 4.4C4.40006 4.45333 4.78406 4.528 5.16806 4.624C5.55206 4.70933 5.89873 4.832 6.20806 4.992C6.52806 5.152 6.78406 5.376 6.97606 5.664C7.17873 5.952 7.28006 6.336 7.28006 6.816C7.28006 7.328 7.13073 7.77066 6.83206 8.144C6.53339 8.51733 6.11206 8.81066 5.56806 9.024C5.02406 9.22666 4.37339 9.328 3.61606 9.328Z" fill="currentColor"/>
</svg>
