<svg width="17" height="18" viewBox="0 0 17 18" fill="none" xmlns="http://www.w3.org/2000/svg">
<path fill-rule="evenodd" clip-rule="evenodd" d="M7.15918 2.125C4.05258 2.125 1.53418 4.6434 1.53418 7.75C1.53418 10.8566 4.05258 13.375 7.15918 13.375C8.71265 13.375 10.118 12.7461 11.1367 11.7275C12.1553 10.7089 12.7842 9.30347 12.7842 7.75C12.7842 4.6434 10.2658 2.125 7.15918 2.125ZM0.28418 7.75C0.28418 3.95304 3.36222 0.875 7.15918 0.875C10.9561 0.875 14.0342 3.95304 14.0342 7.75C14.0342 9.42319 13.4358 10.9575 12.4425 12.1494L16.3511 16.0581C16.5952 16.3021 16.5952 16.6979 16.3511 16.9419C16.107 17.186 15.7113 17.186 15.4672 16.9419L11.5586 13.0333C10.3667 14.0266 8.83237 14.625 7.15918 14.625C3.36222 14.625 0.28418 11.547 0.28418 7.75Z" fill="currentColor"/>
</svg>
