<svg width="17" height="17" viewBox="0 0 17 17" fill="none" xmlns="http://www.w3.org/2000/svg">
<path fill-rule="evenodd" clip-rule="evenodd" d="M7.62317 1.25C4.51657 1.25 1.99817 3.7684 1.99817 6.875C1.99817 9.9816 4.51657 12.5 7.62317 12.5C9.17664 12.5 10.582 11.8711 11.6006 10.8525C12.6193 9.83387 13.2482 8.42847 13.2482 6.875C13.2482 3.7684 10.7298 1.25 7.62317 1.25ZM0.748169 6.875C0.748169 3.07804 3.82621 0 7.62317 0C11.4201 0 14.4982 3.07804 14.4982 6.875C14.4982 8.54819 13.8998 10.0825 12.9064 11.2744L16.8151 15.1831C17.0592 15.4271 17.0592 15.8229 16.8151 16.0669C16.571 16.311 16.1753 16.311 15.9312 16.0669L12.0226 12.1583C10.8307 13.1516 9.29636 13.75 7.62317 13.75C3.82621 13.75 0.748169 10.672 0.748169 6.875Z" fill="currentColor"/>
</svg>
