<svg width="20" height="11" viewBox="0 0 20 11" fill="none" xmlns="http://www.w3.org/2000/svg">
<path d="M3 6C3.78 6 4.55 5.7 5.14 5.1C6.3 3.91 6.28 2.02 5.1 0.86C4.51 0.29 3.75 0 3 0C2.22 0 1.45 0.3 0.86 0.9C-0.3 2.09 -0.28 3.98 0.9 5.14C1.49 5.71 2.25 6 3 6ZM2.29 2.3C2.48 2.11 2.73 2 3 2C3.26 2 3.51 2.1 3.7 2.28C4.1 2.67 4.1 3.29 3.72 3.69C3.52 3.89 3.27 4 3 4C2.74 4 2.49 3.9 2.3 3.72C1.9 3.32 1.9 2.7 2.29 2.3ZM16 0H7V6H20V4C20 1.79 18.21 0 16 0ZM9 4V2H16C17.1 2 18 2.9 18 4H9ZM0 9H6V11H14V9H20V7H0V9Z" fill="#323232"/>
</svg>