<svg width="21" height="15" viewBox="0 0 21 15" fill="none" xmlns="http://www.w3.org/2000/svg">
<path d="M4.5 2C4.81 2 5.2 2.15 5.4 2.56C5.64 3.06 5.42 3.66 4.93 3.9C4.79 3.96 4.65 4 4.5 4C4.2 4 3.8 3.85 3.61 3.44C3.44 3.1 3.51 2.81 3.56 2.66C3.61 2.52 3.74 2.26 4.07 2.1C4.21 2.04 4.35 2 4.5 2ZM10.97 4.11L17.66 6.52C18.18 6.71 18.59 7.08 18.81 7.57C19.03 8.05 19.06 8.6 18.87 9.1L18.86 9.12L10.27 6.01L10.97 4.11ZM8.5 10.69L12.5 12.13V12.5H8.5V10.69ZM4.5 0C4.06 0 3.62 0.1 3.2 0.3C1.71 1.01 1.08 2.8 1.8 4.3C2.31 5.37 3.38 6 4.5 6C4.94 6 5.38 5.9 5.8 5.7C7.29 4.98 7.92 3.19 7.21 1.7C6.69 0.63 5.62 0 4.5 0ZM9.78 1.55L7.7 7.21L20.06 11.68L20.75 9.79C21.52 7.7 20.44 5.4 18.34 4.64L9.78 1.55ZM0.69 5.75L0 7.64L6.5 9.98V14.5H14.5V12.87L19.02 14.5L19.71 12.61L0.69 5.75Z" fill="#323232"/>
</svg>