<svg width="18" height="19" viewBox="0 0 18 19" fill="none" xmlns="http://www.w3.org/2000/svg">
<path fill-rule="evenodd" clip-rule="evenodd" d="M7.21165 1.07853C7.30514 0.611103 7.71555 0.274643 8.19223 0.274643H10.5526C11.0293 0.274643 11.4397 0.611103 11.5332 1.07853L11.8637 2.73093C12.568 2.99923 13.2178 3.37796 13.792 3.84597L15.3903 3.30529C15.8418 3.15254 16.3384 3.33974 16.5768 3.75256L17.757 5.79672C17.9953 6.20953 17.9091 6.73319 17.5511 7.04787L16.2843 8.1611C16.3423 8.52374 16.3724 8.89567 16.3724 9.27464C16.3724 9.65361 16.3423 10.0255 16.2843 10.3882L17.5511 11.5014C17.9091 11.8161 17.9953 12.3397 17.757 12.7526L16.5768 14.7967C16.3384 15.2095 15.8418 15.3967 15.3903 15.244L13.792 14.7033C13.2178 15.1713 12.568 15.5501 11.8637 15.8183L11.5332 17.4708C11.4397 17.9382 11.0293 18.2746 10.5526 18.2746H8.19223C7.71555 18.2746 7.30514 17.9382 7.21165 17.4708L6.88117 15.8184C6.17686 15.5501 5.52703 15.1713 4.95286 14.7033L3.35457 15.244C2.90303 15.3967 2.40644 15.2095 2.16809 14.7967L0.987899 12.7526C0.749559 12.3398 0.835734 11.8161 1.19379 11.5014L2.46051 10.3882C2.40255 10.0255 2.37243 9.65361 2.37243 9.27464C2.37243 8.89568 2.40254 8.52375 2.46051 8.16111L1.19379 7.04788C0.835734 6.73321 0.749558 6.20955 0.987899 5.79673L2.1681 3.75257C2.40644 3.33975 2.90303 3.15255 3.35457 3.30531L4.95285 3.84598C5.52702 3.37797 6.17685 2.99923 6.88117 2.73094L7.21165 1.07853ZM9.37243 12.2746C11.0293 12.2746 12.3724 10.9315 12.3724 9.27464C12.3724 7.61779 11.0293 6.27464 9.37243 6.27464C7.71558 6.27464 6.37243 7.61779 6.37243 9.27464C6.37243 10.9315 7.71558 12.2746 9.37243 12.2746Z" fill="currentColor"/>
</svg>
