<svg width="20" height="15" viewBox="0 0 20 15" fill="none" xmlns="http://www.w3.org/2000/svg">
<path d="M9 12V9.75C9 8.5 8 7.5 6.75 7.5C8 7.5 9 6.5 9 5.25V3C9 2.20435 8.68393 1.44129 8.12132 0.87868C7.55871 0.316071 6.79565 0 6 0H0V3H6V6H3V9H6V12H0V15H6C6.79565 15 7.55871 14.6839 8.12132 14.1213C8.68393 13.5587 9 12.7956 9 12ZM20 12V6H15.5V9H17V12H14V3H20V0H14C13.2044 0 12.4413 0.316071 11.8787 0.87868C11.3161 1.44129 11 2.20435 11 3V12C11 12.7956 11.3161 13.5587 11.8787 14.1213C12.4413 14.6839 13.2044 15 14 15H17C17.7956 15 18.5587 14.6839 19.1213 14.1213C19.6839 13.5587 20 12.7956 20 12Z" fill="black"/>
</svg>