<svg width="20" height="22" viewBox="0 0 20 22" fill="none" xmlns="http://www.w3.org/2000/svg">
<path d="M18.5 11.05H20V14.05H18.5V11.05ZM16 11.05H17.5V14.05H16V11.05ZM15 11.05H12.66L15 13.39V11.05ZM12.5 6.7H14.03C15.08 6.7 16 7.44 16 8.75V10.05H17.5V8.41C17.5 6.6 15.9 5.25 14.03 5.25H12.5C11.48 5.25 10.65 4.27 10.65 3.25C10.65 2.23 11.48 1.5 12.5 1.5V0C10.65 0 9.15 1.5 9.15 3.35C9.15 5.2 10.65 6.7 12.5 6.7ZM16.85 2.78C17.47 2.17 17.85 1.33 17.85 0.4H16.35C16.35 1.42 15.52 2.25 14.5 2.25V3.75C16.74 3.75 18.5 5.58 18.5 7.82V10.05H20V7.81C20 5.59 18.72 3.67 16.85 2.78ZM1.41 2.64L0 4.05L7 11.05H0V14.05H10L17 21.05L18.41 19.64L1.41 2.64Z" fill="#323232"/>
</svg>