<svg width="20" height="18" viewBox="0 0 20 18" fill="none" xmlns="http://www.w3.org/2000/svg">
<path d="M18.31 5.03L19.24 1.95C19.67 1.85 20 1.47 20 1C20 0.45 19.55 0 19 0C18.45 0 18 0.45 18 1C18 1.26 18.11 1.5 18.27 1.68L17.5 4.26L16.73 1.68C16.89 1.5 17 1.26 17 1C17 0.45 16.55 0 16 0C15.45 0 15 0.45 15 1C15 1.47 15.33 1.85 15.76 1.95L16.69 5.03C15.73 5.18 15 6 15 7V9.25C13.65 6.16 10.63 4 7.11 4C3.19 4 0 7.26 0 11.26C0 13.1 0.82 14.75 2.1 15.85L0.88 16C0.38 16.06 0 16.5 0 17C0 17.55 0.45 18 1 18H17.12C18.16 18 19 17.16 19 16.12V8.72C19.6 8.38 20 7.74 20 7C20 6 19.27 5.18 18.31 5.03ZM13.6 14.41L10.07 14.86C10.5 14.1 10.8 13.21 10.8 12.26C10.8 9.94 8.95 8.06 6.67 8.06C6.14 8.06 5.62 8.18 5.14 8.41C4.65 8.66 4.44 9.26 4.69 9.75C4.93 10.25 5.53 10.45 6.03 10.21C6.23 10.11 6.45 10.06 6.67 10.06C7.85 10.06 8.8 11.04 8.8 12.26C8.8 13.92 7.5 15.27 5.89 15.27C3.75 15.27 2 13.47 2 11.26C2 8.36 4.29 6 7.11 6C10.77 6 13.75 9.06 13.75 12.82C13.75 13.36 13.69 13.89 13.6 14.41Z" fill="black"/>
</svg>