<svg width="20" height="20" viewBox="0 0 20 20" fill="none" xmlns="http://www.w3.org/2000/svg">
<path d="M4 6H14V4H4V6ZM15 20C13.7833 20 12.7208 19.6208 11.8125 18.8625C10.9042 18.1042 10.3333 17.15 10.1 16H11.65C11.8667 16.7333 12.2792 17.3333 12.8875 17.8C13.4958 18.2667 14.2 18.5 15 18.5C15.9667 18.5 16.7917 18.1583 17.475 17.475C18.1583 16.7917 18.5 15.9667 18.5 15C18.5 14.0333 18.1583 13.2083 17.475 12.525C16.7917 11.8417 15.9667 11.5 15 11.5C14.5167 11.5 14.0667 11.5875 13.65 11.7625C13.2333 11.9375 12.8667 12.1833 12.55 12.5H14V14H10V10H11.5V11.425C11.95 10.9917 12.475 10.6458 13.075 10.3875C13.675 10.1292 14.3167 10 15 10C16.3833 10 17.5625 10.4875 18.5375 11.4625C19.5125 12.4375 20 13.6167 20 15C20 16.3833 19.5125 17.5625 18.5375 18.5375C17.5625 19.5125 16.3833 20 15 20ZM7.575 18H2C1.45 18 0.979167 17.8042 0.5875 17.4125C0.195833 17.0208 0 16.55 0 16V2C0 1.45 0.195833 0.979167 0.5875 0.5875C0.979167 0.195833 1.45 0 2 0H16C16.55 0 17.0208 0.195833 17.4125 0.5875C17.8042 0.979167 18 1.45 18 2V7.575C17.5167 7.39167 17.025 7.25 16.525 7.15C16.025 7.05 15.5167 7 15 7C14.3 7 13.625 7.0875 12.975 7.2625C12.325 7.4375 11.7083 7.68333 11.125 8H4V10H8.75C8.51667 10.3 8.3 10.6167 8.1 10.95C7.9 11.2833 7.725 11.6333 7.575 12H4V14H7.05C7.01667 14.1667 7 14.3292 7 14.4875V15C7 15.5167 7.05 16.025 7.15 16.525C7.25 17.025 7.39167 17.5167 7.575 18Z" fill="#1C1B1F"/>
</svg>