<svg width="17" height="16" viewBox="0 0 17 16" fill="none" xmlns="http://www.w3.org/2000/svg">
<path d="M8.87476 0C9.28897 0 9.62476 0.335786 9.62476 0.75V2.25C9.62476 2.66421 9.28897 3 8.87476 3C8.46054 3 8.12476 2.66421 8.12476 2.25V0.75C8.12476 0.335786 8.46054 0 8.87476 0Z" fill="currentColor"/>
<path d="M8.87476 13C9.28897 13 9.62476 13.3358 9.62476 13.75V15.25C9.62476 15.6642 9.28897 16 8.87476 16C8.46054 16 8.12476 15.6642 8.12476 15.25V13.75C8.12476 13.3358 8.46054 13 8.87476 13Z" fill="currentColor"/>
<path d="M8.87476 5C7.2179 5 5.87476 6.34315 5.87476 8C5.87476 9.65685 7.2179 11 8.87476 11C10.5316 11 11.8748 9.65685 11.8748 8C11.8748 6.34315 10.5316 5 8.87476 5Z" fill="currentColor"/>
<path d="M14.5316 3.40386C14.8244 3.11096 14.8244 2.63609 14.5316 2.3432C14.2387 2.0503 13.7638 2.0503 13.4709 2.3432L12.4102 3.40386C12.1173 3.69675 12.1173 4.17162 12.4102 4.46452C12.7031 4.75741 13.178 4.75741 13.4709 4.46452L14.5316 3.40386Z" fill="currentColor"/>
<path d="M5.33916 12.5962C5.63206 12.3034 5.63206 11.8285 5.33916 11.5356C5.04627 11.2427 4.5714 11.2427 4.2785 11.5356L3.21784 12.5962C2.92495 12.8891 2.92495 13.364 3.21784 13.6569C3.51074 13.9498 3.98561 13.9498 4.2785 13.6569L5.33916 12.5962Z" fill="currentColor"/>
<path d="M16.8748 8C16.8748 8.41421 16.539 8.75 16.1248 8.75H14.6248C14.2105 8.75 13.8748 8.41421 13.8748 8C13.8748 7.58579 14.2105 7.25 14.6248 7.25H16.1248C16.539 7.25 16.8748 7.58579 16.8748 8Z" fill="currentColor"/>
<path d="M3.87476 8C3.87476 8.41421 3.53897 8.75 3.12476 8.75H1.62476C1.21054 8.75 0.874756 8.41421 0.874756 8C0.874756 7.58579 1.21054 7.25 1.62476 7.25H3.12476C3.53897 7.25 3.87476 7.58579 3.87476 8Z" fill="currentColor"/>
<path d="M13.4708 13.6568C13.7637 13.9497 14.2385 13.9497 14.5314 13.6568C14.8243 13.3639 14.8243 12.889 14.5314 12.5961L13.4708 11.5355C13.1779 11.2426 12.703 11.2426 12.4101 11.5355C12.1172 11.8284 12.1172 12.3032 12.4101 12.5961L13.4708 13.6568Z" fill="currentColor"/>
<path d="M4.27839 4.46441C4.57128 4.7573 5.04616 4.7573 5.33905 4.46441C5.63194 4.17151 5.63194 3.69664 5.33905 3.40375L4.27839 2.34309C3.9855 2.05019 3.51062 2.05019 3.21773 2.34309C2.92484 2.63598 2.92484 3.11085 3.21773 3.40375L4.27839 4.46441Z" fill="currentColor"/>
</svg>
