<svg width="16" height="16" viewBox="0 0 16 16" fill="currentColor" xmlns="http://www.w3.org/2000/svg">
<path d="M8 0C8.41421 0 8.75 0.335786 8.75 0.75V2.25C8.75 2.66421 8.41421 3 8 3C7.58579 3 7.25 2.66421 7.25 2.25V0.75C7.25 0.335786 7.58579 0 8 0Z" />
<path d="M8 13C8.41421 13 8.75 13.3358 8.75 13.75V15.25C8.75 15.6642 8.41421 16 8 16C7.58579 16 7.25 15.6642 7.25 15.25V13.75C7.25 13.3358 7.58579 13 8 13Z" />
<path d="M8 5C6.34315 5 5 6.34315 5 8C5 9.65685 6.34315 11 8 11C9.65685 11 11 9.65685 11 8C11 6.34315 9.65685 5 8 5Z" />
<path d="M13.6568 3.40386C13.9497 3.11096 13.9497 2.63609 13.6568 2.3432C13.3639 2.0503 12.889 2.0503 12.5961 2.3432L11.5355 3.40386C11.2426 3.69675 11.2426 4.17162 11.5355 4.46452C11.8284 4.75741 12.3032 4.75741 12.5961 4.46452L13.6568 3.40386Z" />
<path d="M4.46441 12.5962C4.7573 12.3034 4.7573 11.8285 4.46441 11.5356C4.17151 11.2427 3.69664 11.2427 3.40375 11.5356L2.34309 12.5962C2.05019 12.8891 2.05019 13.364 2.34309 13.6569C2.63598 13.9498 3.11085 13.9498 3.40375 13.6569L4.46441 12.5962Z" />
<path d="M16 8C16 8.41421 15.6642 8.75 15.25 8.75H13.75C13.3358 8.75 13 8.41421 13 8C13 7.58579 13.3358 7.25 13.75 7.25H15.25C15.6642 7.25 16 7.58579 16 8Z" />
<path d="M3 8C3 8.41421 2.66421 8.75 2.25 8.75H0.75C0.335787 8.75 0 8.41421 0 8C0 7.58579 0.335787 7.25 0.75 7.25H2.25C2.66421 7.25 3 7.58579 3 8Z" />
<path d="M12.596 13.6568C12.8889 13.9497 13.3638 13.9497 13.6567 13.6568C13.9496 13.3639 13.9496 12.889 13.6567 12.5961L12.596 11.5355C12.3031 11.2426 11.8283 11.2426 11.5354 11.5355C11.2425 11.8284 11.2425 12.3032 11.5354 12.5961L12.596 13.6568Z" />
<path d="M3.40363 4.46441C3.69653 4.7573 4.1714 4.7573 4.46429 4.46441C4.75719 4.17151 4.75719 3.69664 4.46429 3.40375L3.40363 2.34309C3.11074 2.05019 2.63587 2.05019 2.34297 2.34309C2.05008 2.63598 2.05008 3.11085 2.34297 3.40375L3.40363 4.46441Z" />
</svg>
