<svg width="16" height="17" viewBox="0 0 16 17" fill="none" xmlns="http://www.w3.org/2000/svg">
<path d="M8 0.274643C8.41421 0.274643 8.75 0.610429 8.75 1.02464V2.52464C8.75 2.93886 8.41421 3.27464 8 3.27464C7.58579 3.27464 7.25 2.93886 7.25 2.52464V1.02464C7.25 0.610429 7.58579 0.274643 8 0.274643Z" fill="currentColor"/>
<path d="M8 13.2746C8.41421 13.2746 8.75 13.6104 8.75 14.0246V15.5246C8.75 15.9389 8.41421 16.2746 8 16.2746C7.58579 16.2746 7.25 15.9389 7.25 15.5246V14.0246C7.25 13.6104 7.58579 13.2746 8 13.2746Z" fill="currentColor"/>
<path d="M8 5.27464C6.34315 5.27464 5 6.61779 5 8.27464C5 9.9315 6.34315 11.2746 8 11.2746C9.65685 11.2746 11 9.9315 11 8.27464C11 6.61779 9.65685 5.27464 8 5.27464Z" fill="currentColor"/>
<path d="M13.6568 3.6785C13.9497 3.38561 13.9497 2.91073 13.6568 2.61784C13.3639 2.32495 12.889 2.32495 12.5961 2.61784L11.5355 3.6785C11.2426 3.97139 11.2426 4.44627 11.5355 4.73916C11.8284 5.03205 12.3032 5.03205 12.5961 4.73916L13.6568 3.6785Z" fill="currentColor"/>
<path d="M4.46441 12.8709C4.7573 12.578 4.7573 12.1031 4.46441 11.8102C4.17151 11.5173 3.69664 11.5173 3.40375 11.8102L2.34309 12.8709C2.05019 13.1638 2.05019 13.6387 2.34309 13.9315C2.63598 14.2244 3.11085 14.2244 3.40375 13.9315L4.46441 12.8709Z" fill="currentColor"/>
<path d="M16 8.27464C16 8.68886 15.6642 9.02464 15.25 9.02464H13.75C13.3358 9.02464 13 8.68886 13 8.27464C13 7.86043 13.3358 7.52464 13.75 7.52464H15.25C15.6642 7.52464 16 7.86043 16 8.27464Z" fill="currentColor"/>
<path d="M3 8.27464C3 8.68886 2.66421 9.02464 2.25 9.02464H0.75C0.335787 9.02464 0 8.68886 0 8.27464C0 7.86043 0.335787 7.52464 0.75 7.52464H2.25C2.66421 7.52464 3 7.86043 3 8.27464Z" fill="currentColor"/>
<path d="M12.596 13.9314C12.8889 14.2243 13.3638 14.2243 13.6567 13.9314C13.9496 13.6385 13.9496 13.1637 13.6567 12.8708L12.596 11.8101C12.3031 11.5172 11.8283 11.5172 11.5354 11.8101C11.2425 12.103 11.2425 12.5779 11.5354 12.8708L12.596 13.9314Z" fill="currentColor"/>
<path d="M3.40363 4.73905C3.69653 5.03194 4.1714 5.03194 4.46429 4.73905C4.75719 4.44616 4.75719 3.97128 4.46429 3.67839L3.40363 2.61773C3.11074 2.32484 2.63587 2.32484 2.34297 2.61773C2.05008 2.91062 2.05008 3.3855 2.34297 3.67839L3.40363 4.73905Z" fill="currentColor"/>
</svg>
