<svg width="22" height="20" viewBox="0 0 22 20" fill="none" xmlns="http://www.w3.org/2000/svg">
<path d="M2 0H16C17.11 0 18 0.9 18 2V9.08C16.45 8.82 14.92 9.18 13.68 10H10V14H11.08C10.97 14.68 10.97 15.35 11.08 16H2C0.9 16 0 15.11 0 14V2C0 0.9 0.9 0 2 0ZM2 4V8H8V4H2ZM10 4V8H16V4H10ZM2 10V14H8V10H2ZM21.78 16.32L20.71 15.5C20.73 15.33 20.75 15.17 20.75 15C20.75 14.83 20.74 14.67 20.71 14.5L21.77 13.68C21.86 13.6 21.89 13.47 21.83 13.36L20.83 11.63C20.77 11.5 20.64 11.5 20.5 11.5L19.28 12C19 11.82 18.74 11.65 18.43 11.53L18.24 10.21C18.23 10.09 18.12 10 18 10H16C15.88 10 15.77 10.09 15.75 10.21L15.56 11.53C15.26 11.66 14.97 11.82 14.71 12L13.47 11.5C13.36 11.5 13.23 11.5 13.16 11.63L12.16 13.36C12.1 13.47 12.12 13.6 12.22 13.68L13.28 14.5C13.26 14.67 13.25 14.83 13.25 15C13.25 15.17 13.26 15.33 13.28 15.5L12.22 16.32C12.13 16.4 12.1 16.53 12.16 16.64L13.16 18.37C13.22 18.5 13.35 18.5 13.47 18.5L14.71 18C14.97 18.18 15.25 18.35 15.56 18.47L15.75 19.79C15.77 19.91 15.87 20 16 20H18C18.12 20 18.23 19.91 18.25 19.79L18.44 18.47C18.74 18.34 19 18.18 19.28 18L20.5 18.5C20.64 18.5 20.77 18.5 20.84 18.37L21.84 16.64C21.9 16.53 21.87 16.4 21.78 16.32ZM17 16.5C16.17 16.5 15.5 15.83 15.5 15C15.5 14.17 16.18 13.5 17 13.5C17.82 13.5 18.5 14.17 18.5 15C18.5 15.83 17.84 16.5 17 16.5Z" fill="black"/>
</svg>