<svg width="19" height="19" viewBox="0 0 19 19" fill="none" xmlns="http://www.w3.org/2000/svg">
<path d="M11.46 12.88L12.88 11.46L15 13.59L17.12 11.46L18.54 12.88L16.41 15L18.54 17.12L17.12 18.54L15 16.41L12.88 18.54L11.46 17.12L13.59 15L11.46 12.88ZM9 14V12H4V14H9ZM14 8H4V10H11.69C10.07 11.07 9 12.91 9 15C9 16.09 9.29 17.12 9.8 18H2C0.89 18 0 17.1 0 16V2C0 0.89 0.89 0 2 0H16C16.5304 0 17.0391 0.210714 17.4142 0.585786C17.7893 0.960859 18 1.46957 18 2V9.8C17.12 9.29 16.09 9 15 9L14 9.08V8ZM14 6V4H4V6H14Z" fill="black"/>
</svg>