<svg width="16" height="22" viewBox="0 0 16 22" fill="none" xmlns="http://www.w3.org/2000/svg">
<path d="M0 16.5V7C0 5.38333 0.708333 4.325 2.125 3.825C3.54167 3.325 5.16667 3.05 7 3L7.75 1.5H3V0H13V1.5H9.75L9 3C10.9833 3.05 12.6458 3.32083 13.9875 3.8125C15.3292 4.30417 16 5.36667 16 7V16.5C16 17.4833 15.6625 18.3125 14.9875 18.9875C14.3125 19.6625 13.4833 20 12.5 20L14 21.5V22H12L10 20H6L4 22H2V21.5L3.5 20C2.51667 20 1.6875 19.6625 1.0125 18.9875C0.3375 18.3125 0 17.4833 0 16.5ZM8 17C8.41667 17 8.77083 16.8542 9.0625 16.5625C9.35417 16.2708 9.5 15.9167 9.5 15.5C9.5 15.0833 9.35417 14.7292 9.0625 14.4375C8.77083 14.1458 8.41667 14 8 14C7.58333 14 7.22917 14.1458 6.9375 14.4375C6.64583 14.7292 6.5 15.0833 6.5 15.5C6.5 15.9167 6.64583 16.2708 6.9375 16.5625C7.22917 16.8542 7.58333 17 8 17ZM2 11H14V8H2V11ZM3.5 18H12.5C12.9333 18 13.2917 17.8583 13.575 17.575C13.8583 17.2917 14 16.9333 14 16.5V13H2V16.5C2 16.9333 2.14167 17.2917 2.425 17.575C2.70833 17.8583 3.06667 18 3.5 18ZM7.95 5C5.71667 5 4.28333 5.12083 3.65 5.3625C3.01667 5.60417 2.6 5.81667 2.4 6H13.65C13.45 5.76667 13.0167 5.54167 12.35 5.325C11.6833 5.10833 10.2167 5 7.95 5Z" fill="#1C1B1F"/>
</svg>