<svg width="22" height="16" viewBox="0 0 22 16" fill="none" xmlns="http://www.w3.org/2000/svg">
<path d="M17 0H12V9H0V13H2C2 13.83 2.3 14.53 2.89 15.13C3.5 15.72 4.19 16 5 16C5.81 16 6.5 15.72 7.11 15.13C7.7 14.53 8 13.83 8 13H13.5C13.5 13.83 13.78 14.53 14.38 15.13C14.97 15.72 15.67 16 16.5 16C17.3 16 18 15.72 18.59 15.13C19.19 14.53 19.5 13.83 19.5 13H22V6L17 0ZM6.08 14.07C5.8 14.37 5.44 14.5 5 14.5C4.56 14.5 4.2 14.37 3.92 14.07C3.64 13.77 3.5 13.42 3.5 13C3.5 12.61 3.64 12.26 3.92 11.96C4.2 11.66 4.56 11.5 5 11.5C5.44 11.5 5.8 11.66 6.08 11.96C6.36 12.26 6.5 12.61 6.5 13C6.5 13.42 6.36 13.77 6.08 14.07ZM17.54 14.07C17.24 14.37 16.89 14.5 16.5 14.5C16.08 14.5 15.73 14.37 15.43 14.07C15.13 13.77 15 13.42 15 13C15 12.61 15.13 12.26 15.43 11.96C15.73 11.66 16.08 11.5 16.5 11.5C16.89 11.5 17.24 11.66 17.54 11.96C17.84 12.26 18 12.61 18 13C18 13.42 17.84 13.77 17.54 14.07ZM14 6V2H16.06L19.39 6H14Z" fill="#020617"/>
</svg>