<svg width="9" height="10" viewBox="0 0 9 10" fill="none" xmlns="http://www.w3.org/2000/svg">
<path d="M3.91204 9.288C3.1867 9.288 2.5467 9.15466 1.99204 8.888C1.44804 8.62133 1.02137 8.216 0.712038 7.672C0.413371 7.11733 0.264038 6.424 0.264038 5.592V0.711998H1.80004V5.416C1.80004 6.248 1.99737 6.872 2.39204 7.288C2.79737 7.704 3.3627 7.912 4.08804 7.912C4.62137 7.912 5.08537 7.80533 5.48004 7.592C5.87471 7.368 6.17871 7.048 6.39204 6.632C6.60537 6.20533 6.71204 5.69333 6.71204 5.096V0.711998H8.24804V9.192H6.79204V6.904L7.03204 7.512C6.7547 8.07733 6.33871 8.51467 5.78404 8.824C5.22937 9.13333 4.60537 9.288 3.91204 9.288Z" fill="currentColor"/>
</svg>
