<svg width="15" height="18" viewBox="0 0 15 18" fill="none" xmlns="http://www.w3.org/2000/svg">
<path fill-rule="evenodd" clip-rule="evenodd" d="M3.66007 4C3.66007 1.92893 5.339 0.25 7.41007 0.25C9.48113 0.25 11.1601 1.92893 11.1601 4C11.1601 6.07107 9.48113 7.75 7.41007 7.75C5.339 7.75 3.66007 6.07107 3.66007 4Z" fill="currentColor"/>
<path fill-rule="evenodd" clip-rule="evenodd" d="M0.536104 15.7544C0.600554 12.013 3.65339 9 7.41007 9C11.1668 9 14.2197 12.0131 14.284 15.7547C14.2883 16.0028 14.1453 16.23 13.9198 16.3335C11.9373 17.2432 9.73217 17.75 7.41033 17.75C5.08828 17.75 2.88293 17.2431 0.900334 16.3332C0.674775 16.2297 0.53183 16.0026 0.536104 15.7544Z" fill="currentColor"/>
</svg>
