<svg width="14" height="18" viewBox="0 0 14 18" fill="none" xmlns="http://www.w3.org/2000/svg">
<path fill-rule="evenodd" clip-rule="evenodd" d="M3.12405 3.75C3.12405 1.67893 4.80299 0 6.87405 0C8.94512 0 10.6241 1.67893 10.6241 3.75C10.6241 5.82107 8.94512 7.5 6.87405 7.5C4.80299 7.5 3.12405 5.82107 3.12405 3.75Z" fill="currentColor"/>
<path fill-rule="evenodd" clip-rule="evenodd" d="M9.32775e-05 15.5044C0.0645434 11.763 3.11738 8.75 6.87405 8.75C10.6308 8.75 13.6837 11.7631 13.748 15.5047C13.7523 15.7528 13.6093 15.98 13.3838 16.0835C11.4013 16.9932 9.19616 17.5 6.87432 17.5C4.55227 17.5 2.34692 16.9931 0.364323 16.0832C0.138765 15.9797 -0.00418116 15.7526 9.32775e-05 15.5044Z" fill="currentColor"/>
</svg>
