<svg width="22" height="22" viewBox="0 0 22 22" fill="none" xmlns="http://www.w3.org/2000/svg">
<path d="M11 4C9.14348 4 7.36301 4.7375 6.05025 6.05025C4.7375 7.36301 4 9.14348 4 11H6C6 9.67392 6.52678 8.40215 7.46447 7.46447C8.40215 6.52678 9.67392 6 11 6C12.3261 6 13.5979 6.52678 14.5355 7.46447C15.4732 8.40215 16 9.67392 16 11H18C18 9.14348 17.2625 7.36301 15.9497 6.05025C14.637 4.7375 12.8565 4 11 4ZM12 13.29C12.88 12.9 13.5 12.03 13.5 11C13.5 10.337 13.2366 9.70107 12.7678 9.23223C12.2989 8.76339 11.663 8.5 11 8.5C10.337 8.5 9.70107 8.76339 9.23223 9.23223C8.76339 9.70107 8.5 10.337 8.5 11C8.5 12 9.12 12.9 10 13.29V16.59L6.59 20L8 21.41L11 18.41L14 21.41L15.41 20L12 16.59V13.29ZM11 0C8.08262 0 5.28473 1.15893 3.22183 3.22183C1.15893 5.28473 0 8.08262 0 11H2C2 8.61305 2.94821 6.32387 4.63604 4.63604C6.32387 2.94821 8.61305 2 11 2C13.3869 2 15.6761 2.94821 17.364 4.63604C19.0518 6.32387 20 8.61305 20 11H22C22 8.08262 20.8411 5.28473 18.7782 3.22183C16.7153 1.15893 13.9174 0 11 0Z" fill="black"/>
</svg>