<svg width="20" height="17" viewBox="0 0 20 17" fill="none" xmlns="http://www.w3.org/2000/svg">
<path d="M3.50787 0.494313C3.21498 0.20142 2.7401 0.20142 2.44721 0.494313C2.15432 0.787206 2.15432 1.26208 2.44721 1.55497L16.9472 16.055C17.2401 16.3479 17.715 16.3479 18.0079 16.055C18.3008 15.7621 18.3008 15.2872 18.0079 14.9943L16.2627 13.2491C17.7339 12.134 18.8871 10.6211 19.5619 8.87057C19.709 8.48901 19.7091 8.06591 19.5622 7.68427C18.1195 3.93515 14.4835 1.27464 10.2261 1.27464C8.50961 1.27464 6.89411 1.70713 5.48264 2.46908L3.50787 0.494313ZM7.97947 4.96592C8.62022 4.52965 9.39429 4.27464 10.2279 4.27464C12.4371 4.27464 14.2279 6.0655 14.2279 8.27464C14.2279 9.10827 13.9729 9.88233 13.5366 10.5231L12.4447 9.43115C12.6255 9.08531 12.7277 8.69192 12.7277 8.27464C12.7277 6.89393 11.6084 5.77464 10.2277 5.77464C9.81045 5.77464 9.41705 5.87687 9.07121 6.05765L7.97947 4.96592Z" fill="currentColor"/>
<path d="M10.9759 12.2048L13.4986 14.7275C12.4738 15.0821 11.3733 15.2746 10.2279 15.2746C5.97052 15.2746 2.33451 12.6141 0.891794 8.86502C0.744931 8.48338 0.745057 8.06028 0.892149 7.67872C1.38357 6.40396 2.12862 5.25522 3.06545 4.29433L6.29773 7.52662C6.25189 7.76894 6.22791 8.01899 6.22791 8.27464C6.22791 10.4838 8.01877 12.2746 10.2279 12.2746C10.4836 12.2746 10.7336 12.2507 10.9759 12.2048Z" fill="currentColor"/>
</svg>
