<svg width="20" height="15" viewBox="0 0 20 15" fill="none" xmlns="http://www.w3.org/2000/svg">
<path d="M10.3369 9.77464C11.7176 9.77464 12.8369 8.65535 12.8369 7.27464C12.8369 5.89393 11.7176 4.77464 10.3369 4.77464C8.9562 4.77464 7.83691 5.89393 7.83691 7.27464C7.83691 8.65535 8.9562 9.77464 10.3369 9.77464Z" fill="currentColor"/>
<path d="M1.00117 7.86502C0.854306 7.48338 0.854432 7.06028 1.00152 6.67872C2.44569 2.93252 6.08021 0.274643 10.3355 0.274643C14.5929 0.274643 18.2289 2.93515 19.6716 6.68427C19.8185 7.06591 19.8184 7.48901 19.6713 7.87057C18.2271 11.6168 14.5926 14.2746 10.3373 14.2746C6.07989 14.2746 2.44389 11.6141 1.00117 7.86502ZM14.3373 7.27464C14.3373 5.0655 12.5464 3.27464 10.3373 3.27464C8.12815 3.27464 6.33729 5.0655 6.33729 7.27464C6.33729 9.48378 8.12815 11.2746 10.3373 11.2746C12.5464 11.2746 14.3373 9.48378 14.3373 7.27464Z" fill="currentColor"/>
</svg>
