<svg width="21" height="18" viewBox="0 0 21 18" fill="none" xmlns="http://www.w3.org/2000/svg">
<path d="M19.04 2H16.8V4.25C14.96 3.45 12.93 3 10.8 3C7.42 3 4.3 4.12 1.8 6L0 3.6C3.01 1.34 6.75 0 10.8 0C13.77 0 16.57 0.73 19.04 2ZM7.2 13.2L10.8 18L14.4 13.2C13.4 12.45 12.15 12 10.8 12C9.45 12 8.2 12.45 7.2 13.2ZM3.6 8.4L5.4 10.8C6.9 9.67 8.77 9 10.8 9C12.83 9 14.7 9.67 16.2 10.8L16.8 10V7.62C15.03 6.59 12.99 6 10.8 6C8.1 6 5.61 6.89 3.6 8.4ZM18.8 14H20.8V12H18.8V14ZM18.8 4V10H20.8V4H18.8Z" fill="black"/>
</svg>