<svg width="11" height="12" viewBox="0 0 11 12" fill="none" xmlns="http://www.w3.org/2000/svg">
<path d="M2.99192 11.84C2.58658 11.84 2.19192 11.7707 1.80792 11.632C1.42392 11.504 1.09325 11.312 0.815918 11.056L1.47192 9.904C1.68525 10.1067 1.91992 10.2613 2.17592 10.368C2.43192 10.4747 2.70392 10.528 2.99192 10.528C3.36525 10.528 3.67458 10.432 3.91992 10.24C4.16525 10.048 4.39458 9.70666 4.60792 9.216L5.13592 8.048L5.29592 7.856L8.62392 0.159996H10.1279L6.01592 9.488C5.77059 10.0853 5.49325 10.5547 5.18392 10.896C4.88525 11.2373 4.55458 11.4773 4.19192 11.616C3.82925 11.7653 3.42925 11.84 2.99192 11.84ZM5.00792 8.912L1.13592 0.159996H2.73592L6.03192 7.712L5.00792 8.912Z" fill="currentColor"/>
</svg>
