<svg width="14" height="12" viewBox="0 0 14 12" fill="currentColor" xmlns="http://www.w3.org/2000/svg">
<path fill-rule="evenodd" clip-rule="evenodd" d="M14 6C14 5.58579 13.6642 5.25 13.25 5.25L2.61208 5.25L6.76983 1.29062C7.06841 1.00353 7.07772 0.528746 6.79063 0.230167C6.50353 -0.0684112 6.02875 -0.077721 5.73017 0.209374L0.230169 5.45937C0.0831101 5.60078 2.71186e-07 5.79599 2.62268e-07 6C2.53351e-07 6.20401 0.0831101 6.39922 0.230169 6.54062L5.73017 11.7906C6.02875 12.0777 6.50353 12.0684 6.79062 11.7698C7.07772 11.4713 7.06841 10.9965 6.76983 10.7094L2.61208 6.75L13.25 6.75C13.6642 6.75 14 6.41421 14 6Z" />
</svg>
