<svg width="18" height="15" viewBox="0 0 18 15" fill="currentColor" xmlns="http://www.w3.org/2000/svg">
<path d="M8.75 5C7.02411 5 5.625 6.39911 5.625 8.125C5.625 9.85089 7.02411 11.25 8.75 11.25C10.4759 11.25 11.875 9.85089 11.875 8.125C11.875 6.39911 10.4759 5 8.75 5Z" />
<path d="M6.5369 0.0592722C7.26967 0.0199238 8.00754 0 8.75 0C9.49246 0 10.2303 0.0199238 10.9631 0.0592722C11.7694 0.102572 12.4878 0.546766 12.9068 1.2182L13.5912 2.31488C13.7904 2.63416 14.1287 2.85109 14.5163 2.90617C14.8374 2.95181 15.1574 3.00121 15.4761 3.05432C16.6693 3.25315 17.5 4.29821 17.5 5.47836V12.5C17.5 13.8807 16.3807 15 15 15H2.5C1.11929 15 0 13.8807 0 12.5V5.47835C0 4.2982 0.830715 3.25314 2.02393 3.05431C2.34263 3.0012 2.66258 2.95181 2.98373 2.90617C3.3713 2.85109 3.7096 2.63416 3.90884 2.31487L4.59318 1.2182C5.01217 0.546765 5.73056 0.102572 6.5369 0.0592722ZM4.375 8.125C4.375 10.5412 6.33375 12.5 8.75 12.5C11.1662 12.5 13.125 10.5412 13.125 8.125C13.125 5.70875 11.1662 3.75 8.75 3.75C6.33375 3.75 4.375 5.70875 4.375 8.125ZM14.375 6.875C14.7202 6.875 15 6.59518 15 6.25C15 5.90482 14.7202 5.625 14.375 5.625C14.0298 5.625 13.75 5.90482 13.75 6.25C13.75 6.59518 14.0298 6.875 14.375 6.875Z" />
</svg>
