<svg width="17" height="18" viewBox="0 0 17 18" fill="currentColor" xmlns="http://www.w3.org/2000/svg">
<path fill-rule="evenodd" clip-rule="evenodd" d="M8.5 2.25C4.77208 2.25 1.75 5.27208 1.75 9C1.75 12.7279 4.77208 15.75 8.5 15.75C12.2279 15.75 15.25 12.7279 15.25 9C15.25 5.27208 12.2279 2.25 8.5 2.25ZM0.25 9C0.25 4.44365 3.94365 0.75 8.5 0.75C13.0563 0.75 16.75 4.44365 16.75 9C16.75 13.5563 13.0563 17.25 8.5 17.25C3.94365 17.25 0.25 13.5563 0.25 9ZM11.4359 6.5147C11.773 6.75546 11.8511 7.22387 11.6103 7.56093L8.4853 11.9359C8.35716 12.1153 8.15657 12.2293 7.93686 12.2474C7.71715 12.2656 7.50056 12.1862 7.34467 12.0303L5.46967 10.1553C5.17678 9.86244 5.17678 9.38756 5.46967 9.09467C5.76256 8.80178 6.23744 8.80178 6.53033 9.09467L7.7793 10.3436L10.3897 6.68907C10.6305 6.35201 11.0989 6.27394 11.4359 6.5147Z" />
</svg>
