<svg width="12" height="10" viewBox="0 0 12 10" fill="currentColor" xmlns="http://www.w3.org/2000/svg">
<path fill-rule="evenodd" clip-rule="evenodd" d="M11.7906 9.76983C11.5035 10.0684 11.0287 10.0777 10.7302 9.79062L6.23017 5.54062C6.08311 5.39922 6 5.20401 6 5C6 4.79599 6.08311 4.60078 6.23017 4.45938L10.7302 0.209375C11.0287 -0.0777206 11.5035 -0.0684108 11.7906 0.230167C12.0777 0.528747 12.0684 1.00353 11.7698 1.29062L7.83208 5L11.7698 8.70937C12.0684 8.99647 12.0777 9.47125 11.7906 9.76983ZM5.79062 9.76983C5.50353 10.0684 5.02875 10.0777 4.73017 9.79062L0.230167 5.54063C0.0831085 5.39922 -1.37295e-06 5.20401 -1.39079e-06 5C-1.40862e-06 4.79599 0.0831084 4.60078 0.230167 4.45938L4.73017 0.209375C5.02875 -0.07772 5.50353 -0.0684103 5.79062 0.230168C6.07772 0.528747 6.06841 1.00353 5.76983 1.29062L1.83208 5L5.76983 8.70937C6.06841 8.99647 6.07772 9.47125 5.79062 9.76983Z" />
</svg>
