<svg width="17" height="20" viewBox="0 0 17 20" fill="currentColor" xmlns="http://www.w3.org/2000/svg">
<path d="M15.2105 17.8947H5.36842V5.36842H15.2105M15.2105 3.57895H5.36842C4.89382 3.57895 4.43866 3.76748 4.10307 4.10307C3.76748 4.43866 3.57895 4.89382 3.57895 5.36842V17.8947C3.57895 18.3693 3.76748 18.8245 4.10307 19.1601C4.43866 19.4957 4.89382 19.6842 5.36842 19.6842H15.2105C15.6851 19.6842 16.1403 19.4957 16.4759 19.1601C16.8115 18.8245 17 18.3693 17 17.8947V5.36842C17 4.89382 16.8115 4.43866 16.4759 4.10307C16.1403 3.76748 15.6851 3.57895 15.2105 3.57895ZM12.5263 0H1.78947C1.31488 0 0.859716 0.188533 0.524125 0.524125C0.188533 0.859716 0 1.31488 0 1.78947V14.3158H1.78947V1.78947H12.5263V0Z" />
</svg>
