<svg width="18" height="17" viewBox="0 0 18 17" fill="currentColor" xmlns="http://www.w3.org/2000/svg">
<path fill-rule="evenodd" clip-rule="evenodd" d="M9.98085 2.31281C9.54792 1.5624 8.46486 1.5624 8.03193 2.31281L1.90333 12.9357C1.47063 13.6857 2.01192 14.6229 2.87778 14.6229H15.135C16.0009 14.6229 16.5421 13.6857 16.1095 12.9357L9.98085 2.31281ZM6.73265 1.56323C7.74283 -0.187742 10.27 -0.187743 11.2801 1.56323L17.4087 12.1861C18.4183 13.9361 17.1553 16.1229 15.135 16.1229H2.87778C0.857432 16.1229 -0.405568 13.9361 0.604047 12.1861L6.73265 1.56323ZM9.00639 5.87292C9.4206 5.87292 9.75639 6.2087 9.75639 6.62292V9.74792C9.75639 10.1621 9.4206 10.4979 9.00639 10.4979C8.59218 10.4979 8.25639 10.1621 8.25639 9.74792V6.62292C8.25639 6.2087 8.59218 5.87292 9.00639 5.87292ZM8.25639 12.2479C8.25639 11.8337 8.59218 11.4979 9.00639 11.4979H9.01264C9.42685 11.4979 9.76264 11.8337 9.76264 12.2479V12.2542C9.76264 12.6684 9.42685 13.0042 9.01264 13.0042H9.00639C8.59218 13.0042 8.25639 12.6684 8.25639 12.2542V12.2479Z" />
</svg>
