<svg width="18" height="18" viewBox="0 0 18 18" fill="currentColor" xmlns="http://www.w3.org/2000/svg">
<path fill-rule="evenodd" clip-rule="evenodd" d="M6.94032 0.43149C7.11949 0.610658 7.17276 0.880273 7.07518 1.11411C6.70484 2.00164 6.5 2.97613 6.5 4.00005C6.5 8.14219 9.85787 11.5 14 11.5C15.0239 11.5 15.9984 11.2952 16.8859 10.9249C17.1198 10.8273 17.3894 10.8806 17.5686 11.0597C17.7477 11.2389 17.801 11.5085 17.7034 11.7424C16.3849 14.9023 13.2652 17.125 9.625 17.125C4.79251 17.125 0.875 13.2075 0.875 8.37505C0.875 4.73481 3.09779 1.61518 6.2577 0.296633C6.49154 0.199057 6.76115 0.252321 6.94032 0.43149Z" />
</svg>
