<svg width="17" height="17" viewBox="0 0 17 17" fill="currentColor" xmlns="http://www.w3.org/2000/svg">
<path fill-rule="evenodd" clip-rule="evenodd" d="M7.54166 1.91663C4.43505 1.91663 1.91666 4.43502 1.91666 7.54163C1.91666 10.6482 4.43505 13.1666 7.54166 13.1666C9.09513 13.1666 10.5005 12.5377 11.5191 11.5191C12.5377 10.5005 13.1667 9.0951 13.1667 7.54163C13.1667 4.43502 10.6483 1.91663 7.54166 1.91663ZM0.666656 7.54163C0.666656 3.74467 3.7447 0.666626 7.54166 0.666626C11.3386 0.666626 14.4167 3.74467 14.4167 7.54163C14.4167 9.21481 13.8183 10.7492 12.8249 11.941L16.7336 15.8497C16.9777 16.0938 16.9777 16.4895 16.7336 16.7336C16.4895 16.9776 16.0938 16.9776 15.8497 16.7336L11.941 12.8249C10.7492 13.8183 9.21484 14.4166 7.54166 14.4166C3.7447 14.4166 0.666656 11.3386 0.666656 7.54163Z" />
</svg>
