<svg width="14" height="18" viewBox="0 0 14 18" fill="currentColor" xmlns="http://www.w3.org/2000/svg">
<path fill-rule="evenodd" clip-rule="evenodd" d="M3.25 4C3.25 1.92893 4.92893 0.25 7 0.25C9.07107 0.25 10.75 1.92893 10.75 4C10.75 6.07107 9.07107 7.75 7 7.75C4.92893 7.75 3.25 6.07107 3.25 4Z"/>
<path fill-rule="evenodd" clip-rule="evenodd" d="M0.126039 15.7544C0.190489 12.013 3.24332 9 7 9C10.7568 9 13.8097 12.0131 13.874 15.7547C13.8782 16.0028 13.7353 16.23 13.5097 16.3335C11.5273 17.2432 9.3221 17.75 7.00027 17.75C4.67822 17.75 2.47286 17.2431 0.490269 16.3332C0.264711 16.2297 0.121765 16.0026 0.126039 15.7544Z"/>
</svg>
